Pfont-SemiLight.ufo
<glyph name="exclam" format="1">
  <advance width="520"/>
  <unicode hex="0021"/>
  <outline>
    <contour>
      <point x="304" y="438" type="line" smooth="yes"/>
      <point x="312" y="442"/>
      <point x="316" y="447"/>
      <point x="316" y="458" type="curve" smooth="yes"/>
      <point x="311" y="1398" type="line" smooth="yes"/>
      <point x="311" y="1411"/>
      <point x="302" y="1416"/>
      <point x="291" y="1412" type="curve" smooth="yes"/>
      <point x="159" y="1366" type="line" smooth="yes"/>
      <point x="150" y="1363"/>
      <point x="145" y="1357"/>
      <point x="146" y="1347" type="curve" smooth="yes"/>
      <point x="198" y="386" type="line"/>
    </contour>
    <component base="period" xOffset="31" yOffset="-26" xScale="0.803" yScale="0.803"/>
  </outline>
</glyph>
<glyph name="numbersign" format="1">
  <advance width="1374"/>
  <unicode hex="0023"/>
  <outline>
    <contour>
      <point x="415" y="35" type="line" smooth="yes"/>
      <point x="423" y="35"/>
      <point x="431" y="40"/>
      <point x="432" y="49" type="curve" smooth="yes"/>
      <point x="484" y="406" type="line"/>
      <point x="757" y="406" type="line"/>
      <point x="706" y="55" type="line" smooth="yes"/>
      <point x="704" y="44"/>
      <point x="713" y="35"/>
      <point x="725" y="35" type="curve" smooth="yes"/>
      <point x="800" y="35" type="line" smooth="yes"/>
      <point x="808" y="35"/>
      <point x="816" y="40"/>
      <point x="818" y="49" type="curve" smooth="yes"/>
      <point x="869" y="406" type="line"/>
      <point x="1145" y="406" type="line" smooth="yes"/>
      <point x="1153" y="406"/>
      <point x="1160" y="411"/>
      <point x="1162" y="420" type="curve" smooth="yes"/>
      <point x="1174" y="491" type="line" smooth="yes"/>
      <point x="1176" y="503"/>
      <point x="1167" y="513"/>
      <point x="1156" y="513" type="curve" smooth="yes"/>
      <point x="885" y="513" type="line"/>
      <point x="936" y="868" type="line"/>
      <point x="1231" y="868" type="line" smooth="yes"/>
      <point x="1239" y="868"/>
      <point x="1245" y="873"/>
      <point x="1247" y="882" type="curve" smooth="yes"/>
      <point x="1259" y="953" type="line" smooth="yes"/>
      <point x="1261" y="965"/>
      <point x="1252" y="975"/>
      <point x="1241" y="975" type="curve" smooth="yes"/>
      <point x="952" y="975" type="line"/>
      <point x="1005" y="1341" type="line"/>
      <point x="1006" y="1352"/>
      <point x="998" y="1362"/>
      <point x="987" y="1362" type="curve" smooth="yes"/>
      <point x="911" y="1362" type="line" smooth="yes"/>
      <point x="903" y="1362"/>
      <point x="895" y="1356"/>
      <point x="894" y="1347" type="curve" smooth="yes"/>
      <point x="839" y="975" type="line"/>
      <point x="567" y="975" type="line"/>
      <point x="620" y="1341" type="line" smooth="yes"/>
      <point x="622" y="1352"/>
      <point x="613" y="1362"/>
      <point x="601" y="1362" type="curve" smooth="yes"/>
      <point x="526" y="1362" type="line" smooth="yes"/>
      <point x="518" y="1362"/>
      <point x="509" y="1356"/>
      <point x="508" y="1347" type="curve" smooth="yes"/>
      <point x="454" y="975" type="line"/>
      <point x="213" y="975" type="line" smooth="yes"/>
      <point x="205" y="975"/>
      <point x="196" y="969"/>
      <point x="195" y="960" type="curve" smooth="yes"/>
      <point x="185" y="889" type="line" smooth="yes"/>
      <point x="183" y="877"/>
      <point x="192" y="868"/>
      <point x="204" y="868" type="curve" smooth="yes"/>
      <point x="439" y="868" type="line"/>
      <point x="388" y="513" type="line"/>
      <point x="143" y="513" type="line" smooth="yes"/>
      <point x="135" y="513"/>
      <point x="126" y="507"/>
      <point x="125" y="498" type="curve" smooth="yes"/>
      <point x="115" y="427" type="line" smooth="yes"/>
      <point x="113" y="415"/>
      <point x="122" y="406"/>
      <point x="133" y="406" type="curve" smooth="yes"/>
      <point x="371" y="406" type="line"/>
      <point x="321" y="55" type="line" smooth="yes"/>
      <point x="319" y="44"/>
      <point x="328" y="35"/>
      <point x="339" y="35" type="curve" smooth="yes"/>
    </contour>
    <contour>
      <point x="552" y="868" type="line"/>
      <point x="823" y="868" type="line"/>
      <point x="773" y="513" type="line"/>
      <point x="500" y="513" type="line"/>
    </contour>
  </outline>
</glyph>
<glyph name="quotesingle" format="1">
  <advance width="366"/>
  <unicode hex="0027"/>
  <outline>
    <contour>
      <point x="210" y="1157" type="line" smooth="yes"/>
      <point x="216" y="1157"/>
      <point x="218" y="1156"/>
      <point x="218" y="1160" type="curve" smooth="yes"/>
      <point x="251" y="1654" type="line"/>
      <point x="251" y="1657"/>
      <point x="250" y="1662"/>
      <point x="245" y="1662" type="curve" smooth="yes"/>
      <point x="125" y="1662" type="line" smooth="yes"/>
      <point x="121" y="1662"/>
      <point x="117" y="1662"/>
      <point x="117" y="1656" type="curve" smooth="yes"/>
      <point x="115" y="1165" type="line" smooth="yes"/>
      <point x="115" y="1162"/>
      <point x="116" y="1157"/>
      <point x="118" y="1157" type="curve" smooth="yes"/>
    </contour>
  </outline>
</glyph>
<glyph name="parenleft" format="1">
  <advance width="704"/>
  <unicode hex="0028"/>
  <outline>
    <contour>
      <point x="551" y="-345" type="line" smooth="yes"/>
      <point x="565" y="-345"/>
      <point x="569" y="-336"/>
      <point x="562" y="-324" type="curve" smooth="yes"/>
      <point x="213" y="237"/>
      <point x="210" y="785"/>
      <point x="561" y="1324" type="curve" smooth="yes"/>
      <point x="569" y="1335"/>
      <point x="564" y="1344"/>
      <point x="550" y="1344" type="curve" smooth="yes"/>
      <point x="471" y="1344" type="line" smooth="yes"/>
      <point x="462" y="1344"/>
      <point x="457" y="1341"/>
      <point x="451" y="1334" type="curve" smooth="yes"/>
      <point x="33" y="772"/>
      <point x="33" y="215"/>
      <point x="451" y="-335" type="curve" smooth="yes"/>
      <point x="457" y="-342"/>
      <point x="462" y="-345"/>
      <point x="471" y="-345" type="curve" smooth="yes"/>
    </contour>
  </outline>
</glyph>
<glyph name="parenright" format="1">
  <advance width="704"/>
  <unicode hex="0029"/>
  <outline>
    <contour>
      <point x="232" y="-345" type="line" smooth="yes"/>
      <point x="241" y="-345"/>
      <point x="247" y="-342"/>
      <point x="253" y="-335" type="curve" smooth="yes"/>
      <point x="670" y="215"/>
      <point x="670" y="772"/>
      <point x="253" y="1334" type="curve" smooth="yes"/>
      <point x="247" y="1341"/>
      <point x="241" y="1344"/>
      <point x="232" y="1344" type="curve" smooth="yes"/>
      <point x="154" y="1344" type="line" smooth="yes"/>
      <point x="140" y="1344"/>
      <point x="135" y="1335"/>
      <point x="143" y="1324" type="curve" smooth="yes"/>
      <point x="493" y="785"/>
      <point x="491" y="237"/>
      <point x="141" y="-324" type="curve" smooth="yes"/>
      <point x="135" y="-336"/>
      <point x="139" y="-345"/>
      <point x="153" y="-345" type="curve" smooth="yes"/>
    </contour>
  </outline>
</glyph>
<glyph name="asterisk" format="1">
  <advance width="1030"/>
  <unicode hex="002A"/>
  <outline>
    <contour>
      <point x="551" y="99"/>
      <point x="580" y="128"/>
      <point x="578" y="163" type="curve" smooth="yes"/>
      <point x="569" y="370" type="line"/>
      <point x="708" y="217" type="line" smooth="yes"/>
      <point x="731" y="192"/>
      <point x="774" y="191"/>
      <point x="799" y="215" type="curve" smooth="yes"/>
      <point x="822" y="240"/>
      <point x="822" y="282"/>
      <point x="798" y="306" type="curve" smooth="yes"/>
      <point x="644" y="445" type="line"/>
      <point x="851" y="436" type="line" smooth="yes"/>
      <point x="885" y="434"/>
      <point x="917" y="463"/>
      <point x="915" y="499" type="curve" smooth="yes"/>
      <point x="915" y="535"/>
      <point x="887" y="564"/>
      <point x="851" y="562" type="curve" smooth="yes"/>
      <point x="644" y="553" type="line"/>
      <point x="798" y="692" type="line" smooth="yes"/>
      <point x="822" y="715"/>
      <point x="823" y="758"/>
      <point x="799" y="783" type="curve" smooth="yes"/>
      <point x="774" y="806"/>
      <point x="733" y="806"/>
      <point x="708" y="781" type="curve" smooth="yes"/>
      <point x="573" y="633" type="line"/>
      <point x="582" y="835" type="line" smooth="yes"/>
      <point x="585" y="869"/>
      <point x="554" y="900"/>
      <point x="519" y="899" type="curve" smooth="yes"/>
      <point x="484" y="899"/>
      <point x="455" y="871"/>
      <point x="457" y="835" type="curve" smooth="yes"/>
      <point x="465" y="631" type="line"/>
      <point x="324" y="784" type="line" smooth="yes"/>
      <point x="302" y="808"/>
      <point x="259" y="811"/>
      <point x="236" y="785" type="curve" smooth="yes"/>
      <point x="210" y="760"/>
      <point x="210" y="719"/>
      <point x="236" y="695" type="curve" smooth="yes"/>
      <point x="391" y="553" type="line"/>
      <point x="179" y="562" type="line" smooth="yes"/>
      <point x="145" y="565"/>
      <point x="114" y="535"/>
      <point x="115" y="499" type="curve" smooth="yes"/>
      <point x="115" y="463"/>
      <point x="144" y="435"/>
      <point x="179" y="436" type="curve" smooth="yes"/>
      <point x="386" y="445" type="line"/>
      <point x="233" y="306" type="line" smooth="yes"/>
      <point x="207" y="284"/>
      <point x="207" y="240"/>
      <point x="231" y="215" type="curve" smooth="yes"/>
      <point x="256" y="192"/>
      <point x="298" y="192"/>
      <point x="322" y="217" type="curve" smooth="yes"/>
      <point x="461" y="370" type="line"/>
      <point x="452" y="163" type="line" smooth="yes"/>
      <point x="450" y="129"/>
      <point x="480" y="98"/>
      <point x="515" y="99" type="curve" smooth="yes"/>
    </contour>
    <contour>
      <point x="468" y="412"/>
      <point x="428" y="452"/>
      <point x="428" y="499" type="curve" smooth="yes"/>
      <point x="428" y="546"/>
      <point x="468" y="587"/>
      <point x="515" y="587" type="curve" smooth="yes"/>
      <point x="562" y="587"/>
      <point x="603" y="546"/>
      <point x="603" y="499" type="curve" smooth="yes"/>
      <point x="603" y="453"/>
      <point x="561" y="412"/>
      <point x="515" y="412" type="curve" smooth="yes"/>
    </contour>
  </outline>
</glyph>
<glyph name="plus" format="1">
  <advance width="1198"/>
  <unicode hex="002B"/>
  <outline>
    <contour>
      <point x="681" y="45" type="line"/>
      <point x="674" y="435" type="line"/>
      <point x="1083" y="435" type="line"/>
      <point x="1083" y="590" type="line"/>
      <point x="678" y="590" type="line"/>
      <point x="675" y="956" type="line"/>
      <point x="516" y="955" type="line"/>
      <point x="523" y="590" type="line"/>
      <point x="115" y="590" type="line"/>
      <point x="115" y="435" type="line"/>
      <point x="523" y="435" type="line"/>
      <point x="530" y="43" type="line"/>
    </contour>
  </outline>
</glyph>
<glyph name="comma" format="1">
  <advance width="444"/>
  <unicode hex="002C"/>
  <outline>
    <contour>
      <point x="301" y="-123"/>
      <point x="328" y="-61"/>
      <point x="329" y="197" type="curve" smooth="yes"/>
      <point x="329" y="208"/>
      <point x="322" y="215"/>
      <point x="312" y="215" type="curve" smooth="yes"/>
      <point x="132" y="215" type="line" smooth="yes"/>
      <point x="122" y="215"/>
      <point x="115" y="208"/>
      <point x="115" y="198" type="curve" smooth="yes"/>
      <point x="115" y="17" type="line" smooth="yes"/>
      <point x="115" y="7"/>
      <point x="122" y="0"/>
      <point x="132" y="0" type="curve" smooth="yes"/>
      <point x="228" y="0" type="line" smooth="yes"/>
      <point x="239" y="0"/>
      <point x="247" y="-7"/>
      <point x="245" y="-18" type="curve" smooth="yes"/>
      <point x="236" y="-79"/>
      <point x="201" y="-123"/>
      <point x="164" y="-159" type="curve" smooth="yes"/>
      <point x="156" y="-167"/>
      <point x="156" y="-175"/>
      <point x="162" y="-183" type="curve" smooth="yes"/>
      <point x="176" y="-201" type="line" smooth="yes"/>
      <point x="183" y="-209"/>
      <point x="191" y="-213"/>
      <point x="200" y="-206" type="curve" smooth="yes"/>
    </contour>
  </outline>
</glyph>
<glyph name="hyphen" format="1">
  <advance width="840"/>
  <unicode hex="002D"/>
  <outline>
    <contour>
      <point x="707" y="437" type="line" smooth="yes"/>
      <point x="718" y="437"/>
      <point x="725" y="444"/>
      <point x="725" y="454" type="curve" smooth="yes"/>
      <point x="725" y="544" type="line" smooth="yes"/>
      <point x="725" y="554"/>
      <point x="718" y="561"/>
      <point x="707" y="561" type="curve" smooth="yes"/>
      <point x="132" y="561" type="line" smooth="yes"/>
      <point x="122" y="561"/>
      <point x="115" y="554"/>
      <point x="115" y="544" type="curve" smooth="yes"/>
      <point x="115" y="454" type="line" smooth="yes"/>
      <point x="115" y="444"/>
      <point x="122" y="437"/>
      <point x="132" y="437" type="curve" smooth="yes"/>
    </contour>
  </outline>
</glyph>
<glyph name="period" format="1">
  <advance width="591"/>
  <unicode hex="002E"/>
  <outline>
    <contour>
      <point x="324" y="-75"/>
      <point x="341" y="-72"/>
      <point x="354" y="-54" type="curve" smooth="yes"/>
      <point x="447" y="75" type="line" smooth="yes"/>
      <point x="489" y="134"/>
      <point x="489" y="150"/>
      <point x="437" y="186" type="curve" smooth="yes"/>
      <point x="392" y="217"/>
      <point x="328" y="260"/>
      <point x="291" y="282" type="curve" smooth="yes"/>
      <point x="273" y="293"/>
      <point x="256" y="287"/>
      <point x="244" y="270" type="curve" smooth="yes"/>
      <point x="122" y="92" type="line" smooth="yes"/>
      <point x="109" y="72"/>
      <point x="113" y="57"/>
      <point x="132" y="45" type="curve" smooth="yes"/>
      <point x="306" y="-64" type="line" smooth="yes"/>
    </contour>
  </outline>
</glyph>
<glyph name="slash" format="1">
  <advance width="1019"/>
  <unicode hex="002F"/>
  <outline>
    <contour>
      <point x="213" y="-393" type="line" smooth="yes"/>
      <point x="218" y="-393"/>
      <point x="224" y="-390"/>
      <point x="227" y="-383" type="curve" smooth="yes"/>
      <point x="903" y="1364" type="line" smooth="yes"/>
      <point x="909" y="1379"/>
      <point x="898" y="1392"/>
      <point x="883" y="1392" type="curve" smooth="yes"/>
      <point x="806" y="1392" type="line" smooth="yes"/>
      <point x="800" y="1392"/>
      <point x="795" y="1388"/>
      <point x="792" y="1381" type="curve" smooth="yes"/>
      <point x="116" y="-366" type="line" smooth="yes"/>
      <point x="110" y="-381"/>
      <point x="121" y="-393"/>
      <point x="136" y="-393" type="curve" smooth="yes"/>
    </contour>
  </outline>
</glyph>
<glyph name="semicolon" format="1">
  <advance width="513"/>
  <unicode hex="003B"/>
  <outline>
    <contour>
      <point x="209" y="-198"/>
      <point x="225" y="-190"/>
      <point x="235" y="-171" type="curve" smooth="yes"/>
      <point x="294" y="-57" type="line" smooth="yes"/>
      <point x="371" y="92"/>
      <point x="483" y="291"/>
      <point x="271" y="411" type="curve" smooth="yes"/>
      <point x="252" y="422"/>
      <point x="235" y="417"/>
      <point x="224" y="397" type="curve" smooth="yes"/>
      <point x="166" y="293" type="line" smooth="yes"/>
      <point x="155" y="273"/>
      <point x="159" y="258"/>
      <point x="178" y="247" type="curve" smooth="yes"/>
      <point x="258" y="202"/>
      <point x="317" y="149"/>
      <point x="229" y="-5" type="curve" smooth="yes"/>
      <point x="155" y="-135" type="line" smooth="yes"/>
      <point x="144" y="-155"/>
      <point x="151" y="-172"/>
      <point x="171" y="-181" type="curve" smooth="yes"/>
      <point x="189" y="-189" type="line" smooth="yes"/>
    </contour>
    <contour>
      <point x="270" y="712"/>
      <point x="287" y="716"/>
      <point x="300" y="734" type="curve" smooth="yes"/>
      <point x="368" y="828" type="line" smooth="yes"/>
      <point x="400" y="873"/>
      <point x="409" y="884"/>
      <point x="359" y="917" type="curve" smooth="yes"/>
      <point x="327" y="938"/>
      <point x="282" y="965"/>
      <point x="253" y="981" type="curve" smooth="yes"/>
      <point x="235" y="991"/>
      <point x="218" y="986"/>
      <point x="206" y="969" type="curve" smooth="yes"/>
      <point x="122" y="845" type="line" smooth="yes"/>
      <point x="109" y="826"/>
      <point x="112" y="810"/>
      <point x="132" y="798" type="curve" smooth="yes"/>
      <point x="252" y="723" type="line" smooth="yes"/>
    </contour>
  </outline>
</glyph>
<glyph name="less" format="1">
  <advance width="1145"/>
  <unicode hex="003C"/>
  <outline>
    <contour>
      <point x="1030" y="103" type="line"/>
      <point x="241" y="500" type="line"/>
      <point x="1030" y="896" type="line"/>
      <point x="1030" y="1023" type="line"/>
      <point x="115" y="564" type="line"/>
      <point x="115" y="436" type="line"/>
      <point x="1030" y="-24" type="line"/>
    </contour>
  </outline>
</glyph>
<glyph name="equal" format="1">
  <advance width="1198"/>
  <unicode hex="003D"/>
  <outline>
    <contour>
      <point x="1083" y="631" type="line"/>
      <point x="1083" y="786" type="line"/>
      <point x="115" y="786" type="line"/>
      <point x="115" y="631" type="line"/>
    </contour>
    <contour>
      <point x="1083" y="213" type="line"/>
      <point x="1083" y="368" type="line"/>
      <point x="115" y="368" type="line"/>
      <point x="115" y="213" type="line"/>
    </contour>
  </outline>
</glyph>
<glyph name="greater" format="1">
  <advance width="1145"/>
  <unicode hex="003E"/>
  <outline>
    <contour>
      <point x="1030" y="436" type="line"/>
      <point x="1030" y="564" type="line"/>
      <point x="115" y="1023" type="line"/>
      <point x="115" y="896" type="line"/>
      <point x="904" y="500" type="line"/>
      <point x="115" y="103" type="line"/>
      <point x="115" y="-24" type="line"/>
    </contour>
  </outline>
</glyph>
<glyph name="at" format="1">
  <advance width="1450"/>
  <unicode hex="0040"/>
  <outline>
    <contour>
      <point x="903" y="76"/>
      <point x="995" y="92"/>
      <point x="1078" y="130" type="curve"/>
      <point x="1047" y="214" type="line"/>
      <point x="979" y="185"/>
      <point x="897" y="168"/>
      <point x="797" y="168" type="curve" smooth="yes"/>
      <point x="476" y="168"/>
      <point x="263" y="329"/>
      <point x="263" y="643" type="curve" smooth="yes"/>
      <point x="263" y="944"/>
      <point x="475" y="1174"/>
      <point x="779" y="1174" type="curve" smooth="yes"/>
      <point x="864" y="1174"/>
      <point x="941" y="1157"/>
      <point x="1010" y="1120" type="curve" smooth="yes"/>
      <point x="1150" y="1050"/>
      <point x="1221" y="922"/>
      <point x="1221" y="784" type="curve" smooth="yes"/>
      <point x="1221" y="667"/>
      <point x="1162" y="545"/>
      <point x="1068" y="480" type="curve" smooth="yes"/>
      <point x="1033" y="455"/>
      <point x="1005" y="443"/>
      <point x="982" y="443" type="curve" smooth="yes"/>
      <point x="958" y="443"/>
      <point x="940" y="462"/>
      <point x="940" y="483" type="curve" smooth="yes"/>
      <point x="940" y="490"/>
      <point x="945" y="522"/>
      <point x="958" y="580" type="curve" smooth="yes"/>
      <point x="1047" y="994" type="line"/>
      <point x="940" y="1011" type="line"/>
      <point x="915" y="899" type="line"/>
      <point x="868" y="975"/>
      <point x="800" y="1012"/>
      <point x="728" y="1012" type="curve" smooth="yes"/>
      <point x="682" y="1012"/>
      <point x="634" y="995"/>
      <point x="583" y="963" type="curve" smooth="yes"/>
      <point x="352" y="812"/>
      <point x="346" y="378"/>
      <point x="606" y="343" type="curve" smooth="yes"/>
      <point x="680" y="331"/>
      <point x="762" y="361"/>
      <point x="834" y="443" type="curve"/>
      <point x="837" y="402"/>
      <point x="875" y="339"/>
      <point x="941" y="339" type="curve" smooth="yes"/>
      <point x="1119" y="339"/>
      <point x="1312" y="543"/>
      <point x="1312" y="783" type="curve" smooth="yes"/>
      <point x="1312" y="951"/>
      <point x="1224" y="1119"/>
      <point x="1059" y="1203" type="curve" smooth="yes"/>
      <point x="979" y="1244"/>
      <point x="887" y="1265"/>
      <point x="784" y="1265" type="curve" smooth="yes"/>
      <point x="652" y="1265"/>
      <point x="542" y="1235"/>
      <point x="448" y="1175" type="curve" smooth="yes"/>
      <point x="263" y="1057"/>
      <point x="173" y="835"/>
      <point x="173" y="633" type="curve" smooth="yes"/>
      <point x="173" y="274"/>
      <point x="422" y="76"/>
      <point x="798" y="76" type="curve" smooth="yes"/>
    </contour>
    <contour>
      <point x="565" y="826"/>
      <point x="646" y="921"/>
      <point x="736" y="921" type="curve" smooth="yes"/>
      <point x="815" y="921"/>
      <point x="891" y="853"/>
      <point x="891" y="744" type="curve" smooth="yes"/>
      <point x="891" y="337"/>
      <point x="412" y="319"/>
      <point x="530" y="718" type="curve" smooth="yes"/>
    </contour>
  </outline>
</glyph>
<glyph name="bracketleft" format="1">
  <advance width="626"/>
  <unicode hex="005B"/>
  <outline>
    <contour>
      <point x="470" y="-543" type="line" smooth="yes"/>
      <point x="480" y="-543"/>
      <point x="488" y="-535"/>
      <point x="488" y="-526" type="curve" smooth="yes"/>
      <point x="488" y="-469" type="line" smooth="yes"/>
      <point x="488" y="-460"/>
      <point x="480" y="-452"/>
      <point x="470" y="-452" type="curve" smooth="yes"/>
      <point x="263" y="-452" type="line"/>
      <point x="263" y="1451" type="line"/>
      <point x="470" y="1451" type="line" smooth="yes"/>
      <point x="480" y="1451"/>
      <point x="488" y="1459"/>
      <point x="488" y="1469" type="curve" smooth="yes"/>
      <point x="488" y="1525" type="line" smooth="yes"/>
      <point x="488" y="1534"/>
      <point x="480" y="1542"/>
      <point x="470" y="1542" type="curve" smooth="yes"/>
      <point x="155" y="1542" type="line" smooth="yes"/>
      <point x="146" y="1542"/>
      <point x="138" y="1534"/>
      <point x="138" y="1525" type="curve" smooth="yes"/>
      <point x="138" y="-526" type="line" smooth="yes"/>
      <point x="138" y="-535"/>
      <point x="146" y="-543"/>
      <point x="155" y="-543" type="curve" smooth="yes"/>
    </contour>
  </outline>
</glyph>
<glyph name="backslash" format="1">
  <advance width="1019"/>
  <unicode hex="005C"/>
  <outline>
    <contour>
      <point x="883" y="-393" type="line" smooth="yes"/>
      <point x="898" y="-393"/>
      <point x="909" y="-381"/>
      <point x="903" y="-366" type="curve" smooth="yes"/>
      <point x="227" y="1381" type="line" smooth="yes"/>
      <point x="224" y="1388"/>
      <point x="218" y="1392"/>
      <point x="213" y="1392" type="curve" smooth="yes"/>
      <point x="136" y="1392" type="line" smooth="yes"/>
      <point x="121" y="1392"/>
      <point x="110" y="1379"/>
      <point x="116" y="1364" type="curve" smooth="yes"/>
      <point x="792" y="-383" type="line" smooth="yes"/>
      <point x="795" y="-390"/>
      <point x="800" y="-393"/>
      <point x="806" y="-393" type="curve" smooth="yes"/>
    </contour>
  </outline>
</glyph>
<glyph name="bracketright" format="1">
  <advance width="626"/>
  <unicode hex="005D"/>
  <outline>
    <contour>
      <point x="470" y="-543" type="line" smooth="yes"/>
      <point x="480" y="-543"/>
      <point x="488" y="-535"/>
      <point x="488" y="-526" type="curve" smooth="yes"/>
      <point x="488" y="1525" type="line" smooth="yes"/>
      <point x="488" y="1534"/>
      <point x="480" y="1542"/>
      <point x="470" y="1542" type="curve" smooth="yes"/>
      <point x="155" y="1542" type="line" smooth="yes"/>
      <point x="146" y="1542"/>
      <point x="138" y="1534"/>
      <point x="138" y="1525" type="curve" smooth="yes"/>
      <point x="138" y="1469" type="line" smooth="yes"/>
      <point x="138" y="1459"/>
      <point x="146" y="1451"/>
      <point x="155" y="1451" type="curve" smooth="yes"/>
      <point x="362" y="1451" type="line"/>
      <point x="362" y="-452" type="line"/>
      <point x="155" y="-452" type="line" smooth="yes"/>
      <point x="146" y="-452"/>
      <point x="138" y="-460"/>
      <point x="138" y="-469" type="curve" smooth="yes"/>
      <point x="138" y="-526" type="line" smooth="yes"/>
      <point x="138" y="-535"/>
      <point x="146" y="-543"/>
      <point x="155" y="-543" type="curve" smooth="yes"/>
    </contour>
  </outline>
</glyph>
<glyph name="asciicircum" format="1">
  <advance width="1341"/>
  <unicode hex="005E"/>
  <outline>
    <contour>
      <point x="262" y="631" type="line"/>
      <point x="670" y="1592" type="line"/>
      <point x="1080" y="631" type="line"/>
      <point x="1226" y="631" type="line"/>
      <point x="757" y="1747" type="line"/>
      <point x="584" y="1747" type="line"/>
      <point x="115" y="631" type="line"/>
    </contour>
  </outline>
</glyph>
<glyph name="underscore" format="1">
  <advance width="1030"/>
  <unicode hex="005F"/>
  <outline>
    <contour>
      <point x="1030" y="-286" type="line"/>
      <point x="1030" y="-173" type="line"/>
      <point x="0" y="-173" type="line"/>
      <point x="0" y="-286" type="line"/>
    </contour>
  </outline>
</glyph>
<glyph name="braceleft" format="1">
  <advance width="772"/>
  <unicode hex="007B"/>
  <outline>
    <contour>
      <point x="616" y="-545" type="line" smooth="yes"/>
      <point x="626" y="-545"/>
      <point x="634" y="-537"/>
      <point x="634" y="-528" type="curve" smooth="yes"/>
      <point x="634" y="-471" type="line" smooth="yes"/>
      <point x="634" y="-462"/>
      <point x="626" y="-454"/>
      <point x="616" y="-454" type="curve" smooth="yes"/>
      <point x="445" y="-454" type="line" smooth="yes"/>
      <point x="425" y="-454"/>
      <point x="409" y="-438"/>
      <point x="409" y="-419" type="curve" smooth="yes"/>
      <point x="409" y="224" type="line" smooth="yes"/>
      <point x="409" y="357"/>
      <point x="332" y="434"/>
      <point x="273" y="499" type="curve"/>
      <point x="332" y="565"/>
      <point x="409" y="642"/>
      <point x="409" y="774" type="curve" smooth="yes"/>
      <point x="409" y="1417" type="line" smooth="yes"/>
      <point x="409" y="1436"/>
      <point x="425" y="1452"/>
      <point x="445" y="1452" type="curve" smooth="yes"/>
      <point x="616" y="1452" type="line" smooth="yes"/>
      <point x="626" y="1452"/>
      <point x="634" y="1461"/>
      <point x="634" y="1470" type="curve" smooth="yes"/>
      <point x="634" y="1526" type="line" smooth="yes"/>
      <point x="634" y="1535"/>
      <point x="626" y="1543"/>
      <point x="616" y="1543" type="curve" smooth="yes"/>
      <point x="422" y="1543" type="line" smooth="yes"/>
      <point x="332" y="1543"/>
      <point x="284" y="1495"/>
      <point x="284" y="1405" type="curve" smooth="yes"/>
      <point x="284" y="806" type="line" smooth="yes"/>
      <point x="284" y="628"/>
      <point x="248" y="611"/>
      <point x="141" y="508" type="curve" smooth="yes"/>
      <point x="136" y="504"/>
      <point x="136" y="495"/>
      <point x="141" y="490" type="curve" smooth="yes"/>
      <point x="248" y="375"/>
      <point x="284" y="360"/>
      <point x="284" y="170" type="curve" smooth="yes"/>
      <point x="284" y="-407" type="line" smooth="yes"/>
      <point x="284" y="-497"/>
      <point x="332" y="-545"/>
      <point x="422" y="-545" type="curve" smooth="yes"/>
    </contour>
  </outline>
</glyph>
<glyph name="bar" format="1">
  <advance width="401"/>
  <unicode hex="007C"/>
  <outline>
    <contour>
      <point x="263" y="-543" type="line"/>
      <point x="263" y="1542" type="line"/>
      <point x="138" y="1542" type="line"/>
      <point x="138" y="-543" type="line"/>
    </contour>
  </outline>
</glyph>
<glyph name="braceright" format="1">
  <advance width="772"/>
  <unicode hex="007D"/>
  <outline>
    <contour>
      <point x="350" y="-545" type="line" smooth="yes"/>
      <point x="439" y="-545"/>
      <point x="488" y="-497"/>
      <point x="488" y="-407" type="curve" smooth="yes"/>
      <point x="488" y="170" type="line" smooth="yes"/>
      <point x="488" y="360"/>
      <point x="523" y="375"/>
      <point x="630" y="490" type="curve" smooth="yes"/>
      <point x="635" y="496"/>
      <point x="635" y="503"/>
      <point x="630" y="508" type="curve" smooth="yes"/>
      <point x="523" y="611"/>
      <point x="488" y="628"/>
      <point x="488" y="806" type="curve" smooth="yes"/>
      <point x="488" y="1405" type="line" smooth="yes"/>
      <point x="488" y="1495"/>
      <point x="439" y="1543"/>
      <point x="350" y="1543" type="curve" smooth="yes"/>
      <point x="155" y="1543" type="line" smooth="yes"/>
      <point x="146" y="1543"/>
      <point x="138" y="1535"/>
      <point x="138" y="1526" type="curve" smooth="yes"/>
      <point x="138" y="1470" type="line" smooth="yes"/>
      <point x="138" y="1461"/>
      <point x="146" y="1452"/>
      <point x="155" y="1452" type="curve" smooth="yes"/>
      <point x="327" y="1452" type="line" smooth="yes"/>
      <point x="346" y="1452"/>
      <point x="362" y="1436"/>
      <point x="362" y="1417" type="curve" smooth="yes"/>
      <point x="362" y="774" type="line" smooth="yes"/>
      <point x="362" y="642"/>
      <point x="439" y="565"/>
      <point x="499" y="499" type="curve"/>
      <point x="439" y="434"/>
      <point x="362" y="357"/>
      <point x="362" y="224" type="curve" smooth="yes"/>
      <point x="362" y="-419" type="line" smooth="yes"/>
      <point x="362" y="-438"/>
      <point x="346" y="-454"/>
      <point x="327" y="-454" type="curve" smooth="yes"/>
      <point x="155" y="-454" type="line" smooth="yes"/>
      <point x="146" y="-454"/>
      <point x="138" y="-462"/>
      <point x="138" y="-471" type="curve" smooth="yes"/>
      <point x="138" y="-528" type="line" smooth="yes"/>
      <point x="138" y="-537"/>
      <point x="146" y="-545"/>
      <point x="155" y="-545" type="curve" smooth="yes"/>
    </contour>
  </outline>
</glyph>
<glyph name="asciitilde" format="1">
  <advance width="1288"/>
  <unicode hex="007E"/>
  <outline>
    <contour>
      <point x="322" y="509"/>
      <point x="487" y="548"/>
      <point x="654" y="448" type="curve" smooth="yes"/>
      <point x="839" y="338"/>
      <point x="1017" y="338"/>
      <point x="1173" y="452" type="curve"/>
      <point x="1106" y="553" type="line"/>
      <point x="966" y="474"/>
      <point x="832" y="473"/>
      <point x="637" y="580" type="curve" smooth="yes"/>
      <point x="491" y="663"/>
      <point x="268" y="640"/>
      <point x="115" y="515" type="curve"/>
      <point x="175" y="413" type="line"/>
    </contour>
  </outline>
</glyph>
<glyph name="guillemetleft" format="1">
  <advance width="955"/>
  <unicode hex="00AB"/>
  <outline>
    <contour>
      <point x="415" y="-117"/>
      <point x="427" y="-113"/>
      <point x="432" y="-103" type="curve" smooth="yes"/>
      <point x="496" y="25" type="line"/>
      <point x="503" y="40"/>
      <point x="514" y="40"/>
      <point x="525" y="27" type="curve" smooth="yes"/>
      <point x="569" y="-24"/>
      <point x="637" y="-70"/>
      <point x="729" y="-112" type="curve" smooth="yes"/>
      <point x="742" y="-118"/>
      <point x="752" y="-115"/>
      <point x="758" y="-103" type="curve" smooth="yes"/>
      <point x="838" y="55" type="line" smooth="yes"/>
      <point x="844" y="68"/>
      <point x="839" y="78"/>
      <point x="827" y="83" type="curve" smooth="yes"/>
      <point x="462" y="225"/>
      <point x="579" y="404"/>
      <point x="784" y="793" type="curve" smooth="yes"/>
      <point x="790" y="805"/>
      <point x="788" y="815"/>
      <point x="775" y="821" type="curve" smooth="yes"/>
      <point x="715" y="847" type="line" smooth="yes"/>
      <point x="703" y="852"/>
      <point x="693" y="849"/>
      <point x="687" y="838" type="curve" smooth="yes"/>
      <point x="548" y="597"/>
      <point x="382" y="338"/>
      <point x="462" y="129" type="curve" smooth="yes"/>
      <point x="469" y="109"/>
      <point x="459" y="98"/>
      <point x="440" y="108" type="curve" smooth="yes"/>
      <point x="150" y="246"/>
      <point x="265" y="426"/>
      <point x="457" y="793" type="curve" smooth="yes"/>
      <point x="463" y="805"/>
      <point x="461" y="816"/>
      <point x="448" y="821" type="curve" smooth="yes"/>
      <point x="387" y="847" type="line" smooth="yes"/>
      <point x="376" y="852"/>
      <point x="365" y="849"/>
      <point x="359" y="838" type="curve" smooth="yes"/>
      <point x="160" y="492"/>
      <point x="-92" y="109"/>
      <point x="402" y="-112" type="curve" smooth="yes"/>
    </contour>
  </outline>
</glyph>
<glyph name="degree" format="1">
  <advance width="690"/>
  <unicode hex="00B0"/>
  <outline>
    <contour>
      <point x="505" y="1070"/>
      <point x="633" y="1198"/>
      <point x="633" y="1358" type="curve" smooth="yes"/>
      <point x="633" y="1517"/>
      <point x="505" y="1646"/>
      <point x="345" y="1646" type="curve" smooth="yes"/>
      <point x="185" y="1646"/>
      <point x="57" y="1517"/>
      <point x="57" y="1358" type="curve" smooth="yes"/>
      <point x="57" y="1198"/>
      <point x="185" y="1070"/>
      <point x="345" y="1070" type="curve" smooth="yes"/>
    </contour>
    <contour>
      <point x="233" y="1156"/>
      <point x="143" y="1247"/>
      <point x="143" y="1358" type="curve" smooth="yes"/>
      <point x="143" y="1469"/>
      <point x="233" y="1559"/>
      <point x="345" y="1559" type="curve" smooth="yes"/>
      <point x="458" y="1559"/>
      <point x="547" y="1469"/>
      <point x="547" y="1358" type="curve" smooth="yes"/>
      <point x="547" y="1247"/>
      <point x="458" y="1156"/>
      <point x="345" y="1156" type="curve" smooth="yes"/>
    </contour>
  </outline>
</glyph>
<glyph name="guillemetright" format="1">
  <advance width="956"/>
  <unicode hex="00BB"/>
  <outline>
    <contour>
      <point x="330" y="-65"/>
      <point x="403" y="-12"/>
      <point x="447" y="47" type="curve"/>
      <point x="524" y="-103" type="line" smooth="yes"/>
      <point x="530" y="-113"/>
      <point x="541" y="-117"/>
      <point x="553" y="-112" type="curve" smooth="yes"/>
      <point x="1049" y="109"/>
      <point x="795" y="492"/>
      <point x="596" y="838" type="curve" smooth="yes"/>
      <point x="590" y="848"/>
      <point x="579" y="852"/>
      <point x="568" y="847" type="curve" smooth="yes"/>
      <point x="507" y="821" type="line" smooth="yes"/>
      <point x="495" y="816"/>
      <point x="492" y="805"/>
      <point x="498" y="793" type="curve" smooth="yes"/>
      <point x="699" y="412"/>
      <point x="817" y="230"/>
      <point x="475" y="90" type="curve"/>
      <point x="594" y="306"/>
      <point x="417" y="581"/>
      <point x="270" y="838" type="curve" smooth="yes"/>
      <point x="264" y="848"/>
      <point x="253" y="852"/>
      <point x="242" y="847" type="curve" smooth="yes"/>
      <point x="180" y="821" type="line" smooth="yes"/>
      <point x="168" y="816"/>
      <point x="166" y="805"/>
      <point x="172" y="793" type="curve" smooth="yes"/>
      <point x="376" y="404"/>
      <point x="495" y="225"/>
      <point x="128" y="83" type="curve" smooth="yes"/>
      <point x="116" y="78"/>
      <point x="112" y="68"/>
      <point x="117" y="55" type="curve" smooth="yes"/>
      <point x="197" y="-103" type="line" smooth="yes"/>
      <point x="202" y="-112"/>
      <point x="214" y="-117"/>
      <point x="226" y="-112" type="curve" smooth="yes"/>
    </contour>
  </outline>
</glyph>
<glyph name="multiply" format="1">
  <advance width="1234"/>
  <unicode hex="00D7"/>
  <outline>
    <contour>
      <point x="619" y="416" type="line"/>
      <point x="1015" y="-30" type="line"/>
      <point x="1119" y="49" type="line"/>
      <point x="704" y="513" type="line"/>
      <point x="1089" y="945" type="line"/>
      <point x="992" y="1028" type="line"/>
      <point x="618" y="610" type="line"/>
      <point x="244" y="1028" type="line"/>
      <point x="147" y="945" type="line"/>
      <point x="532" y="513" type="line"/>
      <point x="115" y="47" type="line"/>
      <point x="221" y="-30" type="line"/>
    </contour>
  </outline>
</glyph>
<glyph name="divide" format="1">
  <advance width="1198"/>
  <unicode hex="00F7"/>
  <outline>
    <contour>
      <point x="1083" y="390" type="line"/>
      <point x="1083" y="545" type="line"/>
      <point x="115" y="545" type="line"/>
      <point x="115" y="390" type="line"/>
    </contour>
    <contour>
      <point x="664" y="-70"/>
      <point x="709" y="-25"/>
      <point x="709" y="28" type="curve" smooth="yes"/>
      <point x="709" y="83"/>
      <point x="664" y="128"/>
      <point x="610" y="128" type="curve" smooth="yes"/>
      <point x="557" y="128"/>
      <point x="512" y="83"/>
      <point x="512" y="28" type="curve" smooth="yes"/>
      <point x="512" y="-25"/>
      <point x="557" y="-70"/>
      <point x="610" y="-70" type="curve" smooth="yes"/>
    </contour>
    <contour>
      <point x="664" y="870"/>
      <point x="709" y="915"/>
      <point x="709" y="970" type="curve" smooth="yes"/>
      <point x="709" y="1024"/>
      <point x="664" y="1068"/>
      <point x="610" y="1068" type="curve" smooth="yes"/>
      <point x="557" y="1068"/>
      <point x="512" y="1024"/>
      <point x="512" y="970" type="curve" smooth="yes"/>
      <point x="512" y="915"/>
      <point x="557" y="870"/>
      <point x="610" y="870" type="curve" smooth="yes"/>
    </contour>
  </outline>
</glyph>
<glyph name="caron" format="1">
  <advance width="628"/>
  <unicode hex="02C7"/>
  <outline>
    <contour>
      <point x="385" y="1063" type="line"/>
      <point x="547" y="1493" type="line"/>
      <point x="485" y="1546" type="line"/>
      <point x="352" y="1194" type="line"/>
      <point x="305" y="1304"/>
      <point x="273" y="1375"/>
      <point x="246" y="1421" type="curve" smooth="yes"/>
      <point x="205" y="1495"/>
      <point x="155" y="1524"/>
      <point x="81" y="1458" type="curve"/>
      <point x="181" y="1334"/>
      <point x="238" y="1179"/>
      <point x="293" y="1035" type="curve"/>
    </contour>
  </outline>
</glyph>
<glyph name="lowringmod" format="1">
  <advance width="687"/>
  <unicode hex="02F3"/>
  <outline>
    <contour>
      <point x="489" y="-481"/>
      <point x="606" y="-363"/>
      <point x="606" y="-217" type="curve" smooth="yes"/>
      <point x="606" y="-74"/>
      <point x="489" y="45"/>
      <point x="343" y="45" type="curve" smooth="yes"/>
      <point x="198" y="45"/>
      <point x="81" y="-74"/>
      <point x="81" y="-217" type="curve" smooth="yes"/>
      <point x="81" y="-363"/>
      <point x="198" y="-481"/>
      <point x="343" y="-481" type="curve" smooth="yes"/>
    </contour>
    <contour>
      <point x="241" y="-401"/>
      <point x="160" y="-319"/>
      <point x="160" y="-216" type="curve" smooth="yes"/>
      <point x="160" y="-116"/>
      <point x="241" y="-33"/>
      <point x="343" y="-33" type="curve" smooth="yes"/>
      <point x="445" y="-33"/>
      <point x="527" y="-116"/>
      <point x="527" y="-216" type="curve" smooth="yes"/>
      <point x="527" y="-319"/>
      <point x="445" y="-401"/>
      <point x="343" y="-401" type="curve" smooth="yes"/>
    </contour>
  </outline>
</glyph>
<glyph name="afghani-ar" format="1">
  <advance width="1256"/>
  <unicode hex="060B"/>
  <outline>
    <contour>
      <point x="483" y="-5"/>
      <point x="621" y="-3"/>
      <point x="789" y="35" type="curve" smooth="yes"/>
      <point x="1105" y="107"/>
      <point x="1128" y="291"/>
      <point x="1114" y="520" type="curve" smooth="yes"/>
      <point x="1097" y="814"/>
      <point x="951" y="1129"/>
      <point x="761" y="1129" type="curve" smooth="yes"/>
      <point x="530" y="1129"/>
      <point x="417" y="845"/>
      <point x="417" y="608" type="curve" smooth="yes"/>
      <point x="417" y="302"/>
      <point x="793" y="336"/>
      <point x="974" y="423" type="curve" smooth="yes"/>
      <point x="990" y="431"/>
      <point x="1006" y="422"/>
      <point x="1006" y="404" type="curve" smooth="yes"/>
      <point x="1005" y="284" type="line" smooth="yes"/>
      <point x="1005" y="278"/>
      <point x="1002" y="273"/>
      <point x="996" y="269" type="curve"/>
      <point x="843" y="186"/>
      <point x="595" y="166"/>
      <point x="261" y="179" type="curve"/>
      <point x="143" y="179"/>
      <point x="143" y="0"/>
      <point x="261" y="0" type="curve" smooth="yes"/>
    </contour>
    <contour>
      <point x="716" y="-619" type="line" smooth="yes"/>
      <point x="719" y="-617"/>
      <point x="720" y="-614"/>
      <point x="720" y="-612" type="curve" smooth="yes"/>
      <point x="718" y="-200" type="line" smooth="yes"/>
      <point x="718" y="-195"/>
      <point x="714" y="-193"/>
      <point x="711" y="-195" type="curve" smooth="yes"/>
      <point x="611" y="-253" type="line" smooth="yes"/>
      <point x="607" y="-255"/>
      <point x="606" y="-258"/>
      <point x="606" y="-260" type="curve" smooth="yes"/>
      <point x="633" y="-673" type="line" smooth="yes"/>
      <point x="633" y="-677"/>
      <point x="634" y="-679"/>
      <point x="639" y="-676" type="curve" smooth="yes"/>
    </contour>
    <contour>
      <point x="536" y="573"/>
      <point x="519" y="588"/>
      <point x="519" y="593" type="curve" smooth="yes"/>
      <point x="521" y="787"/>
      <point x="593" y="938"/>
      <point x="721" y="938" type="curve" smooth="yes"/>
      <point x="835" y="938"/>
      <point x="950" y="757"/>
      <point x="984" y="572" type="curve"/>
      <point x="987" y="564"/>
      <point x="738" y="501"/>
      <point x="569" y="561" type="curve" smooth="yes"/>
    </contour>
    <contour>
      <point x="773" y="1417"/>
      <point x="776" y="1417"/>
      <point x="779" y="1419" type="curve"/>
      <point x="894" y="1561" type="line"/>
      <point x="900" y="1570"/>
      <point x="903" y="1588"/>
      <point x="894" y="1596" type="curve" smooth="yes"/>
      <point x="759" y="1707" type="line"/>
      <point x="756" y="1709"/>
      <point x="752" y="1711"/>
      <point x="749" y="1707" type="curve" smooth="yes"/>
      <point x="622" y="1549" type="line"/>
      <point x="618" y="1544"/>
      <point x="618" y="1541"/>
      <point x="622" y="1538" type="curve" smooth="yes"/>
      <point x="770" y="1419" type="line"/>
    </contour>
  </outline>
</glyph>
<glyph name="comma-ar" format="1">
  <advance width="485"/>
  <unicode hex="060C"/>
  <outline>
    <contour>
      <point x="267" y="-33"/>
      <point x="274" y="-29"/>
      <point x="279" y="-21" type="curve" smooth="yes"/>
      <point x="367" y="122" type="line" smooth="yes"/>
      <point x="373" y="132"/>
      <point x="370" y="141"/>
      <point x="359" y="145" type="curve" smooth="yes"/>
      <point x="252" y="181"/>
      <point x="203" y="230"/>
      <point x="296" y="407" type="curve" smooth="yes"/>
      <point x="367" y="542" type="line" smooth="yes"/>
      <point x="372" y="552"/>
      <point x="368" y="561"/>
      <point x="358" y="565" type="curve" smooth="yes"/>
      <point x="308" y="585" type="line" smooth="yes"/>
      <point x="298" y="589"/>
      <point x="290" y="587"/>
      <point x="285" y="577" type="curve" smooth="yes"/>
      <point x="214" y="448" type="line" smooth="yes"/>
      <point x="132" y="299"/>
      <point x="25" y="59"/>
      <point x="256" y="-29" type="curve" smooth="yes"/>
    </contour>
  </outline>
</glyph>
<glyph name="tahabove-ar" format="1">
  <advance width="0"/>
  <unicode hex="0615"/>
  <outline>
    <contour>
      <point x="232" y="1743" type="move" name="_top"/>
    </contour>
    <contour>
      <point x="232" y="2316" type="move" name="top"/>
    </contour>
    <contour>
      <point x="171.996" y="2029.278" type="curve" smooth="yes"/>
      <point x="165.993" y="2193.366" type="line" smooth="yes"/>
      <point x="165" y="2207"/>
      <point x="150" y="2215"/>
      <point x="139.168" y="2207.123" type="curve" smooth="yes"/>
      <point x="103" y="2181" type="line" smooth="yes"/>
      <point x="96" y="2176"/>
      <point x="93" y="2171"/>
      <point x="93" y="2165" type="curve" smooth="yes"/>
      <point x="102.021" y="2028.354" type="line" smooth="yes"/>
      <point x="109" y="1917"/>
      <point x="108" y="1882"/>
      <point x="64" y="1834" type="curve"/>
      <point x="7.676" y="1837.977" type="line" smooth="yes"/>
      <point x="-5" y="1839"/>
      <point x="-12" y="1828"/>
      <point x="-9.806" y="1818.039" type="curve" smooth="yes"/>
      <point x="5" y="1762"/>
      <point x="8" y="1755"/>
      <point x="62.942" y="1749.056" type="curve" smooth="yes"/>
      <point x="172.716" y="1740.994"/>
      <point x="359.077" y="1744.066"/>
      <point x="450.907" y="1831.768" type="curve" smooth="yes"/>
      <point x="521.763" y="1900.509"/>
      <point x="444.635" y="2039"/>
      <point x="338" y="2039" type="curve" smooth="yes"/>
      <point x="289" y="2040"/>
      <point x="234" y="2010"/>
      <point x="170" y="1948" type="curve"/>
      <point x="173" y="1971"/>
      <point x="173" y="1997"/>
    </contour>
    <contour>
      <point x="129" y="1830" type="curve"/>
      <point x="229" y="1933"/>
      <point x="263" y="1956"/>
      <point x="311" y="1956" type="curve" smooth="yes"/>
      <point x="374" y="1956"/>
      <point x="409" y="1905"/>
      <point x="419" y="1880" type="curve"/>
      <point x="344" y="1843"/>
      <point x="244" y="1827"/>
    </contour>
  </outline>
</glyph>
<glyph name="alefLamYehabove-ar" format="1">
  <advance width="0"/>
  <unicode hex="0616"/>
  <outline>
    <contour>
      <point x="490" y="1064"/>
      <point x="626" y="1071"/>
      <point x="818" y="1082" type="curve" smooth="yes"/>
      <point x="836" y="1083"/>
      <point x="846" y="1088"/>
      <point x="849" y="1098" type="curve"/>
      <point x="858" y="1130" type="line" smooth="yes"/>
      <point x="861" y="1142"/>
      <point x="854" y="1151"/>
      <point x="842" y="1150" type="curve" smooth="yes"/>
      <point x="705" y="1139"/>
      <point x="551" y="1129"/>
      <point x="399" y="1126" type="curve" smooth="yes"/>
      <point x="274" y="1124"/>
      <point x="141" y="1118"/>
      <point x="37" y="1147" type="curve"/>
      <point x="69" y="1274"/>
      <point x="223" y="1308"/>
      <point x="344" y="1337" type="curve" smooth="yes"/>
      <point x="352" y="1339"/>
      <point x="358" y="1342"/>
      <point x="362" y="1349" type="curve" smooth="yes"/>
      <point x="384" y="1382"/>
      <point x="412" y="1441"/>
      <point x="406" y="1532" type="curve" smooth="yes"/>
      <point x="386" y="1924" type="line"/>
      <point x="450" y="1847"/>
      <point x="492" y="1807"/>
      <point x="482" y="1674" type="curve" smooth="yes"/>
      <point x="446" y="1228" type="line" smooth="yes"/>
      <point x="445" y="1218"/>
      <point x="451" y="1208"/>
      <point x="461" y="1210" type="curve" smooth="yes"/>
      <point x="480" y="1214" type="line" smooth="yes"/>
      <point x="490" y="1217"/>
      <point x="493" y="1220"/>
      <point x="494" y="1231" type="curve" smooth="yes"/>
      <point x="534" y="1672" type="line" smooth="yes"/>
      <point x="549" y="1835"/>
      <point x="508" y="1884"/>
      <point x="439" y="1976" type="curve" smooth="yes"/>
      <point x="432" y="1985"/>
      <point x="423" y="1985"/>
      <point x="415" y="1979" type="curve" smooth="yes"/>
      <point x="337" y="1920" type="line" smooth="yes"/>
      <point x="330" y="1915"/>
      <point x="327" y="1909"/>
      <point x="328" y="1899" type="curve" smooth="yes"/>
      <point x="361" y="1405" type="line"/>
      <point x="247" y="1377"/>
      <point x="131" y="1351"/>
      <point x="59" y="1267" type="curve" smooth="yes"/>
      <point x="36" y="1241"/>
      <point x="2" y="1188"/>
      <point x="0" y="1143" type="curve" smooth="yes"/>
      <point x="-3" y="1084"/>
      <point x="38" y="1067"/>
      <point x="97" y="1060" type="curve" smooth="yes"/>
      <point x="179" y="1050"/>
      <point x="298" y="1056"/>
      <point x="390" y="1059" type="curve" smooth="yes"/>
    </contour>
    <contour>
      <point x="436" y="2164" type="move" name="top"/>
    </contour>
    <contour>
      <point x="436" y="1053" type="move" name="_top"/>
    </contour>
  </outline>
</glyph>
<glyph name="question-ar" format="1">
  <advance width="803"/>
  <unicode hex="061F"/>
  <outline>
    <contour>
      <point x="551" y="432" type="line" smooth="yes"/>
      <point x="562" y="436"/>
      <point x="567" y="443"/>
      <point x="567" y="454" type="curve" smooth="yes"/>
      <point x="569" y="520" type="line" smooth="yes"/>
      <point x="577" y="783"/>
      <point x="565" y="745"/>
      <point x="210" y="1052" type="curve" smooth="yes"/>
      <point x="202" y="1059"/>
      <point x="202" y="1069"/>
      <point x="206" y="1079" type="curve" smooth="yes"/>
      <point x="289" y="1273"/>
      <point x="522" y="1279"/>
      <point x="666" y="1190" type="curve" smooth="yes"/>
      <point x="679" y="1182"/>
      <point x="688" y="1193"/>
      <point x="688" y="1206" type="curve" smooth="yes"/>
      <point x="688" y="1312" type="line" smooth="yes"/>
      <point x="688" y="1323"/>
      <point x="683" y="1329"/>
      <point x="675" y="1335" type="curve" smooth="yes"/>
      <point x="452" y="1505"/>
      <point x="125" y="1370"/>
      <point x="115" y="1047" type="curve" smooth="yes"/>
      <point x="110" y="877"/>
      <point x="225" y="837"/>
      <point x="348" y="720" type="curve" smooth="yes"/>
      <point x="424" y="649"/>
      <point x="459" y="618"/>
      <point x="457" y="519" type="curve" smooth="yes"/>
      <point x="455" y="422" type="line" smooth="yes"/>
      <point x="455" y="407"/>
      <point x="464" y="403"/>
      <point x="476" y="407" type="curve" smooth="yes"/>
    </contour>
    <component base="period" xOffset="262" yOffset="-21" xScale="0.876" yScale="0.876"/>
  </outline>
</glyph>
<glyph name="hamza-ar" format="1">
  <advance width="1007"/>
  <unicode hex="0621"/>
  <outline>
    <contour>
      <point x="436" y="81"/>
      <point x="631" y="195"/>
      <point x="857" y="315" type="curve" smooth="yes"/>
      <point x="866" y="320"/>
      <point x="871" y="327"/>
      <point x="869" y="336" type="curve" smooth="yes"/>
      <point x="861" y="466" type="line" smooth="yes"/>
      <point x="860" y="478"/>
      <point x="852" y="484"/>
      <point x="841" y="477" type="curve" smooth="yes"/>
      <point x="494" y="271" type="line" smooth="yes"/>
      <point x="486" y="267"/>
      <point x="477" y="267"/>
      <point x="470" y="274" type="curve" smooth="yes"/>
      <point x="271" y="457" type="line" smooth="yes"/>
      <point x="263" y="465"/>
      <point x="262" y="473"/>
      <point x="269" y="481" type="curve" smooth="yes"/>
      <point x="370" y="599"/>
      <point x="507" y="619"/>
      <point x="652" y="614" type="curve" smooth="yes"/>
      <point x="664" y="613"/>
      <point x="670" y="620"/>
      <point x="669" y="630" type="curve" smooth="yes"/>
      <point x="658" y="719" type="line" smooth="yes"/>
      <point x="657" y="728"/>
      <point x="653" y="735"/>
      <point x="643" y="738" type="curve" smooth="yes"/>
      <point x="421" y="802"/>
      <point x="173" y="667"/>
      <point x="173" y="447" type="curve" smooth="yes"/>
      <point x="173" y="351"/>
      <point x="275" y="248"/>
      <point x="346" y="195" type="curve" smooth="yes"/>
      <point x="357" y="187"/>
      <point x="355" y="178"/>
      <point x="345" y="171" type="curve" smooth="yes"/>
      <point x="224" y="98" type="line" smooth="yes"/>
      <point x="216" y="93"/>
      <point x="213" y="87"/>
      <point x="213" y="77" type="curve" smooth="yes"/>
      <point x="212" y="-26" type="line" smooth="yes"/>
      <point x="212" y="-40"/>
      <point x="221" y="-46"/>
      <point x="232" y="-39" type="curve" smooth="yes"/>
    </contour>
    <contour>
      <point x="521" y="925" type="move" name="top"/>
    </contour>
    <contour>
      <point x="521" y="-199" type="move" name="bottom"/>
    </contour>
  </outline>
</glyph>
<glyph name="alef-ar" format="1">
  <advance width="492"/>
  <unicode hex="0627"/>
  <outline>
    <contour>
      <point x="344" y="-3" type="line" smooth="yes"/>
      <point x="350" y="-1"/>
      <point x="354" y="3"/>
      <point x="354" y="12" type="curve" smooth="yes"/>
      <point x="346" y="1519" type="line" smooth="yes"/>
      <point x="346" y="1538"/>
      <point x="330" y="1546"/>
      <point x="315" y="1538" type="curve" smooth="yes"/>
      <point x="181" y="1465" type="line" smooth="yes"/>
      <point x="176" y="1463"/>
      <point x="173" y="1458"/>
      <point x="173" y="1451" type="curve" smooth="yes"/>
      <point x="232" y="-15" type="line" smooth="yes"/>
      <point x="232" y="-29"/>
      <point x="246" y="-38"/>
      <point x="259" y="-33" type="curve" smooth="yes"/>
    </contour>
    <contour>
      <point x="259" y="1707" type="move" name="top"/>
    </contour>
    <contour>
      <point x="293" y="-207" type="move" name="bottom"/>
    </contour>
  </outline>
</glyph>
<glyph name="tehMarbuta-ar" format="1">
  <advance width="1037"/>
  <unicode hex="0629"/>
  <outline>
    <component base="heh-ar"/>
    <component base="twodotshorizontalabove-ar" xOffset="148" yOffset="192"/>
    <contour>
      <point x="468" y="-198" type="move" name="bottom"/>
    </contour>
  </outline>
</glyph>
<glyph name="theh-ar" format="1">
  <advance width="1824"/>
  <unicode hex="062B"/>
  <outline>
    <contour>
      <point x="889" y="-227" type="move" name="bottom"/>
    </contour>
    <component base="dotlessbeh-ar"/>
    <component base="threedotsupabove-ar" xOffset="575" yOffset="220"/>
  </outline>
</glyph>
<glyph name="hah-ar" format="1">
  <advance width="1438"/>
  <unicode hex="062D"/>
  <outline>
    <contour>
      <point x="1235" y="-672"/>
      <point x="1281" y="-636"/>
      <point x="1336" y="-497" type="curve" smooth="yes"/>
      <point x="1342" y="-482"/>
      <point x="1327" y="-470"/>
      <point x="1309" y="-474" type="curve" smooth="yes"/>
      <point x="977" y="-542"/>
      <point x="478" y="-597"/>
      <point x="320" y="-312" type="curve" smooth="yes"/>
      <point x="288" y="-251"/>
      <point x="277" y="-168"/>
      <point x="302" y="-66" type="curve" smooth="yes"/>
      <point x="400" y="328"/>
      <point x="812" y="497"/>
      <point x="1228" y="503" type="curve" smooth="yes"/>
      <point x="1235" y="503"/>
      <point x="1241" y="507"/>
      <point x="1243" y="513" type="curve" smooth="yes"/>
      <point x="1298" y="681" type="line" smooth="yes"/>
      <point x="1303" y="695"/>
      <point x="1293" y="708"/>
      <point x="1277" y="707" type="curve" smooth="yes"/>
      <point x="946" y="690"/>
      <point x="784" y="780"/>
      <point x="614" y="833" type="curve" smooth="yes"/>
      <point x="420" y="892"/>
      <point x="344" y="873"/>
      <point x="193" y="710" type="curve" smooth="yes"/>
      <point x="189" y="705"/>
      <point x="187" y="700"/>
      <point x="189" y="695" type="curve" smooth="yes"/>
      <point x="224" y="600" type="line" smooth="yes"/>
      <point x="230" y="584"/>
      <point x="247" y="581"/>
      <point x="260" y="593" type="curve" smooth="yes"/>
      <point x="376" y="708"/>
      <point x="422" y="703"/>
      <point x="541" y="666" type="curve" smooth="yes"/>
      <point x="795" y="587" type="line"/>
      <point x="448" y="486"/>
      <point x="177" y="180"/>
      <point x="173" y="-183" type="curve" smooth="yes"/>
      <point x="167" y="-743"/>
      <point x="615" y="-764"/>
      <point x="1037" y="-702" type="curve" smooth="yes"/>
    </contour>
    <contour>
      <point x="870" y="0" type="move" name="center"/>
    </contour>
    <contour>
      <point x="805" y="-968" type="move" name="bottom"/>
    </contour>
    <contour>
      <point x="447" y="1042" type="move" name="top"/>
    </contour>
  </outline>
</glyph>
<glyph name="dal-ar" format="1">
  <advance width="1153"/>
  <unicode hex="062F"/>
  <outline>
    <contour>
      <point x="585" y="-56"/>
      <point x="854" y="-9"/>
      <point x="941" y="53" type="curve" smooth="yes"/>
      <point x="994" y="91"/>
      <point x="1015" y="154"/>
      <point x="1015" y="229" type="curve" smooth="yes"/>
      <point x="1018" y="430"/>
      <point x="942" y="553"/>
      <point x="668" y="975" type="curve" smooth="yes"/>
      <point x="662" y="984"/>
      <point x="650" y="983"/>
      <point x="647" y="978" type="curve" smooth="yes"/>
      <point x="564" y="836" type="line" smooth="yes"/>
      <point x="559" y="828"/>
      <point x="559" y="819"/>
      <point x="565" y="811" type="curve" smooth="yes"/>
      <point x="859" y="396"/>
      <point x="894" y="273"/>
      <point x="908" y="197" type="curve"/>
      <point x="760" y="142"/>
      <point x="541" y="106"/>
      <point x="366" y="127" type="curve" smooth="yes"/>
      <point x="289" y="136"/>
      <point x="281" y="183"/>
      <point x="275" y="308" type="curve" smooth="yes"/>
      <point x="274" y="320"/>
      <point x="267" y="325"/>
      <point x="257" y="325" type="curve" smooth="yes"/>
      <point x="195" y="325" type="line" smooth="yes"/>
      <point x="185" y="325"/>
      <point x="179" y="320"/>
      <point x="178" y="309" type="curve" smooth="yes"/>
      <point x="162" y="120"/>
      <point x="167" y="-56"/>
      <point x="447" y="-56" type="curve" smooth="yes"/>
    </contour>
    <contour>
      <point x="622" y="1158" type="move" name="top"/>
    </contour>
    <contour>
      <point x="514" y="-230" type="move" name="bottom"/>
    </contour>
  </outline>
</glyph>
<glyph name="reh-ar" format="1">
  <advance width="913"/>
  <unicode hex="0631"/>
  <outline>
    <contour>
      <point x="613" y="-319"/>
      <point x="751" y="-88"/>
      <point x="773" y="126" type="curve" smooth="yes"/>
      <point x="787" y="265"/>
      <point x="719" y="472"/>
      <point x="664" y="692" type="curve" smooth="yes"/>
      <point x="661" y="704"/>
      <point x="650" y="705"/>
      <point x="641" y="696" type="curve" smooth="yes"/>
      <point x="537" y="592" type="line" smooth="yes"/>
      <point x="531" y="585"/>
      <point x="528" y="578"/>
      <point x="531" y="569" type="curve" smooth="yes"/>
      <point x="674" y="127" type="line" smooth="yes"/>
      <point x="677" y="118"/>
      <point x="676" y="112"/>
      <point x="673" y="104" type="curve" smooth="yes"/>
      <point x="534" y="-211"/>
      <point x="347" y="-357"/>
      <point x="-40" y="-272" type="curve" smooth="yes"/>
      <point x="-51" y="-270"/>
      <point x="-58" y="-277"/>
      <point x="-61" y="-287" type="curve" smooth="yes"/>
      <point x="-84" y="-354" type="line" smooth="yes"/>
      <point x="-87" y="-363"/>
      <point x="-82" y="-369"/>
      <point x="-71" y="-373" type="curve" smooth="yes"/>
      <point x="166" y="-452"/>
      <point x="331" y="-477"/>
      <point x="471" y="-398" type="curve" smooth="yes"/>
    </contour>
    <contour>
      <point x="558" y="976" type="move" name="top"/>
    </contour>
    <contour>
      <point x="299" y="-650" type="move" name="bottom"/>
    </contour>
  </outline>
</glyph>
<glyph name="seen-ar" format="1">
  <advance width="2648"/>
  <unicode hex="0633"/>
  <outline>
    <contour>
      <point x="815" y="-531"/>
      <point x="1174" y="-437"/>
      <point x="1294" y="-271" type="curve" smooth="yes"/>
      <point x="1346" y="-200"/>
      <point x="1339" y="-109"/>
      <point x="1327" y="22" type="curve"/>
      <point x="1436" y="-26"/>
      <point x="1773" y="-17"/>
      <point x="1862" y="95" type="curve"/>
      <point x="1947" y="43"/>
      <point x="2065" y="-3"/>
      <point x="2170" y="-6" type="curve" smooth="yes"/>
      <point x="2414" y="-14"/>
      <point x="2517" y="46"/>
      <point x="2510" y="308" type="curve" smooth="yes"/>
      <point x="2507" y="409"/>
      <point x="2474" y="670"/>
      <point x="2433" y="839" type="curve" smooth="yes"/>
      <point x="2430" y="852"/>
      <point x="2419" y="854"/>
      <point x="2410" y="844" type="curve" smooth="yes"/>
      <point x="2307" y="739" type="line" smooth="yes"/>
      <point x="2301" y="733"/>
      <point x="2299" y="726"/>
      <point x="2301" y="716" type="curve" smooth="yes"/>
      <point x="2413" y="213" type="line" smooth="yes"/>
      <point x="2416" y="199"/>
      <point x="2406" y="188"/>
      <point x="2393" y="185" type="curve" smooth="yes"/>
      <point x="2234" y="153"/>
      <point x="2098" y="164"/>
      <point x="1958" y="225" type="curve" smooth="yes"/>
      <point x="1953" y="227"/>
      <point x="1948" y="233"/>
      <point x="1949" y="241" type="curve" smooth="yes"/>
      <point x="1988" y="582" type="line" smooth="yes"/>
      <point x="1989" y="593"/>
      <point x="1983" y="600"/>
      <point x="1972" y="601" type="curve" smooth="yes"/>
      <point x="1898" y="607" type="line" smooth="yes"/>
      <point x="1889" y="608"/>
      <point x="1882" y="603"/>
      <point x="1880" y="592" type="curve" smooth="yes"/>
      <point x="1846" y="347" type="line" smooth="yes"/>
      <point x="1826" y="201"/>
      <point x="1704" y="172"/>
      <point x="1546" y="174" type="curve" smooth="yes"/>
      <point x="1403" y="176"/>
      <point x="1310" y="192"/>
      <point x="1294" y="302" type="curve" smooth="yes"/>
      <point x="1256" y="569" type="line" smooth="yes"/>
      <point x="1253" y="588"/>
      <point x="1236" y="593"/>
      <point x="1222" y="583" type="curve" smooth="yes"/>
      <point x="1112" y="501" type="line" smooth="yes"/>
      <point x="1108" y="498"/>
      <point x="1105" y="492"/>
      <point x="1106" y="486" type="curve" smooth="yes"/>
      <point x="1213" y="-177" type="line" smooth="yes"/>
      <point x="1214" y="-184"/>
      <point x="1211" y="-191"/>
      <point x="1204" y="-194" type="curve" smooth="yes"/>
      <point x="1144" y="-222"/>
      <point x="881" y="-330"/>
      <point x="616" y="-330" type="curve" smooth="yes"/>
      <point x="391" y="-330"/>
      <point x="251" y="-217"/>
      <point x="302" y="61" type="curve" smooth="yes"/>
      <point x="337" y="251" type="line" smooth="yes"/>
      <point x="339" y="262"/>
      <point x="331" y="270"/>
      <point x="321" y="271" type="curve" smooth="yes"/>
      <point x="247" y="282" type="line" smooth="yes"/>
      <point x="238" y="283"/>
      <point x="230" y="278"/>
      <point x="228" y="268" type="curve" smooth="yes"/>
      <point x="186" y="38" type="line" smooth="yes"/>
      <point x="133" y="-255"/>
      <point x="221" y="-531"/>
      <point x="589" y="-531" type="curve" smooth="yes"/>
    </contour>
    <contour>
      <point x="742" y="713" type="move" name="top"/>
    </contour>
    <contour>
      <point x="706" y="-704" type="move" name="bottom"/>
    </contour>
  </outline>
</glyph>
<glyph name="sheen-ar" format="1">
  <advance width="2648"/>
  <unicode hex="0634"/>
  <outline>
    <contour>
      <point x="706" y="-704" type="move" name="bottom"/>
    </contour>
    <contour>
      <point x="742" y="713" type="move" name="top"/>
    </contour>
    <component base="seen-ar"/>
    <component base="threedotsupabove-ar" xOffset="1603" yOffset="156"/>
  </outline>
</glyph>
<glyph name="sad-ar" format="1">
  <advance width="2709"/>
  <unicode hex="0635"/>
  <outline>
    <contour>
      <point x="818" y="-531"/>
      <point x="1176" y="-427"/>
      <point x="1296" y="-271" type="curve" smooth="yes"/>
      <point x="1344" y="-208"/>
      <point x="1346" y="-147"/>
      <point x="1324" y="84" type="curve"/>
      <point x="1578" y="-72"/>
      <point x="2282" y="-36"/>
      <point x="2498" y="174" type="curve"/>
      <point x="2726" y="431"/>
      <point x="2376" y="779"/>
      <point x="2124" y="781" type="curve" smooth="yes"/>
      <point x="1947" y="782"/>
      <point x="1727" y="712"/>
      <point x="1355" y="254" type="curve"/>
      <point x="1287" y="312"/>
      <point x="1293" y="419"/>
      <point x="1272" y="577" type="curve" smooth="yes"/>
      <point x="1269" y="596"/>
      <point x="1252" y="601"/>
      <point x="1239" y="591" type="curve" smooth="yes"/>
      <point x="1128" y="509" type="line" smooth="yes"/>
      <point x="1124" y="506"/>
      <point x="1121" y="500"/>
      <point x="1122" y="494" type="curve" smooth="yes"/>
      <point x="1216" y="-177" type="line" smooth="yes"/>
      <point x="1217" y="-184"/>
      <point x="1213" y="-191"/>
      <point x="1206" y="-194" type="curve" smooth="yes"/>
      <point x="1124" y="-233"/>
      <point x="929" y="-330"/>
      <point x="619" y="-330" type="curve" smooth="yes"/>
      <point x="382" y="-330"/>
      <point x="255" y="-217"/>
      <point x="305" y="61" type="curve" smooth="yes"/>
      <point x="339" y="251" type="line" smooth="yes"/>
      <point x="341" y="262"/>
      <point x="334" y="269"/>
      <point x="323" y="271" type="curve" smooth="yes"/>
      <point x="250" y="282" type="line" smooth="yes"/>
      <point x="240" y="284"/>
      <point x="232" y="278"/>
      <point x="230" y="268" type="curve" smooth="yes"/>
      <point x="189" y="38" type="line" smooth="yes"/>
      <point x="137" y="-255"/>
      <point x="200" y="-531"/>
      <point x="591" y="-531" type="curve" smooth="yes"/>
    </contour>
    <contour>
      <point x="1722" y="541"/>
      <point x="1880" y="606"/>
      <point x="2044" y="606" type="curve" smooth="yes"/>
      <point x="2254" y="606"/>
      <point x="2414" y="406"/>
      <point x="2458" y="320" type="curve" smooth="yes"/>
      <point x="2462" y="309"/>
      <point x="2460" y="302"/>
      <point x="2451" y="297" type="curve" smooth="yes"/>
      <point x="2178" y="133"/>
      <point x="1747" y="133"/>
      <point x="1451" y="215" type="curve"/>
    </contour>
    <contour>
      <point x="742" y="713" type="move" name="top"/>
    </contour>
    <contour>
      <point x="707" y="-704" type="move" name="bottom"/>
    </contour>
  </outline>
</glyph>
<glyph name="dad-ar" format="1">
  <advance width="2709"/>
  <unicode hex="0636"/>
  <outline>
    <contour>
      <point x="707" y="-704" type="move" name="bottom"/>
    </contour>
    <contour>
      <point x="742" y="713" type="move" name="top"/>
    </contour>
    <component base="sad-ar"/>
    <component base="dotabove-ar" xOffset="1892" yOffset="163"/>
  </outline>
</glyph>
<glyph name="tah-ar" format="1">
  <advance width="1803"/>
  <unicode hex="0637"/>
  <outline>
    <contour>
      <point x="722" y="-31"/>
      <point x="1305" y="-33"/>
      <point x="1587" y="240" type="curve" smooth="yes"/>
      <point x="1799" y="448"/>
      <point x="1544" y="838"/>
      <point x="1243" y="839" type="curve" smooth="yes"/>
      <point x="1055" y="840"/>
      <point x="852" y="698"/>
      <point x="659" y="484" type="curve"/>
      <point x="689" y="581"/>
      <point x="693" y="690"/>
      <point x="689" y="844" type="curve" smooth="yes"/>
      <point x="669" y="1511" type="line" smooth="yes"/>
      <point x="668" y="1531"/>
      <point x="651" y="1540"/>
      <point x="634" y="1528" type="curve" smooth="yes"/>
      <point x="503" y="1431" type="line" smooth="yes"/>
      <point x="499" y="1428"/>
      <point x="496" y="1424"/>
      <point x="496" y="1418" type="curve" smooth="yes"/>
      <point x="519" y="1032"/>
      <point x="541" y="795"/>
      <point x="546" y="635" type="curve" smooth="yes"/>
      <point x="554" y="390"/>
      <point x="523" y="329"/>
      <point x="396" y="195" type="curve" smooth="yes"/>
      <point x="393" y="191"/>
      <point x="389" y="191"/>
      <point x="384" y="191" type="curve" smooth="yes"/>
      <point x="194" y="210" type="line" smooth="yes"/>
      <point x="181" y="212"/>
      <point x="170" y="200"/>
      <point x="174" y="185" type="curve" smooth="yes"/>
      <point x="209" y="36"/>
      <point x="246" y="-5"/>
      <point x="377" y="-12" type="curve" smooth="yes"/>
    </contour>
    <contour>
      <point x="871" y="554"/>
      <point x="989" y="647"/>
      <point x="1162" y="647" type="curve" smooth="yes"/>
      <point x="1393" y="647"/>
      <point x="1513" y="453"/>
      <point x="1542" y="369" type="curve" smooth="yes"/>
      <point x="1544" y="362"/>
      <point x="1541" y="355"/>
      <point x="1533" y="351" type="curve" smooth="yes"/>
      <point x="1240" y="204"/>
      <point x="864" y="167"/>
      <point x="512" y="183" type="curve"/>
    </contour>
    <contour>
      <point x="1225" y="1018" type="move" name="top"/>
    </contour>
    <contour>
      <point x="796" y="-195" type="move" name="bottom"/>
    </contour>
  </outline>
</glyph>
<glyph name="ain-ar" format="1">
  <advance width="1289"/>
  <unicode hex="0639"/>
  <outline>
    <contour>
      <point x="1171" y="-486"/>
      <point x="993" y="-517"/>
      <point x="819" y="-504" type="curve" smooth="yes"/>
      <point x="459" y="-477"/>
      <point x="319" y="-305"/>
      <point x="361" y="-80" type="curve" smooth="yes"/>
      <point x="423" y="250"/>
      <point x="789" y="440"/>
      <point x="1122" y="519" type="curve" smooth="yes"/>
      <point x="1132" y="521"/>
      <point x="1135" y="529"/>
      <point x="1136" y="538" type="curve" smooth="yes"/>
      <point x="1150" y="695" type="line" smooth="yes"/>
      <point x="1151" y="709"/>
      <point x="1142" y="714"/>
      <point x="1130" y="710" type="curve" smooth="yes"/>
      <point x="942" y="652"/>
      <point x="808" y="591"/>
      <point x="639" y="511" type="curve" smooth="yes"/>
      <point x="603" y="494"/>
      <point x="576" y="493"/>
      <point x="543" y="519" type="curve" smooth="yes"/>
      <point x="417" y="621"/>
      <point x="330" y="728"/>
      <point x="312" y="868" type="curve" smooth="yes"/>
      <point x="311" y="877"/>
      <point x="313" y="883"/>
      <point x="321" y="890" type="curve" smooth="yes"/>
      <point x="457" y="1021"/>
      <point x="637" y="1051"/>
      <point x="885" y="970" type="curve" smooth="yes"/>
      <point x="897" y="966"/>
      <point x="908" y="974"/>
      <point x="905" y="985" type="curve" smooth="yes"/>
      <point x="872" y="1112" type="line" smooth="yes"/>
      <point x="869" y="1122"/>
      <point x="870" y="1126"/>
      <point x="860" y="1131" type="curve" smooth="yes"/>
      <point x="552" y="1283"/>
      <point x="170" y="1130"/>
      <point x="183" y="806" type="curve" smooth="yes"/>
      <point x="190" y="638"/>
      <point x="283" y="503"/>
      <point x="450" y="353" type="curve"/>
      <point x="217" y="91"/>
      <point x="133" y="-337"/>
      <point x="382" y="-563" type="curve" smooth="yes"/>
      <point x="547" y="-712"/>
      <point x="829" y="-732"/>
      <point x="1094" y="-682" type="curve" smooth="yes"/>
      <point x="1254" y="-652"/>
      <point x="1310" y="-616"/>
      <point x="1365" y="-477" type="curve" smooth="yes"/>
      <point x="1371" y="-462"/>
      <point x="1356" y="-451"/>
      <point x="1338" y="-454" type="curve" smooth="yes"/>
    </contour>
    <contour>
      <point x="592" y="1357" type="move" name="top"/>
    </contour>
    <contour>
      <point x="853" y="-992" type="move" name="bottom"/>
    </contour>
  </outline>
</glyph>
<glyph name="kashida-ar" format="1">
  <advance width="462"/>
  <unicode hex="0640"/>
  <outline>
    <contour>
      <point x="462" y="0" type="line"/>
      <point x="511" y="60"/>
      <point x="511" y="120"/>
      <point x="462" y="179" type="curve"/>
      <point x="0" y="179" type="line" smooth="yes"/>
      <point x="-118" y="179"/>
      <point x="-118" y="0"/>
      <point x="0" y="0" type="curve" smooth="yes"/>
    </contour>
  </outline>
</glyph>
<glyph name="qaf-ar" format="1">
  <advance width="1631"/>
  <unicode hex="0642"/>
  <outline>
    <contour>
      <point x="766" y="-702" type="move" name="bottom"/>
    </contour>
    <component base="dotlessqaf-ar"/>
    <component base="twodotshorizontalabove-ar" xOffset="754" yOffset="119"/>
  </outline>
</glyph>
<glyph name="lam-ar" format="1">
  <advance width="1442"/>
  <unicode hex="0644"/>
  <outline>
    <contour>
      <point x="839" y="-524"/>
      <point x="1297" y="-432"/>
      <point x="1304" y="-151" type="curve"/>
      <point x="1264" y="1541" type="line" smooth="yes"/>
      <point x="1264" y="1556"/>
      <point x="1253" y="1559"/>
      <point x="1242" y="1550" type="curve" smooth="yes"/>
      <point x="1102" y="1444" type="line" smooth="yes"/>
      <point x="1095" y="1439"/>
      <point x="1093" y="1432"/>
      <point x="1093" y="1423" type="curve" smooth="yes"/>
      <point x="1179" y="-218" type="line"/>
      <point x="1179" y="-218"/>
      <point x="905" y="-330"/>
      <point x="604" y="-330" type="curve" smooth="yes"/>
      <point x="397" y="-330"/>
      <point x="240" y="-218"/>
      <point x="308" y="29" type="curve"/>
      <point x="378" y="332" type="line" smooth="yes"/>
      <point x="381" y="343"/>
      <point x="375" y="351"/>
      <point x="365" y="353" type="curve" smooth="yes"/>
      <point x="294" y="369" type="line" smooth="yes"/>
      <point x="284" y="371"/>
      <point x="277" y="368"/>
      <point x="274" y="357" type="curve" smooth="yes"/>
      <point x="200" y="47" type="line"/>
      <point x="128" y="-213"/>
      <point x="179" y="-524"/>
      <point x="564" y="-524" type="curve" smooth="yes"/>
    </contour>
    <contour>
      <point x="651" y="577" type="move" name="top"/>
    </contour>
    <contour>
      <point x="703" y="-697" type="move" name="bottom"/>
    </contour>
  </outline>
</glyph>
<glyph name="meem-ar" format="1">
  <advance width="1251"/>
  <unicode hex="0645"/>
  <outline>
    <contour>
      <point x="356" y="-619" type="line" smooth="yes"/>
      <point x="366" y="-615"/>
      <point x="368" y="-608"/>
      <point x="367" y="-598" type="curve" smooth="yes"/>
      <point x="285" y="35" type="line" smooth="yes"/>
      <point x="282" y="55"/>
      <point x="291" y="69"/>
      <point x="311" y="76" type="curve" smooth="yes"/>
      <point x="523" y="148"/>
      <point x="802" y="159"/>
      <point x="1034" y="138" type="curve" smooth="yes"/>
      <point x="1055" y="136"/>
      <point x="1067" y="147"/>
      <point x="1072" y="168" type="curve" smooth="yes"/>
      <point x="1109" y="335" type="line" smooth="yes"/>
      <point x="1112" y="350"/>
      <point x="1113" y="361"/>
      <point x="1113" y="376" type="curve" smooth="yes"/>
      <point x="1112" y="424"/>
      <point x="1097" y="477"/>
      <point x="1071" y="528" type="curve" smooth="yes"/>
      <point x="980" y="710"/>
      <point x="766" y="882"/>
      <point x="636" y="882" type="curve" smooth="yes"/>
      <point x="406" y="882"/>
      <point x="340" y="631"/>
      <point x="339" y="454" type="curve" smooth="yes"/>
      <point x="338" y="250" type="line"/>
      <point x="243" y="198"/>
      <point x="162" y="94"/>
      <point x="175" y="-137" type="curve" smooth="yes"/>
      <point x="205" y="-660" type="line" smooth="yes"/>
      <point x="206" y="-673"/>
      <point x="214" y="-678"/>
      <point x="226" y="-673" type="curve" smooth="yes"/>
    </contour>
    <contour>
      <point x="489" y="294"/>
      <point x="474" y="301"/>
      <point x="468" y="323" type="curve" smooth="yes"/>
      <point x="436" y="434" type="line" smooth="yes"/>
      <point x="431" y="451"/>
      <point x="432" y="462"/>
      <point x="437" y="478" type="curve" smooth="yes"/>
      <point x="467" y="568"/>
      <point x="519" y="685"/>
      <point x="615" y="685" type="curve" smooth="yes"/>
      <point x="757" y="685"/>
      <point x="920" y="513"/>
      <point x="1014" y="316" type="curve"/>
      <point x="837" y="330"/>
      <point x="668" y="328"/>
      <point x="509" y="298" type="curve" smooth="yes"/>
    </contour>
    <contour>
      <point x="638" y="1056" type="move" name="top"/>
    </contour>
    <contour>
      <point x="298" y="-957" type="move" name="bottom"/>
    </contour>
  </outline>
</glyph>
<glyph name="heh-ar" format="1">
  <advance width="999"/>
  <unicode hex="0647"/>
  <outline>
    <contour>
      <point x="668" y="-56"/>
      <point x="856" y="148"/>
      <point x="897" y="384" type="curve" smooth="yes"/>
      <point x="928" y="560"/>
      <point x="658" y="748"/>
      <point x="438" y="884" type="curve" smooth="yes"/>
      <point x="423" y="893"/>
      <point x="408" y="889"/>
      <point x="399" y="875" type="curve" smooth="yes"/>
      <point x="276" y="661"/>
      <point x="179" y="485"/>
      <point x="172" y="286" type="curve" smooth="yes"/>
      <point x="165" y="88"/>
      <point x="269" y="-56"/>
      <point x="446" y="-56" type="curve" smooth="yes"/>
    </contour>
    <contour>
      <point x="362" y="125"/>
      <point x="275" y="210"/>
      <point x="271" y="343" type="curve" smooth="yes"/>
      <point x="269" y="439"/>
      <point x="312" y="538"/>
      <point x="384" y="663" type="curve" smooth="yes"/>
      <point x="393" y="679"/>
      <point x="407" y="681"/>
      <point x="423" y="672" type="curve" smooth="yes"/>
      <point x="587" y="586"/>
      <point x="688" y="499"/>
      <point x="789" y="402" type="curve" smooth="yes"/>
      <point x="800" y="391"/>
      <point x="800" y="378"/>
      <point x="795" y="365" type="curve" smooth="yes"/>
      <point x="736" y="210"/>
      <point x="607" y="120"/>
      <point x="466" y="123" type="curve" smooth="yes"/>
    </contour>
    <contour>
      <point x="419" y="1066" type="move" name="top"/>
    </contour>
    <contour>
      <point x="443" y="-228" type="move" name="bottom"/>
    </contour>
  </outline>
</glyph>
<glyph name="waw-ar" format="1">
  <advance width="1040"/>
  <unicode hex="0648"/>
  <outline>
    <contour>
      <point x="792" y="-325"/>
      <point x="902" y="-47"/>
      <point x="902" y="242" type="curve" smooth="yes"/>
      <point x="902" y="540"/>
      <point x="777" y="863"/>
      <point x="552" y="863" type="curve" smooth="yes"/>
      <point x="320" y="863"/>
      <point x="173" y="544"/>
      <point x="173" y="307" type="curve" smooth="yes"/>
      <point x="173" y="8"/>
      <point x="373" y="-77"/>
      <point x="769" y="41" type="curve"/>
      <point x="619" y="-274"/>
      <point x="381" y="-385"/>
      <point x="-7" y="-300" type="curve" smooth="yes"/>
      <point x="-17" y="-298"/>
      <point x="-25" y="-305"/>
      <point x="-28" y="-315" type="curve" smooth="yes"/>
      <point x="-51" y="-394" type="line" smooth="yes"/>
      <point x="-54" y="-403"/>
      <point x="-48" y="-410"/>
      <point x="-38" y="-413" type="curve" smooth="yes"/>
      <point x="199" y="-492"/>
      <point x="408" y="-524"/>
      <point x="551" y="-450" type="curve" smooth="yes"/>
    </contour>
    <contour>
      <point x="600" y="183"/>
      <point x="402" y="168"/>
      <point x="283" y="248" type="curve" smooth="yes"/>
      <point x="276" y="253"/>
      <point x="273" y="260"/>
      <point x="273" y="269" type="curve" smooth="yes"/>
      <point x="265" y="442"/>
      <point x="384" y="661"/>
      <point x="512" y="661" type="curve" smooth="yes"/>
      <point x="635" y="661"/>
      <point x="769" y="436"/>
      <point x="770" y="223" type="curve"/>
    </contour>
    <contour>
      <point x="526" y="1030" type="move" name="top"/>
    </contour>
    <contour>
      <point x="422" y="-684" type="move" name="bottom"/>
    </contour>
  </outline>
</glyph>
<glyph name="alefMaksura-ar" format="1">
  <advance width="1630"/>
  <unicode hex="0649"/>
  <outline>
    <contour>
      <point x="968" y="-591"/>
      <point x="1502" y="-372"/>
      <point x="1492" y="-86" type="curve" smooth="yes"/>
      <point x="1489" y="-10"/>
      <point x="1447" y="18"/>
      <point x="1311" y="29" type="curve" smooth="yes"/>
      <point x="1076" y="50" type="line" smooth="yes"/>
      <point x="944" y="65"/>
      <point x="868" y="106"/>
      <point x="888" y="171" type="curve"/>
      <point x="945" y="304"/>
      <point x="1058" y="417"/>
      <point x="1153" y="481" type="curve" smooth="yes"/>
      <point x="1234" y="535"/>
      <point x="1295" y="523"/>
      <point x="1354" y="490" type="curve" smooth="yes"/>
      <point x="1364" y="485"/>
      <point x="1372" y="488"/>
      <point x="1377" y="500" type="curve" smooth="yes"/>
      <point x="1427" y="611" type="line" smooth="yes"/>
      <point x="1431" y="620"/>
      <point x="1431" y="627"/>
      <point x="1425" y="635" type="curve" smooth="yes"/>
      <point x="1393" y="682"/>
      <point x="1334" y="702"/>
      <point x="1275" y="702" type="curve" smooth="yes"/>
      <point x="1124" y="702"/>
      <point x="915" y="490"/>
      <point x="826" y="271" type="curve" smooth="yes"/>
      <point x="712" y="-9"/>
      <point x="762" y="-108"/>
      <point x="1026" y="-134" type="curve" smooth="yes"/>
      <point x="1390" y="-170" type="line"/>
      <point x="1173" y="-315"/>
      <point x="898" y="-396"/>
      <point x="667" y="-393" type="curve" smooth="yes"/>
      <point x="392" y="-388"/>
      <point x="228" y="-251"/>
      <point x="328" y="140" type="curve" smooth="yes"/>
      <point x="370" y="304" type="line" smooth="yes"/>
      <point x="373" y="316"/>
      <point x="368" y="323"/>
      <point x="358" y="325" type="curve" smooth="yes"/>
      <point x="284" y="341" type="line" smooth="yes"/>
      <point x="274" y="343"/>
      <point x="266" y="339"/>
      <point x="263" y="328" type="curve" smooth="yes"/>
      <point x="217" y="152" type="line" smooth="yes"/>
      <point x="96" y="-312"/>
      <point x="218" y="-591"/>
      <point x="651" y="-591" type="curve" smooth="yes"/>
    </contour>
    <contour>
      <point x="560" y="615" type="move" name="top"/>
    </contour>
    <contour>
      <point x="691" y="-759" type="move" name="bottom"/>
    </contour>
  </outline>
</glyph>
<glyph name="yeh-ar" format="1">
  <advance width="1630"/>
  <unicode hex="064A"/>
  <outline>
    <contour>
      <point x="560" y="589" type="move" name="top"/>
    </contour>
    <component base="alefMaksura-ar"/>
    <component base="twodotshorizontalbelow-ar" xOffset="420" yOffset="-588"/>
  </outline>
</glyph>
<glyph name="fathatan-ar" format="1">
  <advance width="0"/>
  <unicode hex="064B"/>
  <outline>
    <contour>
      <point x="516" y="1469" type="line"/>
      <point x="516" y="1578" type="line"/>
      <point x="0" y="1400" type="line"/>
      <point x="0" y="1291" type="line"/>
    </contour>
    <contour>
      <point x="516" y="1214" type="line"/>
      <point x="516" y="1321" type="line"/>
      <point x="0" y="1144" type="line"/>
      <point x="0" y="1037" type="line"/>
    </contour>
    <contour>
      <point x="258" y="1724" type="move" name="top"/>
    </contour>
    <contour>
      <point x="258" y="1067" type="move" name="_top"/>
    </contour>
  </outline>
</glyph>
<glyph name="dammatan-ar" format="1">
  <advance width="0"/>
  <unicode hex="064C"/>
  <outline>
    <contour>
      <point x="277" y="949"/>
      <point x="379" y="1064"/>
      <point x="436" y="1159" type="curve"/>
      <point x="534" y="1176" type="line"/>
      <point x="546" y="1247" type="line"/>
      <point x="446" y="1237" type="line"/>
      <point x="462" y="1342"/>
      <point x="431" y="1488"/>
      <point x="335" y="1488" type="curve" smooth="yes"/>
      <point x="254" y="1488"/>
      <point x="199" y="1363"/>
      <point x="193" y="1291" type="curve" smooth="yes"/>
      <point x="184" y="1204"/>
      <point x="232" y="1133"/>
      <point x="363" y="1152" type="curve"/>
      <point x="317" y="1102"/>
      <point x="233" y="1015"/>
      <point x="178" y="967" type="curve"/>
      <point x="181" y="1029"/>
      <point x="187" y="1179"/>
      <point x="113" y="1179" type="curve" smooth="yes"/>
      <point x="85" y="1179"/>
      <point x="45" y="1160"/>
      <point x="0" y="1142" type="curve"/>
      <point x="3" y="1047" type="line"/>
      <point x="68" y="1076" type="line"/>
      <point x="103" y="1089"/>
      <point x="130" y="1091"/>
      <point x="130" y="1017" type="curve"/>
      <point x="131" y="991"/>
      <point x="129" y="954"/>
      <point x="129" y="941" type="curve"/>
      <point x="207" y="890" type="line"/>
    </contour>
    <contour>
      <point x="322" y="1229"/>
      <point x="243" y="1240"/>
      <point x="243" y="1279" type="curve" smooth="yes"/>
      <point x="243" y="1336"/>
      <point x="274" y="1395"/>
      <point x="319" y="1395" type="curve" smooth="yes"/>
      <point x="375" y="1395"/>
      <point x="405" y="1277"/>
      <point x="390" y="1231" type="curve"/>
    </contour>
    <contour>
      <point x="256" y="1653" type="move" name="top"/>
    </contour>
    <contour>
      <point x="274" y="902" type="move" name="_top"/>
    </contour>
  </outline>
</glyph>
<glyph name="kasratan-ar" format="1">
  <advance width="0"/>
  <unicode hex="064D"/>
  <outline>
    <contour>
      <point x="518" y="-390" type="line"/>
      <point x="518" y="-282" type="line"/>
      <point x="0" y="-460" type="line"/>
      <point x="0" y="-567" type="line"/>
    </contour>
    <contour>
      <point x="518" y="-645" type="line"/>
      <point x="518" y="-538" type="line"/>
      <point x="0" y="-715" type="line"/>
      <point x="0" y="-823" type="line"/>
    </contour>
    <contour>
      <point x="259" y="-305" type="move" name="_bottom"/>
    </contour>
    <contour>
      <point x="259" y="-970" type="move" name="bottom"/>
    </contour>
  </outline>
</glyph>
<glyph name="fatha-ar" format="1">
  <advance width="0"/>
  <unicode hex="064E"/>
  <outline>
    <contour>
      <point x="259" y="1300" type="move" name="_top"/>
    </contour>
    <contour>
      <point x="259" y="1712" type="move" name="top"/>
    </contour>
    <contour>
      <point x="518" y="1454" type="line"/>
      <point x="518" y="1562" type="line"/>
      <point x="0" y="1383" type="line"/>
      <point x="0" y="1277" type="line"/>
    </contour>
  </outline>
</glyph>
<glyph name="damma-ar" format="1">
  <advance width="0"/>
  <unicode hex="064F"/>
  <outline>
    <contour>
      <point x="121" y="889"/>
      <point x="228" y="1058"/>
      <point x="269" y="1127" type="curve"/>
      <point x="376" y="1147" type="line"/>
      <point x="391" y="1225" type="line"/>
      <point x="279" y="1213" type="line"/>
      <point x="299" y="1328"/>
      <point x="263" y="1489"/>
      <point x="158" y="1489" type="curve" smooth="yes"/>
      <point x="69" y="1489"/>
      <point x="8" y="1351"/>
      <point x="1" y="1273" type="curve" smooth="yes"/>
      <point x="-9" y="1176"/>
      <point x="45" y="1098"/>
      <point x="190" y="1120" type="curve"/>
      <point x="154" y="1071"/>
      <point x="37" y="915"/>
      <point x="2" y="877" type="curve"/>
      <point x="71" y="845" type="line"/>
    </contour>
    <contour>
      <point x="143" y="1205"/>
      <point x="56" y="1216"/>
      <point x="56" y="1259" type="curve" smooth="yes"/>
      <point x="56" y="1323"/>
      <point x="90" y="1388"/>
      <point x="139" y="1388" type="curve" smooth="yes"/>
      <point x="202" y="1388"/>
      <point x="235" y="1257"/>
      <point x="217" y="1206" type="curve"/>
    </contour>
    <contour>
      <point x="181" y="1655" type="move" name="top"/>
    </contour>
    <contour>
      <point x="181" y="869" type="move" name="_top"/>
    </contour>
  </outline>
</glyph>
<glyph name="kasra-ar" format="1">
  <advance width="0"/>
  <unicode hex="0650"/>
  <outline>
    <contour>
      <point x="518" y="-529" type="line"/>
      <point x="518" y="-422" type="line"/>
      <point x="0" y="-599" type="line"/>
      <point x="0" y="-707" type="line"/>
    </contour>
    <contour>
      <point x="259" y="-434" type="move" name="_bottom"/>
    </contour>
    <contour>
      <point x="259" y="-842" type="move" name="bottom"/>
    </contour>
  </outline>
</glyph>
<glyph name="shadda-ar" format="1">
  <advance width="0"/>
  <unicode hex="0651"/>
  <outline>
    <contour>
      <point x="168" y="1071"/>
      <point x="262" y="1086"/>
      <point x="319" y="1128" type="curve"/>
      <point x="396" y="1063"/>
      <point x="515" y="1083"/>
      <point x="606" y="1127" type="curve" smooth="yes"/>
      <point x="614" y="1131"/>
      <point x="618" y="1136"/>
      <point x="620" y="1147" type="curve" smooth="yes"/>
      <point x="646" y="1290"/>
      <point x="633" y="1349"/>
      <point x="624" y="1390" type="curve" smooth="yes"/>
      <point x="600" y="1503" type="line" smooth="yes"/>
      <point x="597" y="1517"/>
      <point x="588" y="1520"/>
      <point x="577" y="1512" type="curve" smooth="yes"/>
      <point x="535" y="1482" type="line" smooth="yes"/>
      <point x="528" y="1477"/>
      <point x="523" y="1471"/>
      <point x="526" y="1461" type="curve" smooth="yes"/>
      <point x="585" y="1235" type="line"/>
      <point x="520" y="1211"/>
      <point x="450" y="1188"/>
      <point x="354" y="1224" type="curve"/>
      <point x="347" y="1415" type="line" smooth="yes"/>
      <point x="347" y="1425"/>
      <point x="340" y="1432"/>
      <point x="330" y="1432" type="curve" smooth="yes"/>
      <point x="307" y="1432" type="line" smooth="yes"/>
      <point x="297" y="1432"/>
      <point x="290" y="1425"/>
      <point x="290" y="1415" type="curve" smooth="yes"/>
      <point x="284" y="1222" type="line"/>
      <point x="221" y="1201"/>
      <point x="159" y="1186"/>
      <point x="61" y="1218" type="curve"/>
      <point x="82" y="1441" type="line" smooth="yes"/>
      <point x="83" y="1451"/>
      <point x="76" y="1459"/>
      <point x="66" y="1461" type="curve" smooth="yes"/>
      <point x="43" y="1463" type="line" smooth="yes"/>
      <point x="32" y="1464"/>
      <point x="24" y="1457"/>
      <point x="23" y="1447" type="curve" smooth="yes"/>
      <point x="2" y="1257" type="line" smooth="yes"/>
      <point x="-8" y="1181"/>
      <point x="15" y="1107"/>
      <point x="86" y="1090" type="curve" smooth="yes"/>
    </contour>
    <contour>
      <point x="328" y="1613" type="move" name="top"/>
    </contour>
    <contour>
      <point x="328" y="1084" type="move" name="_top"/>
    </contour>
  </outline>
</glyph>
<glyph name="sukun-ar" format="1">
  <advance width="0"/>
  <unicode hex="0652"/>
  <outline>
    <contour>
      <point x="266" y="1033"/>
      <point x="370" y="1171"/>
      <point x="377" y="1301" type="curve" smooth="yes"/>
      <point x="386" y="1439"/>
      <point x="306" y="1557"/>
      <point x="194" y="1557" type="curve" smooth="yes"/>
      <point x="81" y="1557"/>
      <point x="10" y="1377"/>
      <point x="2" y="1274" type="curve" smooth="yes"/>
      <point x="-12" y="1106"/>
      <point x="57" y="1042"/>
      <point x="139" y="1037" type="curve" smooth="yes"/>
    </contour>
    <contour>
      <point x="106" y="1178"/>
      <point x="69" y="1222"/>
      <point x="67" y="1272" type="curve" smooth="yes"/>
      <point x="66" y="1318"/>
      <point x="115" y="1421"/>
      <point x="174" y="1421" type="curve" smooth="yes"/>
      <point x="238" y="1421"/>
      <point x="306" y="1316"/>
      <point x="306" y="1281" type="curve" smooth="yes"/>
      <point x="306" y="1235"/>
      <point x="220" y="1178"/>
      <point x="164" y="1178" type="curve" smooth="yes"/>
    </contour>
    <contour>
      <point x="189" y="1730" type="move" name="top"/>
    </contour>
    <contour>
      <point x="189" y="1034" type="move" name="_top"/>
    </contour>
  </outline>
</glyph>
<glyph name="madda-ar" format="1">
  <advance width="0"/>
  <unicode hex="0653"/>
  <outline>
    <contour>
      <point x="73" y="1491"/>
      <point x="81" y="1493"/>
      <point x="86" y="1503" type="curve" smooth="yes"/>
      <point x="136" y="1600" type="line"/>
      <point x="304" y="1546"/>
      <point x="545" y="1549"/>
      <point x="676" y="1605" type="curve" smooth="yes"/>
      <point x="683" y="1608"/>
      <point x="687" y="1613"/>
      <point x="690" y="1623" type="curve" smooth="yes"/>
      <point x="728" y="1745" type="line" smooth="yes"/>
      <point x="731" y="1755"/>
      <point x="727" y="1765"/>
      <point x="708" y="1758" type="curve" smooth="yes"/>
      <point x="557" y="1699"/>
      <point x="335" y="1716"/>
      <point x="200" y="1757" type="curve" smooth="yes"/>
      <point x="153" y="1772"/>
      <point x="95" y="1778"/>
      <point x="3" y="1593" type="curve" smooth="yes"/>
      <point x="-3" y="1581"/>
      <point x="-1" y="1569"/>
      <point x="6" y="1562" type="curve" smooth="yes"/>
      <point x="67" y="1498" type="line" smooth="yes"/>
    </contour>
    <contour>
      <point x="358" y="1918" type="move" name="top"/>
    </contour>
    <contour>
      <point x="358" y="1504" type="move" name="_top"/>
    </contour>
  </outline>
</glyph>
<glyph name="hamzaabove-ar" format="1">
  <advance width="0"/>
  <unicode hex="0654"/>
  <outline>
    <contour>
      <point x="285" y="541" type="move" name="_top"/>
    </contour>
    <contour>
      <point x="285" y="1358" type="move" name="top"/>
    </contour>
    <component base="hamzacenter-ar" yOffset="-9"/>
  </outline>
</glyph>
<glyph name="hamzabelow-ar" format="1">
  <advance width="0"/>
  <unicode hex="0655"/>
  <outline>
    <contour>
      <point x="282" y="1190" type="move" name="_bottom"/>
    </contour>
    <contour>
      <point x="282" y="412" type="move" name="bottom"/>
    </contour>
    <component base="hamzacenter-ar" xOffset="-3"/>
  </outline>
</glyph>
<glyph name="alefbelow-ar" format="1">
  <advance width="0"/>
  <unicode hex="0656"/>
  <outline>
    <contour>
      <point x="57" y="-128" type="move" name="_bottom"/>
    </contour>
    <contour>
      <point x="57" y="-766" type="move" name="bottom"/>
    </contour>
    <component base="alefabove-ar" yOffset="-1655"/>
  </outline>
</glyph>
<glyph name="noonghunnaabove-ar" format="1">
  <advance width="0"/>
  <unicode hex="0658"/>
  <outline>
    <contour>
      <point x="200" y="1548" type="move" name="_top"/>
    </contour>
    <contour>
      <point x="200" y="2007" type="move" name="top"/>
    </contour>
    <contour>
      <point x="410.995" y="1688.688" type="curve" smooth="yes"/>
      <point x="411" y="1738.704"/>
      <point x="394.904" y="1852.381"/>
      <point x="387.907" y="1903.36" type="curve" smooth="yes"/>
      <point x="384.938" y="1925.626"/>
      <point x="365.623" y="1934.818"/>
      <point x="348.118" y="1922.087" type="curve" smooth="yes"/>
      <point x="324" y="1904" type="line" smooth="yes"/>
      <point x="313.813" y="1896.36"/>
      <point x="309" y="1886"/>
      <point x="311.05" y="1872.005" type="curve" smooth="yes"/>
      <point x="345.256" y="1677.751" type="line" smooth="yes"/>
      <point x="346" y="1671"/>
      <point x="345.419" y="1669.347"/>
      <point x="336.838" y="1666.487" type="curve" smooth="yes"/>
      <point x="305.308" y="1656.636"/>
      <point x="229.784" y="1638"/>
      <point x="154" y="1638" type="curve" smooth="yes"/>
      <point x="74.192" y="1638"/>
      <point x="41.318" y="1679.213"/>
      <point x="55.847" y="1761.256" type="curve" smooth="yes"/>
      <point x="63.839" y="1805.211" type="line" smooth="yes"/>
      <point x="66.884" y="1821.958"/>
      <point x="60" y="1836"/>
      <point x="42.602" y="1839.67" type="curve" smooth="yes"/>
      <point x="27" y="1843"/>
      <point x="11.157" y="1832.267"/>
      <point x="8.161" y="1815.789" type="curve" smooth="yes"/>
      <point x="-3.806" y="1755.961" type="line" smooth="yes"/>
      <point x="-30.205" y="1631.513"/>
      <point x="28.27" y="1549"/>
      <point x="145" y="1549" type="curve" smooth="yes"/>
      <point x="240.057" y="1549"/>
      <point x="407.75" y="1584.859"/>
    </contour>
  </outline>
</glyph>
<glyph name="vabove-ar" format="1">
  <advance width="0"/>
  <unicode hex="065A"/>
  <outline>
    <contour>
      <point x="292" y="1059" type="line" smooth="yes"/>
      <point x="300" y="1061"/>
      <point x="305" y="1065"/>
      <point x="309" y="1074" type="curve" smooth="yes"/>
      <point x="473" y="1479" type="line" smooth="yes"/>
      <point x="477" y="1489"/>
      <point x="476" y="1501"/>
      <point x="467" y="1502" type="curve" smooth="yes"/>
      <point x="419" y="1508" type="line" smooth="yes"/>
      <point x="405" y="1510"/>
      <point x="399" y="1511"/>
      <point x="394" y="1498" type="curve" smooth="yes"/>
      <point x="283" y="1220" type="line" smooth="yes"/>
      <point x="266" y="1178"/>
      <point x="261" y="1182"/>
      <point x="244" y="1219" type="curve" smooth="yes"/>
      <point x="151" y="1420" type="line" smooth="yes"/>
      <point x="111" y="1506"/>
      <point x="107" y="1509"/>
      <point x="20" y="1467" type="curve" smooth="yes"/>
      <point x="9" y="1462"/>
      <point x="8" y="1455"/>
      <point x="14" y="1443" type="curve" smooth="yes"/>
      <point x="206" y="1050" type="line" smooth="yes"/>
      <point x="211" y="1040"/>
      <point x="217" y="1037"/>
      <point x="228" y="1040" type="curve" smooth="yes"/>
    </contour>
    <contour>
      <point x="233" y="1661" type="move" name="top"/>
    </contour>
    <contour>
      <point x="228" y="1040" type="move" name="_top"/>
    </contour>
  </outline>
</glyph>
<glyph name="vinvertedabove-ar" format="1">
  <advance width="0"/>
  <unicode hex="065B"/>
  <outline>
    <contour>
      <point x="108" y="1185"/>
      <point x="103" y="1179"/>
      <point x="132" y="1279" type="curve" smooth="yes"/>
      <point x="195" y="1494" type="line" smooth="yes"/>
      <point x="206" y="1533"/>
      <point x="216" y="1539"/>
      <point x="239" y="1500" type="curve" smooth="yes"/>
      <point x="404" y="1220" type="line" smooth="yes"/>
      <point x="411" y="1208"/>
      <point x="421" y="1209"/>
      <point x="429" y="1218" type="curve" smooth="yes"/>
      <point x="458" y="1254" type="line" smooth="yes"/>
      <point x="464" y="1261"/>
      <point x="465" y="1268"/>
      <point x="459" y="1278" type="curve" smooth="yes"/>
      <point x="239" y="1648" type="line" smooth="yes"/>
      <point x="234" y="1656"/>
      <point x="229" y="1658"/>
      <point x="220" y="1659" type="curve" smooth="yes"/>
      <point x="153" y="1667" type="line" smooth="yes"/>
      <point x="143" y="1668"/>
      <point x="136" y="1664"/>
      <point x="133" y="1654" type="curve" smooth="yes"/>
      <point x="90" y="1497"/>
      <point x="52" y="1386"/>
      <point x="1" y="1233" type="curve" smooth="yes"/>
      <point x="-3" y="1221"/>
      <point x="0" y="1213"/>
      <point x="12" y="1210" type="curve" smooth="yes"/>
    </contour>
    <contour>
      <point x="231" y="1840" type="move" name="top"/>
    </contour>
    <contour>
      <point x="231" y="1172" type="move" name="_top"/>
    </contour>
  </outline>
</glyph>
<glyph name="zero-ar" format="1">
  <advance width="833"/>
  <unicode hex="0660"/>
  <outline>
    <contour>
      <point x="494" y="216" type="curve" smooth="yes"/>
      <point x="687" y="413" type="line" smooth="yes"/>
      <point x="728" y="455"/>
      <point x="728" y="518"/>
      <point x="685" y="561" type="curve" smooth="yes"/>
      <point x="493" y="753" type="line" smooth="yes"/>
      <point x="450" y="796"/>
      <point x="388" y="796"/>
      <point x="345" y="754" type="curve" smooth="yes"/>
      <point x="148" y="562" type="line" smooth="yes"/>
      <point x="105" y="520"/>
      <point x="103" y="456"/>
      <point x="147" y="412" type="curve" smooth="yes"/>
      <point x="344" y="215" type="line" smooth="yes"/>
      <point x="388" y="171"/>
      <point x="452" y="173"/>
    </contour>
    <contour>
      <point x="244" y="485" type="line"/>
      <point x="417" y="654" type="line"/>
      <point x="587" y="485" type="line"/>
      <point x="417" y="312" type="line"/>
    </contour>
  </outline>
</glyph>
<glyph name="one-ar" format="1">
  <advance width="567"/>
  <unicode hex="0661"/>
  <outline>
    <contour>
      <point x="437" y="-3" type="line" smooth="yes"/>
      <point x="446" y="-1"/>
      <point x="452" y="6"/>
      <point x="452" y="16" type="curve" smooth="yes"/>
      <point x="447" y="587"/>
      <point x="431" y="922"/>
      <point x="260" y="1262" type="curve" smooth="yes"/>
      <point x="254" y="1274"/>
      <point x="244" y="1275"/>
      <point x="236" y="1264" type="curve" smooth="yes"/>
      <point x="120" y="1104" type="line" smooth="yes"/>
      <point x="114" y="1096"/>
      <point x="113" y="1089"/>
      <point x="118" y="1080" type="curve" smooth="yes"/>
      <point x="335" y="690"/>
      <point x="337" y="267"/>
      <point x="342" y="-7" type="curve" smooth="yes"/>
      <point x="342" y="-20"/>
      <point x="347" y="-25"/>
      <point x="360" y="-22" type="curve" smooth="yes"/>
    </contour>
  </outline>
</glyph>
<glyph name="two-ar" format="1">
  <advance width="987"/>
  <unicode hex="0662"/>
  <outline>
    <contour>
      <point x="437" y="-3" type="line" smooth="yes"/>
      <point x="446" y="-1"/>
      <point x="452" y="5"/>
      <point x="452" y="15" type="curve" smooth="yes"/>
      <point x="459" y="260"/>
      <point x="447" y="526"/>
      <point x="404" y="806" type="curve" smooth="yes"/>
      <point x="401" y="819"/>
      <point x="408" y="825"/>
      <point x="421" y="822" type="curve" smooth="yes"/>
      <point x="685" y="774"/>
      <point x="861" y="903"/>
      <point x="872" y="1263" type="curve" smooth="yes"/>
      <point x="872" y="1275"/>
      <point x="865" y="1278"/>
      <point x="853" y="1280" type="curve" smooth="yes"/>
      <point x="776" y="1294" type="line" smooth="yes"/>
      <point x="766" y="1296"/>
      <point x="760" y="1286"/>
      <point x="759" y="1275" type="curve" smooth="yes"/>
      <point x="745" y="1040"/>
      <point x="576" y="1000"/>
      <point x="407" y="1047" type="curve" smooth="yes"/>
      <point x="399" y="1049"/>
      <point x="393" y="1052"/>
      <point x="388" y="1058" type="curve" smooth="yes"/>
      <point x="351" y="1099"/>
      <point x="306" y="1180"/>
      <point x="260" y="1263" type="curve" smooth="yes"/>
      <point x="254" y="1274"/>
      <point x="244" y="1275"/>
      <point x="236" y="1264" type="curve" smooth="yes"/>
      <point x="120" y="1104" type="line" smooth="yes"/>
      <point x="114" y="1096"/>
      <point x="113" y="1089"/>
      <point x="118" y="1080" type="curve" smooth="yes"/>
      <point x="335" y="690"/>
      <point x="337" y="267"/>
      <point x="342" y="-7" type="curve" smooth="yes"/>
      <point x="342" y="-20"/>
      <point x="347" y="-25"/>
      <point x="360" y="-22" type="curve" smooth="yes"/>
    </contour>
  </outline>
</glyph>
<glyph name="three-ar" format="1">
  <advance width="1252"/>
  <unicode hex="0663"/>
  <outline>
    <contour>
      <point x="437" y="-3" type="line" smooth="yes"/>
      <point x="446" y="-1"/>
      <point x="452" y="6"/>
      <point x="452" y="16" type="curve" smooth="yes"/>
      <point x="448" y="352"/>
      <point x="461" y="476"/>
      <point x="400" y="827" type="curve"/>
      <point x="539" y="796"/>
      <point x="652" y="826"/>
      <point x="712" y="908" type="curve"/>
      <point x="918" y="765"/>
      <point x="1142" y="898"/>
      <point x="1137" y="1156" type="curve" smooth="yes"/>
      <point x="1134" y="1304" type="line" smooth="yes"/>
      <point x="1134" y="1316"/>
      <point x="1128" y="1320"/>
      <point x="1118" y="1321" type="curve" smooth="yes"/>
      <point x="1057" y="1328" type="line" smooth="yes"/>
      <point x="1045" y="1329"/>
      <point x="1038" y="1324"/>
      <point x="1038" y="1312" type="curve" smooth="yes"/>
      <point x="1038" y="1083"/>
      <point x="982" y="997"/>
      <point x="757" y="1059" type="curve"/>
      <point x="761" y="1303" type="line" smooth="yes"/>
      <point x="761" y="1313"/>
      <point x="754" y="1320"/>
      <point x="744" y="1320" type="curve" smooth="yes"/>
      <point x="683" y="1323" type="line" smooth="yes"/>
      <point x="673" y="1323"/>
      <point x="666" y="1317"/>
      <point x="666" y="1304" type="curve" smooth="yes"/>
      <point x="661" y="1122"/>
      <point x="646" y="1025"/>
      <point x="509" y="1021" type="curve" smooth="yes"/>
      <point x="355" y="1015"/>
      <point x="325" y="1109"/>
      <point x="260" y="1263" type="curve" smooth="yes"/>
      <point x="255" y="1274"/>
      <point x="244" y="1275"/>
      <point x="236" y="1264" type="curve" smooth="yes"/>
      <point x="120" y="1104" type="line" smooth="yes"/>
      <point x="114" y="1096"/>
      <point x="113" y="1089"/>
      <point x="118" y="1080" type="curve" smooth="yes"/>
      <point x="335" y="690"/>
      <point x="337" y="267"/>
      <point x="342" y="-7" type="curve" smooth="yes"/>
      <point x="342" y="-20"/>
      <point x="347" y="-25"/>
      <point x="360" y="-22" type="curve" smooth="yes"/>
    </contour>
  </outline>
</glyph>
<glyph name="four-ar" format="1">
  <advance width="988"/>
  <unicode hex="0664"/>
  <outline>
    <contour>
      <point x="818" y="26"/>
      <point x="823" y="30"/>
      <point x="826" y="40" type="curve" smooth="yes"/>
      <point x="872" y="198" type="line" smooth="yes"/>
      <point x="876" y="212"/>
      <point x="869" y="217"/>
      <point x="856" y="215" type="curve" smooth="yes"/>
      <point x="601" y="169"/>
      <point x="220" y="176"/>
      <point x="220" y="281" type="curve" smooth="yes"/>
      <point x="220" y="348"/>
      <point x="446" y="512"/>
      <point x="623" y="605" type="curve" smooth="yes"/>
      <point x="633" y="610"/>
      <point x="636" y="618"/>
      <point x="634" y="627" type="curve" smooth="yes"/>
      <point x="603" y="776" type="line" smooth="yes"/>
      <point x="600" y="785"/>
      <point x="595" y="791"/>
      <point x="584" y="792" type="curve" smooth="yes"/>
      <point x="491" y="803"/>
      <point x="350" y="829"/>
      <point x="258" y="900" type="curve"/>
      <point x="342" y="992"/>
      <point x="473" y="1082"/>
      <point x="623" y="1165" type="curve" smooth="yes"/>
      <point x="633" y="1170"/>
      <point x="636" y="1175"/>
      <point x="636" y="1186" type="curve" smooth="yes"/>
      <point x="639" y="1319" type="line" smooth="yes"/>
      <point x="639" y="1332"/>
      <point x="631" y="1338"/>
      <point x="620" y="1332" type="curve" smooth="yes"/>
      <point x="374" y="1202"/>
      <point x="153" y="1028"/>
      <point x="153" y="812" type="curve" smooth="yes"/>
      <point x="153" y="702"/>
      <point x="323" y="661"/>
      <point x="423" y="642" type="curve"/>
      <point x="278" y="542"/>
      <point x="116" y="365"/>
      <point x="115" y="191" type="curve" smooth="yes"/>
      <point x="113" y="-75"/>
      <point x="603" y="-9"/>
      <point x="808" y="24" type="curve" smooth="yes"/>
    </contour>
  </outline>
</glyph>
<glyph name="five-ar" format="1">
  <advance width="932"/>
  <unicode hex="0665"/>
  <outline>
    <contour>
      <point x="654" y="128"/>
      <point x="816" y="361"/>
      <point x="816" y="660" type="curve" smooth="yes"/>
      <point x="816" y="884"/>
      <point x="606" y="1098"/>
      <point x="445" y="1098" type="curve" smooth="yes"/>
      <point x="240" y="1098"/>
      <point x="115" y="704"/>
      <point x="115" y="480" type="curve" smooth="yes"/>
      <point x="115" y="216"/>
      <point x="217" y="138"/>
      <point x="365" y="135" type="curve" smooth="yes"/>
    </contour>
    <contour>
      <point x="298" y="345"/>
      <point x="209" y="404"/>
      <point x="209" y="531" type="curve" smooth="yes"/>
      <point x="209" y="615"/>
      <point x="239" y="873"/>
      <point x="394" y="873" type="curve" smooth="yes"/>
      <point x="516" y="873"/>
      <point x="719" y="711"/>
      <point x="719" y="554" type="curve" smooth="yes"/>
      <point x="719" y="471"/>
      <point x="559" y="343"/>
      <point x="423" y="344" type="curve" smooth="yes"/>
    </contour>
  </outline>
</glyph>
<glyph name="six-ar" format="1">
  <advance width="1049"/>
  <unicode hex="0666"/>
  <outline>
    <contour>
      <point x="927" y="77" type="line" smooth="yes"/>
      <point x="934" y="84"/>
      <point x="935" y="92"/>
      <point x="931" y="101" type="curve" smooth="yes"/>
      <point x="789" y="402"/>
      <point x="766" y="728"/>
      <point x="812" y="1073" type="curve" smooth="yes"/>
      <point x="813" y="1081"/>
      <point x="813" y="1088"/>
      <point x="811" y="1095" type="curve" smooth="yes"/>
      <point x="773" y="1239" type="line" smooth="yes"/>
      <point x="770" y="1249"/>
      <point x="762" y="1253"/>
      <point x="752" y="1252" type="curve" smooth="yes"/>
      <point x="578" y="1237"/>
      <point x="312" y="1233"/>
      <point x="140" y="1282" type="curve" smooth="yes"/>
      <point x="129" y="1285"/>
      <point x="121" y="1280"/>
      <point x="121" y="1268" type="curve" smooth="yes"/>
      <point x="115" y="1086" type="line" smooth="yes"/>
      <point x="115" y="1075"/>
      <point x="120" y="1069"/>
      <point x="130" y="1066" type="curve" smooth="yes"/>
      <point x="281" y="1025"/>
      <point x="550" y="1032"/>
      <point x="703" y="1051" type="curve"/>
      <point x="656" y="642"/>
      <point x="646" y="324"/>
      <point x="780" y="-26" type="curve" smooth="yes"/>
      <point x="785" y="-38"/>
      <point x="793" y="-41"/>
      <point x="804" y="-32" type="curve" smooth="yes"/>
    </contour>
  </outline>
</glyph>
<glyph name="seven-ar" format="1">
  <advance width="1206"/>
  <unicode hex="0667"/>
  <outline>
    <contour>
      <point x="728" y="13" type="line" smooth="yes"/>
      <point x="736" y="16"/>
      <point x="741" y="21"/>
      <point x="743" y="30" type="curve" smooth="yes"/>
      <point x="811" y="379"/>
      <point x="913" y="806"/>
      <point x="1089" y="1173" type="curve" smooth="yes"/>
      <point x="1093" y="1182"/>
      <point x="1092" y="1190"/>
      <point x="1087" y="1197" type="curve" smooth="yes"/>
      <point x="1009" y="1313" type="line" smooth="yes"/>
      <point x="1001" y="1325"/>
      <point x="992" y="1324"/>
      <point x="986" y="1312" type="curve" smooth="yes"/>
      <point x="828" y="999"/>
      <point x="739" y="630"/>
      <point x="668" y="298" type="curve"/>
      <point x="624" y="661"/>
      <point x="397" y="1056"/>
      <point x="254" y="1285" type="curve" smooth="yes"/>
      <point x="247" y="1296"/>
      <point x="237" y="1296"/>
      <point x="230" y="1286" type="curve" smooth="yes"/>
      <point x="120" y="1137" type="line" smooth="yes"/>
      <point x="114" y="1129"/>
      <point x="113" y="1122"/>
      <point x="118" y="1113" type="curve" smooth="yes"/>
      <point x="347" y="747"/>
      <point x="488" y="538"/>
      <point x="601" y="-16" type="curve" smooth="yes"/>
      <point x="604" y="-29"/>
      <point x="612" y="-33"/>
      <point x="622" y="-29" type="curve" smooth="yes"/>
    </contour>
  </outline>
</glyph>
<glyph name="eight-ar" format="1">
  <advance width="1183"/>
  <unicode hex="0668"/>
  <outline>
    <contour>
      <point x="205" y="-37"/>
      <point x="215" y="-37"/>
      <point x="221" y="-23" type="curve" smooth="yes"/>
      <point x="357" y="290"/>
      <point x="467" y="680"/>
      <point x="515" y="966" type="curve"/>
      <point x="559" y="670"/>
      <point x="787" y="212"/>
      <point x="929" y="-21" type="curve" smooth="yes"/>
      <point x="936" y="-32"/>
      <point x="946" y="-32"/>
      <point x="953" y="-22" type="curve" smooth="yes"/>
      <point x="1064" y="126" type="line" smooth="yes"/>
      <point x="1070" y="134"/>
      <point x="1072" y="141"/>
      <point x="1065" y="151" type="curve" smooth="yes"/>
      <point x="837" y="473"/>
      <point x="696" y="769"/>
      <point x="583" y="1301" type="curve" smooth="yes"/>
      <point x="580" y="1313"/>
      <point x="570" y="1317"/>
      <point x="560" y="1309" type="curve" smooth="yes"/>
      <point x="463" y="1236" type="line" smooth="yes"/>
      <point x="457" y="1232"/>
      <point x="453" y="1225"/>
      <point x="452" y="1216" type="curve" smooth="yes"/>
      <point x="404" y="879"/>
      <point x="283" y="460"/>
      <point x="117" y="114" type="curve" smooth="yes"/>
      <point x="113" y="105"/>
      <point x="115" y="98"/>
      <point x="120" y="90" type="curve" smooth="yes"/>
      <point x="197" y="-25" type="line" smooth="yes"/>
    </contour>
  </outline>
</glyph>
<glyph name="nine-ar" format="1">
  <advance width="1002"/>
  <unicode hex="0669"/>
  <outline>
    <contour>
      <point x="881" y="116" type="line" smooth="yes"/>
      <point x="887" y="123"/>
      <point x="888" y="130"/>
      <point x="884" y="139" type="curve" smooth="yes"/>
      <point x="789" y="340"/>
      <point x="752" y="541"/>
      <point x="735" y="766" type="curve" smooth="yes"/>
      <point x="718" y="997"/>
      <point x="693" y="1318"/>
      <point x="431" y="1318" type="curve" smooth="yes"/>
      <point x="236" y="1318"/>
      <point x="115" y="1040"/>
      <point x="115" y="838" type="curve" smooth="yes"/>
      <point x="115" y="623"/>
      <point x="255" y="553"/>
      <point x="394" y="558" type="curve" smooth="yes"/>
      <point x="481" y="560"/>
      <point x="568" y="592"/>
      <point x="619" y="635" type="curve"/>
      <point x="629" y="413"/>
      <point x="646" y="204"/>
      <point x="728" y="-24" type="curve" smooth="yes"/>
      <point x="733" y="-37"/>
      <point x="743" y="-37"/>
      <point x="751" y="-29" type="curve" smooth="yes"/>
    </contour>
    <contour>
      <point x="454" y="747"/>
      <point x="347" y="737"/>
      <point x="235" y="789" type="curve" smooth="yes"/>
      <point x="228" y="792"/>
      <point x="223" y="797"/>
      <point x="222" y="806" type="curve" smooth="yes"/>
      <point x="199" y="956"/>
      <point x="290" y="1130"/>
      <point x="416" y="1130" type="curve" smooth="yes"/>
      <point x="519" y="1130"/>
      <point x="593" y="974"/>
      <point x="606" y="799" type="curve" smooth="yes"/>
      <point x="607" y="789"/>
      <point x="601" y="782"/>
      <point x="591" y="780" type="curve" smooth="yes"/>
    </contour>
  </outline>
</glyph>
<glyph name="percent-ar" format="1">
  <advance width="1025"/>
  <unicode hex="066A"/>
  <outline>
    <contour>
      <point x="850" y="1147" type="line"/>
      <point x="846" y="1216"/>
      <point x="827" y="1267"/>
      <point x="792" y="1309" type="curve"/>
      <point x="135" y="69" type="line"/>
      <point x="154" y="22"/>
      <point x="183" y="-17"/>
      <point x="218" y="-46" type="curve"/>
    </contour>
    <component base="period" xOffset="527" yOffset="107" xScale="0.803" yScale="0.803"/>
    <component base="period" xOffset="23" yOffset="906" xScale="0.803" yScale="0.803"/>
  </outline>
</glyph>
<glyph name="decimalseparator-ar" format="1">
  <advance width="754"/>
  <unicode hex="066B"/>
  <outline>
    <contour>
      <point x="201" y="-414"/>
      <point x="209" y="-409"/>
      <point x="212" y="-402" type="curve" smooth="yes"/>
      <point x="638" y="707" type="line" smooth="yes"/>
      <point x="643" y="719"/>
      <point x="636" y="733"/>
      <point x="623" y="734" type="curve" smooth="yes"/>
      <point x="562" y="741" type="line" smooth="yes"/>
      <point x="555" y="742"/>
      <point x="548" y="737"/>
      <point x="545" y="730" type="curve" smooth="yes"/>
      <point x="116" y="-379" type="line" smooth="yes"/>
      <point x="111" y="-392"/>
      <point x="118" y="-405"/>
      <point x="131" y="-406" type="curve" smooth="yes"/>
      <point x="194" y="-413" type="line" smooth="yes"/>
    </contour>
  </outline>
</glyph>
<glyph name="thousandseparator-ar" format="1">
  <advance width="593"/>
  <unicode hex="066C"/>
  <outline>
    <contour>
      <point x="197" y="16"/>
      <point x="203" y="20"/>
      <point x="206" y="26" type="curve" smooth="yes"/>
      <point x="476" y="564" type="line" smooth="yes"/>
      <point x="482" y="576"/>
      <point x="475" y="590"/>
      <point x="461" y="592" type="curve" smooth="yes"/>
      <point x="404" y="599" type="line" smooth="yes"/>
      <point x="397" y="600"/>
      <point x="391" y="596"/>
      <point x="388" y="590" type="curve" smooth="yes"/>
      <point x="117" y="53" type="line" smooth="yes"/>
      <point x="110" y="39"/>
      <point x="118" y="26"/>
      <point x="132" y="24" type="curve" smooth="yes"/>
      <point x="190" y="17" type="line" smooth="yes"/>
    </contour>
  </outline>
</glyph>
<glyph name="asterisk-ar" format="1">
  <advance width="840"/>
  <unicode hex="066D"/>
  <outline>
    <contour>
      <point x="424" y="351" type="line"/>
      <point x="597" y="220" type="line"/>
      <point x="619" y="239" type="line"/>
      <point x="541" y="437" type="line"/>
      <point x="725" y="555" type="line"/>
      <point x="716" y="584" type="line"/>
      <point x="498" y="574" type="line"/>
      <point x="434" y="787" type="line"/>
      <point x="406" y="787" type="line"/>
      <point x="353" y="574" type="line"/>
      <point x="124" y="581" type="line"/>
      <point x="115" y="555" type="line"/>
      <point x="309" y="436" type="line"/>
      <point x="235" y="228" type="line"/>
      <point x="255" y="212" type="line"/>
    </contour>
  </outline>
</glyph>
<glyph name="behDotless-ar" format="1">
  <advance width="1824"/>
  <unicode hex="066E"/>
  <outline>
    <contour>
      <point x="798" y="-56"/>
      <point x="967" y="-44"/>
      <point x="1141" y="-13" type="curve" smooth="yes"/>
      <point x="1443" y="35"/>
      <point x="1686" y="126"/>
      <point x="1686" y="412" type="curve" smooth="yes"/>
      <point x="1686" y="504"/>
      <point x="1616" y="788"/>
      <point x="1574" y="964" type="curve" smooth="yes"/>
      <point x="1571" y="976"/>
      <point x="1561" y="977"/>
      <point x="1551" y="968" type="curve" smooth="yes"/>
      <point x="1448" y="864" type="line" smooth="yes"/>
      <point x="1442" y="857"/>
      <point x="1440" y="850"/>
      <point x="1442" y="841" type="curve" smooth="yes"/>
      <point x="1570" y="292" type="line" smooth="yes"/>
      <point x="1572" y="282"/>
      <point x="1570" y="275"/>
      <point x="1559" y="270" type="curve" smooth="yes"/>
      <point x="1418" y="208"/>
      <point x="1068" y="126"/>
      <point x="750" y="132" type="curve" smooth="yes"/>
      <point x="480" y="137"/>
      <point x="256" y="212"/>
      <point x="279" y="443" type="curve" smooth="yes"/>
      <point x="293" y="587" type="line" smooth="yes"/>
      <point x="294" y="597"/>
      <point x="289" y="604"/>
      <point x="278" y="605" type="curve" smooth="yes"/>
      <point x="215" y="611" type="line" smooth="yes"/>
      <point x="205" y="612"/>
      <point x="197" y="605"/>
      <point x="195" y="595" type="curve" smooth="yes"/>
      <point x="178" y="443" type="line" smooth="yes"/>
      <point x="138" y="94"/>
      <point x="301" y="-43"/>
      <point x="666" y="-53" type="curve" smooth="yes"/>
    </contour>
    <contour>
      <point x="836" y="861" type="move" name="top"/>
    </contour>
    <contour>
      <point x="889" y="-227" type="move" name="bottom"/>
    </contour>
  </outline>
</glyph>
<glyph name="dotlessqaf-ar" format="1">
  <advance width="1631"/>
  <unicode hex="066F"/>
  <outline>
    <contour>
      <point x="814" y="-529"/>
      <point x="1295" y="-466"/>
      <point x="1429" y="-269" type="curve" smooth="yes"/>
      <point x="1483" y="-191"/>
      <point x="1488" y="-83"/>
      <point x="1493" y="57" type="curve" smooth="yes"/>
      <point x="1503" y="386"/>
      <point x="1340" y="802"/>
      <point x="1109" y="802" type="curve" smooth="yes"/>
      <point x="877" y="802"/>
      <point x="742" y="471"/>
      <point x="742" y="235" type="curve" smooth="yes"/>
      <point x="742" y="-125"/>
      <point x="1134" y="-83"/>
      <point x="1343" y="24" type="curve" smooth="yes"/>
      <point x="1355" y="30"/>
      <point x="1364" y="25"/>
      <point x="1363" y="12" type="curve" smooth="yes"/>
      <point x="1354" y="-190" type="line" smooth="yes"/>
      <point x="1354" y="-199"/>
      <point x="1348" y="-205"/>
      <point x="1339" y="-208" type="curve" smooth="yes"/>
      <point x="1273" y="-232"/>
      <point x="986" y="-328"/>
      <point x="641" y="-328" type="curve" smooth="yes"/>
      <point x="436" y="-328"/>
      <point x="283" y="-233"/>
      <point x="294" y="-8" type="curve" smooth="yes"/>
      <point x="296" y="14"/>
      <point x="299" y="37"/>
      <point x="343" y="275" type="curve" smooth="yes"/>
      <point x="345" y="286"/>
      <point x="339" y="294"/>
      <point x="329" y="297" type="curve" smooth="yes"/>
      <point x="251" y="313" type="line" smooth="yes"/>
      <point x="240" y="315"/>
      <point x="232" y="309"/>
      <point x="230" y="299" type="curve" smooth="yes"/>
      <point x="187" y="40" type="line" smooth="yes"/>
      <point x="129" y="-252"/>
      <point x="245" y="-529"/>
      <point x="613" y="-529" type="curve" smooth="yes"/>
    </contour>
    <contour>
      <point x="1175" y="131"/>
      <point x="1012" y="116"/>
      <point x="877" y="177" type="curve" smooth="yes"/>
      <point x="868" y="181"/>
      <point x="866" y="187"/>
      <point x="865" y="197" type="curve" smooth="yes"/>
      <point x="854" y="370"/>
      <point x="919" y="611"/>
      <point x="1068" y="611" type="curve" smooth="yes"/>
      <point x="1199" y="611"/>
      <point x="1336" y="396"/>
      <point x="1354" y="189" type="curve" smooth="yes"/>
      <point x="1355" y="178"/>
      <point x="1349" y="171"/>
      <point x="1339" y="169" type="curve" smooth="yes"/>
    </contour>
    <contour>
      <point x="1025" y="993" type="move" name="top"/>
    </contour>
    <contour>
      <point x="766" y="-702" type="move" name="bottom"/>
    </contour>
  </outline>
</glyph>
<glyph name="alefabove-ar" format="1">
  <advance width="0"/>
  <unicode hex="0670"/>
  <outline>
    <contour>
      <point x="110" y="1106" type="line" smooth="yes"/>
      <point x="113" y="1108"/>
      <point x="114" y="1111"/>
      <point x="114" y="1113" type="curve" smooth="yes"/>
      <point x="112" y="1525" type="line" smooth="yes"/>
      <point x="112" y="1529"/>
      <point x="109" y="1531"/>
      <point x="105" y="1529" type="curve" smooth="yes"/>
      <point x="5" y="1472" type="line" smooth="yes"/>
      <point x="1" y="1470"/>
      <point x="0" y="1467"/>
      <point x="0" y="1465" type="curve" smooth="yes"/>
      <point x="26" y="1052" type="line" smooth="yes"/>
      <point x="26" y="1048"/>
      <point x="28" y="1046"/>
      <point x="33" y="1049" type="curve" smooth="yes"/>
    </contour>
    <contour>
      <point x="57" y="1703" type="move" name="top"/>
    </contour>
    <contour>
      <point x="57" y="1047" type="move" name="_top"/>
    </contour>
  </outline>
</glyph>
<glyph name="highhamza-ar" format="1">
  <advance width="0"/>
  <unicode hex="0674"/>
  <outline>
    <component base="hamzacenter-ar" xOffset="-3"/>
    <contour>
      <point x="283" y="1360" type="move" name="top"/>
    </contour>
    <contour>
      <point x="283" y="362" type="move" name="bottom"/>
    </contour>
  </outline>
</glyph>
<glyph name="hahThreedotsabove-ar" format="1">
  <advance width="1438"/>
  <unicode hex="0685"/>
  <outline>
    <component base="hah-ar"/>
    <component base="threedotsupabove-ar" xOffset="186" yOffset="401"/>
    <contour>
      <point x="805" y="-945" type="move" name="bottom"/>
    </contour>
  </outline>
</glyph>
<glyph name="hahThreedotsabove-ar" format="1">
  <advance width="1438"/>
  <unicode hex="0685"/>
  <outline>
    <contour>
      <point x="805" y="-945" type="move" name="bottom"/>
    </contour>
    <component base="hah-ar"/>
    <component base="threedotsupabove-ar" xOffset="186" yOffset="401"/>
  </outline>
</glyph>
<glyph name="dul-ar" format="1">
  <advance width="1129"/>
  <unicode hex="068E"/>
  <outline>
    <component base="dal-ar"/>
    <component base="threedotsupabove-ar" xOffset="338" yOffset="517"/>
    <contour>
      <point x="514" y="-230" type="move" name="bottom"/>
    </contour>
  </outline>
</glyph>
<glyph name="jeh-ar" format="1">
  <advance width="918"/>
  <unicode hex="0698"/>
  <outline>
    <component base="reh-ar"/>
    <component base="threedotsupabove-ar" xOffset="302" yOffset="335"/>
    <contour>
      <point x="299" y="-650" type="move" name="bottom"/>
    </contour>
  </outline>
</glyph>
<glyph name="seenDotbelowDotabove-ar" format="1">
  <advance width="2648"/>
  <unicode hex="069A"/>
  <outline>
    <component base="seen-ar"/>
    <component base="dotabove-ar" xOffset="1730" yOffset="-8"/>
    <component base="dotcenter-ar" xOffset="1815" yOffset="-941"/>
    <contour>
      <point x="742" y="713" type="move" name="top"/>
    </contour>
    <contour>
      <point x="705" y="-665" type="move" name="bottom"/>
    </contour>
  </outline>
</glyph>
<glyph name="seenDotbelowDotabove-ar" format="1">
  <advance width="2648"/>
  <unicode hex="069A"/>
  <outline>
    <contour>
      <point x="705" y="-665" type="move" name="bottom"/>
    </contour>
    <contour>
      <point x="742" y="713" type="move" name="top"/>
    </contour>
    <component base="seen-ar"/>
    <component base="dotabove-ar" xOffset="1730" yOffset="-8"/>
    <component base="dotcenter-ar" xOffset="1815" yOffset="-941"/>
  </outline>
</glyph>
<glyph name="fehDotless-ar" format="1">
  <advance width="1846"/>
  <unicode hex="06A1"/>
  <outline>
    <contour>
      <point x="902" y="-47"/>
      <point x="1176" y="1"/>
      <point x="1381" y="54" type="curve" smooth="yes"/>
      <point x="1688" y="135"/>
      <point x="1708" y="338"/>
      <point x="1708" y="506" type="curve"/>
      <point x="1690" y="800"/>
      <point x="1544" y="1116"/>
      <point x="1355" y="1116" type="curve" smooth="yes"/>
      <point x="1124" y="1116"/>
      <point x="1011" y="831"/>
      <point x="1011" y="595" type="curve" smooth="yes"/>
      <point x="1011" y="289"/>
      <point x="1382" y="322"/>
      <point x="1563" y="409" type="curve" smooth="yes"/>
      <point x="1579" y="417"/>
      <point x="1594" y="408"/>
      <point x="1595" y="390" type="curve" smooth="yes"/>
      <point x="1598" y="296" type="line"/>
      <point x="1474" y="236"/>
      <point x="1081" y="138"/>
      <point x="750" y="144" type="curve" smooth="yes"/>
      <point x="480" y="148"/>
      <point x="258" y="223"/>
      <point x="279" y="454" type="curve" smooth="yes"/>
      <point x="293" y="596" type="line" smooth="yes"/>
      <point x="294" y="606"/>
      <point x="288" y="613"/>
      <point x="277" y="614" type="curve" smooth="yes"/>
      <point x="214" y="620" type="line" smooth="yes"/>
      <point x="204" y="621"/>
      <point x="195" y="614"/>
      <point x="194" y="604" type="curve" smooth="yes"/>
      <point x="178" y="454" type="line" smooth="yes"/>
      <point x="139" y="106"/>
      <point x="301" y="-31"/>
      <point x="666" y="-41" type="curve" smooth="yes"/>
    </contour>
    <contour>
      <point x="1129" y="559"/>
      <point x="1112" y="574"/>
      <point x="1112" y="580" type="curve" smooth="yes"/>
      <point x="1114" y="773"/>
      <point x="1187" y="925"/>
      <point x="1314" y="925" type="curve" smooth="yes"/>
      <point x="1428" y="925"/>
      <point x="1543" y="743"/>
      <point x="1578" y="558" type="curve"/>
      <point x="1580" y="550"/>
      <point x="1332" y="488"/>
      <point x="1163" y="547" type="curve" smooth="yes"/>
    </contour>
    <contour>
      <point x="1350" y="1293" type="move" name="top"/>
    </contour>
    <contour>
      <point x="848" y="-216" type="move" name="bottom"/>
    </contour>
  </outline>
</glyph>
<glyph name="veh-ar" format="1">
  <advance width="1846"/>
  <unicode hex="06A4"/>
  <outline>
    <contour>
      <point x="848" y="-216" type="move" name="bottom"/>
    </contour>
    <component base="dotlessfeh-ar"/>
    <component base="threedotsupabove-ar" xOffset="1089" yOffset="652"/>
  </outline>
</glyph>
<glyph name="keheh-ar" format="1">
  <advance width="1703"/>
  <unicode hex="06A9"/>
  <outline>
    <contour>
      <point x="1025" y="-39"/>
      <point x="1349" y="46"/>
      <point x="1494" y="110" type="curve" smooth="yes"/>
      <point x="1497" y="111"/>
      <point x="1499" y="116"/>
      <point x="1503" y="124" type="curve" smooth="yes"/>
      <point x="1539" y="202"/>
      <point x="1572" y="315"/>
      <point x="1564" y="373" type="curve" smooth="yes"/>
      <point x="1525" y="647"/>
      <point x="1243" y="952"/>
      <point x="1044" y="1058" type="curve" smooth="yes"/>
      <point x="1030" y="1066"/>
      <point x="1033" y="1077"/>
      <point x="1047" y="1081" type="curve" smooth="yes"/>
      <point x="1702" y="1287" type="line" smooth="yes"/>
      <point x="1711" y="1290"/>
      <point x="1717" y="1295"/>
      <point x="1718" y="1305" type="curve" smooth="yes"/>
      <point x="1736" y="1450" type="line" smooth="yes"/>
      <point x="1738" y="1463"/>
      <point x="1731" y="1470"/>
      <point x="1718" y="1466" type="curve" smooth="yes"/>
      <point x="1033" y="1236" type="line" smooth="yes"/>
      <point x="1023" y="1233"/>
      <point x="1019" y="1229"/>
      <point x="1015" y="1221" type="curve" smooth="yes"/>
      <point x="895" y="969" type="line" smooth="yes"/>
      <point x="891" y="960"/>
      <point x="893" y="951"/>
      <point x="903" y="946" type="curve" smooth="yes"/>
      <point x="1281" y="742"/>
      <point x="1432" y="450"/>
      <point x="1478" y="293" type="curve" smooth="yes"/>
      <point x="1481" y="283"/>
      <point x="1478" y="277"/>
      <point x="1467" y="273" type="curve" smooth="yes"/>
      <point x="1346" y="223"/>
      <point x="1067" y="150"/>
      <point x="750" y="155" type="curve" smooth="yes"/>
      <point x="480" y="160"/>
      <point x="256" y="235"/>
      <point x="279" y="466" type="curve" smooth="yes"/>
      <point x="293" y="607" type="line" smooth="yes"/>
      <point x="294" y="618"/>
      <point x="288" y="625"/>
      <point x="277" y="626" type="curve" smooth="yes"/>
      <point x="214" y="631" type="line" smooth="yes"/>
      <point x="204" y="632"/>
      <point x="195" y="626"/>
      <point x="194" y="615" type="curve" smooth="yes"/>
      <point x="178" y="466" type="line" smooth="yes"/>
      <point x="141" y="117"/>
      <point x="301" y="-20"/>
      <point x="666" y="-30" type="curve" smooth="yes"/>
    </contour>
    <contour>
      <point x="603" y="1081" type="move" name="top"/>
    </contour>
    <contour>
      <point x="785" y="-202" type="move" name="bottom"/>
    </contour>
  </outline>
</glyph>
<glyph name="ng-ar" format="1">
  <advance width="1500"/>
  <unicode hex="06AD"/>
  <outline>
    <contour>
      <point x="775" y="-215" type="move" name="bottom"/>
    </contour>
    <component base="kaf-ar"/>
    <component base="threedotsupabove-ar" xOffset="461" yOffset="287"/>
  </outline>
</glyph>
<glyph name="noonghunna-ar" format="1">
  <advance width="1497"/>
  <unicode hex="06BA"/>
  <outline>
    <contour>
      <point x="818" y="-531"/>
      <point x="1196" y="-427"/>
      <point x="1316" y="-271" type="curve" smooth="yes"/>
      <point x="1370" y="-201"/>
      <point x="1366" y="-125"/>
      <point x="1349" y="6" type="curve" smooth="yes"/>
      <point x="1278" y="569" type="line" smooth="yes"/>
      <point x="1276" y="588"/>
      <point x="1259" y="593"/>
      <point x="1245" y="583" type="curve" smooth="yes"/>
      <point x="1134" y="501" type="line" smooth="yes"/>
      <point x="1130" y="498"/>
      <point x="1128" y="492"/>
      <point x="1129" y="486" type="curve" smooth="yes"/>
      <point x="1236" y="-177" type="line" smooth="yes"/>
      <point x="1237" y="-184"/>
      <point x="1232" y="-190"/>
      <point x="1226" y="-194" type="curve" smooth="yes"/>
      <point x="1167" y="-233"/>
      <point x="929" y="-330"/>
      <point x="619" y="-330" type="curve" smooth="yes"/>
      <point x="393" y="-330"/>
      <point x="249" y="-215"/>
      <point x="305" y="61" type="curve" smooth="yes"/>
      <point x="339" y="228" type="line" smooth="yes"/>
      <point x="341" y="239"/>
      <point x="334" y="246"/>
      <point x="323" y="248" type="curve" smooth="yes"/>
      <point x="250" y="259" type="line" smooth="yes"/>
      <point x="240" y="261"/>
      <point x="232" y="255"/>
      <point x="230" y="245" type="curve" smooth="yes"/>
      <point x="189" y="38" type="line" smooth="yes"/>
      <point x="131" y="-254"/>
      <point x="223" y="-531"/>
      <point x="591" y="-531" type="curve" smooth="yes"/>
    </contour>
    <contour>
      <point x="707" y="422" type="move" name="top"/>
    </contour>
    <contour>
      <point x="734" y="-704" type="move" name="bottom"/>
    </contour>
  </outline>
</glyph>
<glyph name="hehDoachashmee-ar" format="1">
  <advance width="1386"/>
  <unicode hex="06BE"/>
  <outline>
    <contour>
      <point x="334" y="3"/>
      <point x="385" y="36"/>
      <point x="466" y="154" type="curve" smooth="yes"/>
      <point x="584" y="325" type="line" smooth="yes"/>
      <point x="590" y="334"/>
      <point x="597" y="336"/>
      <point x="606" y="335" type="curve" smooth="yes"/>
      <point x="1157" y="247" type="line" smooth="yes"/>
      <point x="1166" y="246"/>
      <point x="1174" y="250"/>
      <point x="1178" y="259" type="curve" smooth="yes"/>
      <point x="1336" y="607"/>
      <point x="1247" y="833"/>
      <point x="689" y="1319" type="curve" smooth="yes"/>
      <point x="679" y="1327"/>
      <point x="671" y="1328"/>
      <point x="665" y="1316" type="curve" smooth="yes"/>
      <point x="583" y="1160" type="line" smooth="yes"/>
      <point x="579" y="1152"/>
      <point x="574" y="1148"/>
      <point x="566" y="1145" type="curve" smooth="yes"/>
      <point x="384" y="1072"/>
      <point x="194" y="808"/>
      <point x="184" y="605" type="curve" smooth="yes"/>
      <point x="178" y="490"/>
      <point x="237" y="382"/>
      <point x="392" y="332" type="curve" smooth="yes"/>
      <point x="405" y="328"/>
      <point x="409" y="319"/>
      <point x="400" y="309" type="curve" smooth="yes"/>
      <point x="198" y="68" type="line" smooth="yes"/>
      <point x="190" y="59"/>
      <point x="192" y="49"/>
      <point x="205" y="45" type="curve" smooth="yes"/>
    </contour>
    <contour>
      <point x="358" y="536"/>
      <point x="291" y="603"/>
      <point x="294" y="696" type="curve" smooth="yes"/>
      <point x="301" y="934"/>
      <point x="628" y="1066"/>
      <point x="738" y="875" type="curve" smooth="yes"/>
      <point x="743" y="866"/>
      <point x="743" y="860"/>
      <point x="738" y="852" type="curve" smooth="yes"/>
      <point x="545" y="509" type="line" smooth="yes"/>
      <point x="540" y="500"/>
      <point x="534" y="498"/>
      <point x="523" y="500" type="curve" smooth="yes"/>
    </contour>
    <contour>
      <point x="725" y="505" type="line" smooth="yes"/>
      <point x="713" y="507"/>
      <point x="708" y="515"/>
      <point x="712" y="526" type="curve" smooth="yes"/>
      <point x="838" y="894" type="line" smooth="yes"/>
      <point x="842" y="906"/>
      <point x="852" y="908"/>
      <point x="861" y="899" type="curve" smooth="yes"/>
      <point x="979" y="783"/>
      <point x="1142" y="581"/>
      <point x="1148" y="440" type="curve" smooth="yes"/>
      <point x="1148" y="429"/>
      <point x="1141" y="423"/>
      <point x="1129" y="425" type="curve" smooth="yes"/>
    </contour>
    <contour>
      <point x="721" y="1495" type="move" name="top"/>
    </contour>
    <contour>
      <point x="689" y="-141" type="move" name="bottom"/>
    </contour>
  </outline>
</glyph>
<glyph name="tehMarbutagoal-ar" format="1">
  <advance width="999"/>
  <unicode hex="06C3"/>
  <outline>
    <component base="heh-ar"/>
    <component base="twodotshorizontalabove-ar" xOffset="148" yOffset="192"/>
    <contour>
      <point x="468" y="-198" type="move" name="bottom"/>
    </contour>
  </outline>
</glyph>
<glyph name="tehMarbutagoal-ar" format="1">
  <advance width="1037"/>
  <unicode hex="06C3"/>
  <outline>
    <contour>
      <point x="468" y="-198" type="move" name="bottom"/>
    </contour>
    <component base="heh-ar"/>
    <component base="twodotshorizontalabove-ar" xOffset="148" yOffset="192"/>
  </outline>
</glyph>
<glyph name="wawTwodots-ar" format="1">
  <advance width="1040"/>
  <unicode hex="06CA"/>
  <outline>
    <component base="waw-ar"/>
    <component base="twodotshorizontalabove-ar" xOffset="255" yOffset="156"/>
    <contour>
      <point x="422" y="-720" type="move" name="bottom"/>
    </contour>
  </outline>
</glyph>
<glyph name="ve-ar" format="1">
  <advance width="1040"/>
  <unicode hex="06CB"/>
  <outline>
    <contour>
      <point x="422" y="-720" type="move" name="bottom"/>
    </contour>
    <component base="waw-ar"/>
    <component base="threedotsupabove-ar" xOffset="265" yOffset="389"/>
  </outline>
</glyph>
<glyph name="yehTail-ar" format="1">
  <advance width="2061"/>
  <unicode hex="06CD"/>
  <outline>
    <contour>
      <point x="1400" y="-611"/>
      <point x="1933" y="-392"/>
      <point x="1923" y="-106" type="curve" smooth="yes"/>
      <point x="1920" y="-30"/>
      <point x="1878" y="-2"/>
      <point x="1742" y="9" type="curve" smooth="yes"/>
      <point x="1508" y="30" type="line" smooth="yes"/>
      <point x="1375" y="45"/>
      <point x="1300" y="86"/>
      <point x="1319" y="151" type="curve"/>
      <point x="1377" y="284"/>
      <point x="1489" y="397"/>
      <point x="1585" y="461" type="curve" smooth="yes"/>
      <point x="1665" y="515"/>
      <point x="1726" y="503"/>
      <point x="1785" y="470" type="curve" smooth="yes"/>
      <point x="1795" y="465"/>
      <point x="1803" y="468"/>
      <point x="1808" y="480" type="curve" smooth="yes"/>
      <point x="1858" y="591" type="line" smooth="yes"/>
      <point x="1862" y="599"/>
      <point x="1862" y="607"/>
      <point x="1856" y="615" type="curve" smooth="yes"/>
      <point x="1824" y="662"/>
      <point x="1765" y="682"/>
      <point x="1707" y="682" type="curve" smooth="yes"/>
      <point x="1555" y="682"/>
      <point x="1347" y="470"/>
      <point x="1257" y="251" type="curve" smooth="yes"/>
      <point x="1143" y="-29"/>
      <point x="1194" y="-128"/>
      <point x="1457" y="-154" type="curve" smooth="yes"/>
      <point x="1822" y="-190" type="line"/>
      <point x="1604" y="-335"/>
      <point x="1329" y="-416"/>
      <point x="1098" y="-413" type="curve" smooth="yes"/>
      <point x="873" y="-409"/>
      <point x="723" y="-320"/>
      <point x="730" y="-68" type="curve" smooth="yes"/>
      <point x="736" y="131"/>
      <point x="792" y="302"/>
      <point x="653" y="259" type="curve" smooth="yes"/>
      <point x="179" y="113" type="line" smooth="yes"/>
      <point x="175" y="112"/>
      <point x="173" y="109"/>
      <point x="173" y="103" type="curve" smooth="yes"/>
      <point x="173" y="91"/>
      <point x="255" y="-55"/>
      <point x="377" y="-23" type="curve" smooth="yes"/>
      <point x="434" y="-8"/>
      <point x="534" y="30"/>
      <point x="635" y="64" type="curve"/>
      <point x="566" y="-371"/>
      <point x="667" y="-611"/>
      <point x="1082" y="-611" type="curve" smooth="yes"/>
    </contour>
    <contour>
      <point x="927" y="518" type="move" name="top"/>
    </contour>
    <contour>
      <point x="1078" y="-790" type="move" name="bottom"/>
    </contour>
  </outline>
</glyph>
<glyph name="e-ar" format="1">
  <advance width="1630"/>
  <unicode hex="06D0"/>
  <outline>
    <contour>
      <point x="560" y="595" type="move" name="top"/>
    </contour>
    <component base="alefMaksura-ar"/>
    <component base="twodotsverticalbelow-ar" xOffset="574" yOffset="-728"/>
  </outline>
</glyph>
<glyph name="yehbarree-ar" format="1">
  <advance width="1850"/>
  <unicode hex="06D2"/>
  <outline>
    <contour>
      <point x="1711" y="-61" type="line"/>
      <point x="1709" y="15"/>
      <point x="1738" y="122"/>
      <point x="1602" y="122" type="curve" smooth="yes"/>
      <point x="447" y="123" type="line" smooth="yes"/>
      <point x="314" y="123"/>
      <point x="260" y="166"/>
      <point x="285" y="235" type="curve" smooth="yes"/>
      <point x="330" y="357"/>
      <point x="679" y="436"/>
      <point x="812" y="657" type="curve" smooth="yes"/>
      <point x="826" y="680"/>
      <point x="918" y="614"/>
      <point x="944" y="600" type="curve" smooth="yes"/>
      <point x="954" y="595"/>
      <point x="962" y="599"/>
      <point x="967" y="610" type="curve" smooth="yes"/>
      <point x="1018" y="721" type="line" smooth="yes"/>
      <point x="1021" y="729"/>
      <point x="1021" y="737"/>
      <point x="1015" y="745" type="curve" smooth="yes"/>
      <point x="983" y="792"/>
      <point x="868" y="867"/>
      <point x="815" y="841" type="curve" smooth="yes"/>
      <point x="743" y="805"/>
      <point x="762" y="721"/>
      <point x="532" y="590" type="curve" smooth="yes"/>
      <point x="379" y="504"/>
      <point x="282" y="431"/>
      <point x="220" y="286" type="curve" smooth="yes"/>
      <point x="123" y="68"/>
      <point x="173" y="-61"/>
      <point x="397" y="-61" type="curve" smooth="yes"/>
    </contour>
    <contour>
      <point x="843" y="1013" type="move" name="top"/>
    </contour>
    <contour>
      <point x="923" y="-230" type="move" name="bottom"/>
    </contour>
  </outline>
</glyph>
<glyph name="fullstop-ar" format="1">
  <advance width="767"/>
  <unicode hex="06D4"/>
  <outline>
    <contour>
      <point x="611" y="320" type="line" smooth="yes"/>
      <point x="619" y="320"/>
      <point x="626" y="325"/>
      <point x="627" y="332" type="curve" smooth="yes"/>
      <point x="652" y="446" type="line" smooth="yes"/>
      <point x="654" y="459"/>
      <point x="646" y="469"/>
      <point x="634" y="469" type="curve" smooth="yes"/>
      <point x="156" y="469" type="line" smooth="yes"/>
      <point x="148" y="469"/>
      <point x="141" y="463"/>
      <point x="140" y="457" type="curve" smooth="yes"/>
      <point x="115" y="343" type="line" smooth="yes"/>
      <point x="113" y="330"/>
      <point x="121" y="320"/>
      <point x="133" y="320" type="curve" smooth="yes"/>
    </contour>
  </outline>
</glyph>
<glyph name="sadLamAlefMaksuraabove-ar" format="1">
  <advance width="0"/>
  <unicode hex="06D6"/>
  <outline>
    <contour>
      <point x="446" y="1359"/>
      <point x="1120" y="1366"/>
      <point x="1355" y="1378" type="curve" smooth="yes"/>
      <point x="1371" y="1379"/>
      <point x="1381" y="1382"/>
      <point x="1385" y="1392" type="curve" smooth="yes"/>
      <point x="1398" y="1424" type="line" smooth="yes"/>
      <point x="1402" y="1433"/>
      <point x="1403" y="1439"/>
      <point x="1401" y="1442" type="curve" smooth="yes"/>
      <point x="1398" y="1446"/>
      <point x="1393" y="1447"/>
      <point x="1383" y="1446" type="curve" smooth="yes"/>
      <point x="1190" y="1435"/>
      <point x="511" y="1425"/>
      <point x="355" y="1421" type="curve" smooth="yes"/>
      <point x="237" y="1419"/>
      <point x="153" y="1415"/>
      <point x="56" y="1438" type="curve" smooth="yes"/>
      <point x="45" y="1441"/>
      <point x="41" y="1448"/>
      <point x="45" y="1459" type="curve" smooth="yes"/>
      <point x="83" y="1561"/>
      <point x="185" y="1594"/>
      <point x="297" y="1618" type="curve" smooth="yes"/>
      <point x="306" y="1620"/>
      <point x="311" y="1624"/>
      <point x="315" y="1632" type="curve" smooth="yes"/>
      <point x="337" y="1672" type="line" smooth="yes"/>
      <point x="344" y="1685"/>
      <point x="352" y="1685"/>
      <point x="360" y="1671" type="curve" smooth="yes"/>
      <point x="411" y="1579"/>
      <point x="527" y="1564"/>
      <point x="592" y="1639" type="curve" smooth="yes"/>
      <point x="599" y="1647"/>
      <point x="606" y="1648"/>
      <point x="615" y="1644" type="curve" smooth="yes"/>
      <point x="665" y="1623"/>
      <point x="737" y="1610"/>
      <point x="806" y="1611" type="curve" smooth="yes"/>
      <point x="911" y="1611"/>
      <point x="1002" y="1641"/>
      <point x="1064" y="1695" type="curve" smooth="yes"/>
      <point x="1091" y="1725"/>
      <point x="1101" y="1758"/>
      <point x="1099" y="1777" type="curve" smooth="yes"/>
      <point x="1094" y="1827"/>
      <point x="1004" y="1914"/>
      <point x="927" y="1915" type="curve" smooth="yes"/>
      <point x="864" y="1915"/>
      <point x="802" y="1862"/>
      <point x="675" y="1710" type="curve" smooth="yes"/>
      <point x="668" y="1702"/>
      <point x="660" y="1701"/>
      <point x="651" y="1704" type="curve" smooth="yes"/>
      <point x="622" y="1715" type="line" smooth="yes"/>
      <point x="613" y="1718"/>
      <point x="605" y="1716"/>
      <point x="599" y="1708" type="curve" smooth="yes"/>
      <point x="543" y="1634"/>
      <point x="463" y="1651"/>
      <point x="411" y="1704" type="curve" smooth="yes"/>
      <point x="376" y="1739"/>
      <point x="358" y="1797"/>
      <point x="352" y="1975" type="curve" smooth="yes"/>
      <point x="340" y="2214" type="line" smooth="yes"/>
      <point x="340" y="2222"/>
      <point x="339" y="2228"/>
      <point x="337" y="2230" type="curve" smooth="yes"/>
      <point x="335" y="2232"/>
      <point x="329" y="2229"/>
      <point x="321" y="2223" type="curve" smooth="yes"/>
      <point x="289" y="2197" type="line" smooth="yes"/>
      <point x="282" y="2191"/>
      <point x="278" y="2185"/>
      <point x="279" y="2176" type="curve" smooth="yes"/>
      <point x="307" y="1701" type="line" smooth="yes"/>
      <point x="308" y="1689"/>
      <point x="302" y="1683"/>
      <point x="292" y="1681" type="curve" smooth="yes"/>
      <point x="158" y="1651"/>
      <point x="46" y="1618"/>
      <point x="2" y="1439" type="curve" smooth="yes"/>
      <point x="-12" y="1380"/>
      <point x="40" y="1363"/>
      <point x="99" y="1356" type="curve" smooth="yes"/>
      <point x="182" y="1346"/>
      <point x="254" y="1351"/>
      <point x="346" y="1355" type="curve" smooth="yes"/>
    </contour>
    <contour>
      <point x="715" y="1687"/>
      <point x="712" y="1697"/>
      <point x="722" y="1708" type="curve" smooth="yes"/>
      <point x="810" y="1811"/>
      <point x="856" y="1843"/>
      <point x="897" y="1843" type="curve" smooth="yes"/>
      <point x="958" y="1843"/>
      <point x="1012" y="1786"/>
      <point x="1035" y="1758" type="curve" smooth="yes"/>
      <point x="1043" y="1749"/>
      <point x="1041" y="1740"/>
      <point x="1029" y="1734" type="curve" smooth="yes"/>
      <point x="933" y="1685"/>
      <point x="841" y="1672"/>
      <point x="730" y="1685" type="curve" smooth="yes"/>
    </contour>
    <contour>
      <point x="705" y="2331" type="move" name="top"/>
    </contour>
    <contour>
      <point x="705" y="1350" type="move" name="_top"/>
    </contour>
  </outline>
</glyph>
<glyph name="qafLamAlefMaksuraabove-ar" format="1">
  <advance width="0"/>
  <unicode hex="06D7"/>
  <outline>
    <contour>
      <point x="491" y="1543"/>
      <point x="691" y="1550"/>
      <point x="889" y="1562" type="curve" smooth="yes"/>
      <point x="907" y="1563"/>
      <point x="918" y="1566"/>
      <point x="921" y="1575" type="curve" smooth="yes"/>
      <point x="934" y="1604" type="line" smooth="yes"/>
      <point x="937" y="1613"/>
      <point x="940" y="1618"/>
      <point x="937" y="1620" type="curve" smooth="yes"/>
      <point x="931" y="1628"/>
      <point x="926" y="1631"/>
      <point x="917" y="1630" type="curve" smooth="yes"/>
      <point x="770" y="1618"/>
      <point x="554" y="1609"/>
      <point x="401" y="1605" type="curve" smooth="yes"/>
      <point x="276" y="1603"/>
      <point x="144" y="1597"/>
      <point x="39" y="1626" type="curve"/>
      <point x="71" y="1741"/>
      <point x="223" y="1777"/>
      <point x="343" y="1802" type="curve" smooth="yes"/>
      <point x="352" y="1804"/>
      <point x="357" y="1808"/>
      <point x="361" y="1816" type="curve" smooth="yes"/>
      <point x="394" y="1879" type="line"/>
      <point x="452" y="1734"/>
      <point x="753" y="1740"/>
      <point x="772" y="1914" type="curve" smooth="yes"/>
      <point x="783" y="2034"/>
      <point x="722" y="2220"/>
      <point x="636" y="2220" type="curve" smooth="yes"/>
      <point x="549" y="2220"/>
      <point x="506" y="2080"/>
      <point x="506" y="1989" type="curve" smooth="yes"/>
      <point x="506" y="1857"/>
      <point x="667" y="1888"/>
      <point x="730" y="1925" type="curve"/>
      <point x="729" y="1879" type="line"/>
      <point x="641" y="1828"/>
      <point x="477" y="1823"/>
      <point x="428" y="1938" type="curve" smooth="yes"/>
      <point x="413" y="1972"/>
      <point x="406" y="2015"/>
      <point x="389" y="2394" type="curve" smooth="yes"/>
      <point x="389" y="2404"/>
      <point x="383" y="2418"/>
      <point x="376" y="2412" type="curve" smooth="yes"/>
      <point x="335" y="2381" type="line" smooth="yes"/>
      <point x="328" y="2375"/>
      <point x="325" y="2369"/>
      <point x="325" y="2360" type="curve" smooth="yes"/>
      <point x="354" y="1869" type="line"/>
      <point x="212" y="1838"/>
      <point x="47" y="1809"/>
      <point x="2" y="1623" type="curve" smooth="yes"/>
      <point x="-12" y="1564"/>
      <point x="40" y="1547"/>
      <point x="99" y="1540" type="curve" smooth="yes"/>
      <point x="182" y="1529"/>
      <point x="300" y="1535"/>
      <point x="392" y="1539" type="curve" smooth="yes"/>
    </contour>
    <contour>
      <point x="722" y="1972"/>
      <point x="606" y="1943"/>
      <point x="544" y="1980" type="curve"/>
      <point x="544" y="2056"/>
      <point x="572" y="2142"/>
      <point x="621" y="2142" type="curve" smooth="yes"/>
      <point x="665" y="2142"/>
      <point x="705" y="2042"/>
      <point x="721" y="1976" type="curve"/>
    </contour>
    <contour>
      <point x="473" y="2542" type="move" name="top"/>
    </contour>
    <contour>
      <point x="473" y="1534" type="move" name="_top"/>
    </contour>
  </outline>
</glyph>
<glyph name="endofayah-ar" format="1">
  <advance width="3026"/>
  <unicode hex="06DD"/>
  <outline>
    <contour>
      <point x="1609" y="-984" type="line" smooth="yes"/>
      <point x="1619" y="-984"/>
      <point x="1626" y="-977"/>
      <point x="1626" y="-967" type="curve" smooth="yes"/>
      <point x="1626" y="-776" type="line" smooth="yes"/>
      <point x="1626" y="-766"/>
      <point x="1632" y="-760"/>
      <point x="1642" y="-759" type="curve" smooth="yes"/>
      <point x="2339" y="-702"/>
      <point x="2888" y="-117"/>
      <point x="2888" y="593" type="curve" smooth="yes"/>
      <point x="2888" y="1304"/>
      <point x="2339" y="1887"/>
      <point x="1642" y="1945" type="curve" smooth="yes"/>
      <point x="1632" y="1946"/>
      <point x="1626" y="1952"/>
      <point x="1626" y="1962" type="curve" smooth="yes"/>
      <point x="1626" y="2153" type="line" smooth="yes"/>
      <point x="1626" y="2163"/>
      <point x="1619" y="2170"/>
      <point x="1609" y="2170" type="curve" smooth="yes"/>
      <point x="1450" y="2170" type="line" smooth="yes"/>
      <point x="1440" y="2170"/>
      <point x="1433" y="2163"/>
      <point x="1433" y="2153" type="curve" smooth="yes"/>
      <point x="1433" y="1963" type="line" smooth="yes"/>
      <point x="1433" y="1953"/>
      <point x="1427" y="1947"/>
      <point x="1417" y="1946" type="curve" smooth="yes"/>
      <point x="720" y="1888"/>
      <point x="173" y="1304"/>
      <point x="173" y="593" type="curve" smooth="yes"/>
      <point x="173" y="-117"/>
      <point x="720" y="-703"/>
      <point x="1417" y="-760" type="curve" smooth="yes"/>
      <point x="1427" y="-761"/>
      <point x="1433" y="-767"/>
      <point x="1433" y="-777" type="curve" smooth="yes"/>
      <point x="1433" y="-967" type="line" smooth="yes"/>
      <point x="1433" y="-977"/>
      <point x="1440" y="-984"/>
      <point x="1450" y="-984" type="curve" smooth="yes"/>
    </contour>
    <contour>
      <point x="1461" y="-644"/>
      <point x="1406" y="-591"/>
      <point x="1406" y="-522" type="curve" smooth="yes"/>
      <point x="1406" y="-453"/>
      <point x="1461" y="-394"/>
      <point x="1529" y="-394" type="curve" smooth="yes"/>
      <point x="1598" y="-394"/>
      <point x="1656" y="-453"/>
      <point x="1656" y="-522" type="curve" smooth="yes"/>
      <point x="1656" y="-591"/>
      <point x="1598" y="-644"/>
      <point x="1529" y="-644" type="curve" smooth="yes"/>
    </contour>
    <contour>
      <point x="469" y="-83"/>
      <point x="316" y="232"/>
      <point x="316" y="593" type="curve" smooth="yes"/>
      <point x="316" y="954"/>
      <point x="469" y="1281"/>
      <point x="726" y="1501" type="curve" smooth="yes"/>
      <point x="734" y="1508"/>
      <point x="742" y="1510"/>
      <point x="751" y="1501" type="curve" smooth="yes"/>
      <point x="775" y="1477" type="line" smooth="yes"/>
      <point x="806" y="1446"/>
      <point x="836" y="1443"/>
      <point x="871" y="1471" type="curve" smooth="yes"/>
      <point x="1009" y="1581"/>
      <point x="1232" y="1661"/>
      <point x="1517" y="1438" type="curve" smooth="yes"/>
      <point x="1525" y="1432"/>
      <point x="1534" y="1431"/>
      <point x="1542" y="1438" type="curve" smooth="yes"/>
      <point x="1828" y="1661"/>
      <point x="2052" y="1581"/>
      <point x="2190" y="1471" type="curve" smooth="yes"/>
      <point x="2224" y="1443"/>
      <point x="2254" y="1446"/>
      <point x="2285" y="1477" type="curve" smooth="yes"/>
      <point x="2309" y="1501" type="line" smooth="yes"/>
      <point x="2318" y="1510"/>
      <point x="2326" y="1508"/>
      <point x="2335" y="1501" type="curve" smooth="yes"/>
      <point x="2591" y="1281"/>
      <point x="2744" y="954"/>
      <point x="2744" y="593" type="curve" smooth="yes"/>
      <point x="2744" y="232"/>
      <point x="2591" y="-83"/>
      <point x="2335" y="-302" type="curve" smooth="yes"/>
      <point x="2326" y="-309"/>
      <point x="2318" y="-312"/>
      <point x="2309" y="-302" type="curve" smooth="yes"/>
      <point x="2285" y="-278" type="line" smooth="yes"/>
      <point x="2254" y="-247"/>
      <point x="2224" y="-245"/>
      <point x="2190" y="-273" type="curve" smooth="yes"/>
      <point x="2052" y="-383"/>
      <point x="1827" y="-475"/>
      <point x="1542" y="-252" type="curve" smooth="yes"/>
      <point x="1534" y="-245"/>
      <point x="1525" y="-245"/>
      <point x="1517" y="-252" type="curve" smooth="yes"/>
      <point x="1232" y="-475"/>
      <point x="1009" y="-383"/>
      <point x="871" y="-273" type="curve" smooth="yes"/>
      <point x="836" y="-245"/>
      <point x="806" y="-247"/>
      <point x="775" y="-278" type="curve" smooth="yes"/>
      <point x="751" y="-302" type="line" smooth="yes"/>
      <point x="742" y="-312"/>
      <point x="734" y="-309"/>
      <point x="726" y="-302" type="curve" smooth="yes"/>
    </contour>
    <contour>
      <point x="1459" y="1580"/>
      <point x="1405" y="1633"/>
      <point x="1405" y="1702" type="curve" smooth="yes"/>
      <point x="1405" y="1771"/>
      <point x="1459" y="1830"/>
      <point x="1528" y="1830" type="curve" smooth="yes"/>
      <point x="1597" y="1830"/>
      <point x="1655" y="1771"/>
      <point x="1655" y="1702" type="curve" smooth="yes"/>
      <point x="1655" y="1633"/>
      <point x="1597" y="1580"/>
      <point x="1528" y="1580" type="curve" smooth="yes"/>
    </contour>
  </outline>
</glyph>
<glyph name="asteriskArt-ar" format="1">
  <advance width="1165"/>
  <unicode hex="06DE"/>
  <outline>
    <contour>
      <point x="608" y="-57" type="line" smooth="yes"/>
      <point x="613" y="-57"/>
      <point x="615" y="-55"/>
      <point x="615" y="-52" type="curve" smooth="yes"/>
      <point x="615" y="14" type="line" smooth="yes"/>
      <point x="615" y="17"/>
      <point x="618" y="18"/>
      <point x="621" y="18" type="curve" smooth="yes"/>
      <point x="861" y="40"/>
      <point x="1050" y="239"/>
      <point x="1050" y="485" type="curve" smooth="yes"/>
      <point x="1050" y="731"/>
      <point x="861" y="929"/>
      <point x="621" y="951" type="curve" smooth="yes"/>
      <point x="618" y="951"/>
      <point x="615" y="952"/>
      <point x="615" y="956" type="curve" smooth="yes"/>
      <point x="615" y="1021" type="line" smooth="yes"/>
      <point x="615" y="1025"/>
      <point x="613" y="1027"/>
      <point x="608" y="1027" type="curve" smooth="yes"/>
      <point x="555" y="1027" type="line" smooth="yes"/>
      <point x="552" y="1027"/>
      <point x="550" y="1025"/>
      <point x="550" y="1021" type="curve" smooth="yes"/>
      <point x="550" y="956" type="line" smooth="yes"/>
      <point x="550" y="953"/>
      <point x="547" y="951"/>
      <point x="543" y="951" type="curve" smooth="yes"/>
      <point x="304" y="929"/>
      <point x="115" y="731"/>
      <point x="115" y="485" type="curve" smooth="yes"/>
      <point x="115" y="239"/>
      <point x="304" y="40"/>
      <point x="543" y="18" type="curve" smooth="yes"/>
      <point x="547" y="18"/>
      <point x="550" y="16"/>
      <point x="550" y="14" type="curve" smooth="yes"/>
      <point x="550" y="-52" type="line" smooth="yes"/>
      <point x="550" y="-55"/>
      <point x="552" y="-57"/>
      <point x="555" y="-57" type="curve" smooth="yes"/>
    </contour>
    <contour>
      <point x="559" y="59"/>
      <point x="541" y="77"/>
      <point x="541" y="100" type="curve" smooth="yes"/>
      <point x="541" y="126"/>
      <point x="559" y="146"/>
      <point x="582" y="146" type="curve" smooth="yes"/>
      <point x="606" y="146"/>
      <point x="626" y="126"/>
      <point x="626" y="100" type="curve" smooth="yes"/>
      <point x="626" y="77"/>
      <point x="606" y="59"/>
      <point x="582" y="59" type="curve" smooth="yes"/>
    </contour>
    <contour>
      <point x="401" y="276"/>
      <point x="413" y="276"/>
      <point x="420" y="283" type="curve" smooth="yes"/>
      <point x="462" y="324" type="line" smooth="yes"/>
      <point x="470" y="332"/>
      <point x="470" y="342"/>
      <point x="462" y="350" type="curve" smooth="yes"/>
      <point x="420" y="391" type="line" smooth="yes"/>
      <point x="413" y="398"/>
      <point x="401" y="398"/>
      <point x="394" y="391" type="curve" smooth="yes"/>
      <point x="353" y="350" type="line" smooth="yes"/>
      <point x="346" y="343"/>
      <point x="346" y="331"/>
      <point x="353" y="324" type="curve" smooth="yes"/>
      <point x="394" y="283" type="line" smooth="yes"/>
    </contour>
    <contour>
      <point x="218" y="252"/>
      <point x="164" y="361"/>
      <point x="164" y="485" type="curve" smooth="yes"/>
      <point x="164" y="610"/>
      <point x="217" y="722"/>
      <point x="305" y="798" type="curve" smooth="yes"/>
      <point x="307" y="800"/>
      <point x="311" y="801"/>
      <point x="313" y="798" type="curve" smooth="yes"/>
      <point x="321" y="790" type="line" smooth="yes"/>
      <point x="333" y="779"/>
      <point x="342" y="781"/>
      <point x="353" y="789" type="curve" smooth="yes"/>
      <point x="398" y="819"/>
      <point x="467" y="845"/>
      <point x="552" y="793" type="curve" smooth="yes"/>
      <point x="557" y="790"/>
      <point x="559" y="785"/>
      <point x="559" y="781" type="curve" smooth="yes"/>
      <point x="559" y="528" type="line" smooth="yes"/>
      <point x="559" y="519"/>
      <point x="551" y="511"/>
      <point x="542" y="511" type="curve" smooth="yes"/>
      <point x="269" y="511" type="line" smooth="yes"/>
      <point x="260" y="511"/>
      <point x="252" y="503"/>
      <point x="252" y="493" type="curve" smooth="yes"/>
      <point x="252" y="478" type="line" smooth="yes"/>
      <point x="252" y="469"/>
      <point x="260" y="461"/>
      <point x="269" y="461" type="curve" smooth="yes"/>
      <point x="542" y="461" type="line" smooth="yes"/>
      <point x="551" y="461"/>
      <point x="559" y="453"/>
      <point x="559" y="444" type="curve" smooth="yes"/>
      <point x="559" y="189" type="line" smooth="yes"/>
      <point x="559" y="184"/>
      <point x="557" y="179"/>
      <point x="552" y="176" type="curve" smooth="yes"/>
      <point x="467" y="124"/>
      <point x="398" y="154"/>
      <point x="353" y="185" type="curve" smooth="yes"/>
      <point x="342" y="193"/>
      <point x="331" y="195"/>
      <point x="321" y="183" type="curve" smooth="yes"/>
      <point x="313" y="174" type="line" smooth="yes"/>
      <point x="312" y="172"/>
      <point x="307" y="172"/>
      <point x="305" y="174" type="curve" smooth="yes"/>
    </contour>
    <contour>
      <point x="401" y="565"/>
      <point x="413" y="565"/>
      <point x="420" y="572" type="curve" smooth="yes"/>
      <point x="462" y="613" type="line" smooth="yes"/>
      <point x="470" y="621"/>
      <point x="470" y="630"/>
      <point x="462" y="638" type="curve" smooth="yes"/>
      <point x="420" y="680" type="line" smooth="yes"/>
      <point x="413" y="687"/>
      <point x="401" y="687"/>
      <point x="394" y="680" type="curve" smooth="yes"/>
      <point x="353" y="638" type="line" smooth="yes"/>
      <point x="345" y="630"/>
      <point x="346" y="620"/>
      <point x="353" y="613" type="curve" smooth="yes"/>
      <point x="394" y="572" type="line" smooth="yes"/>
    </contour>
    <contour>
      <point x="753" y="276"/>
      <point x="765" y="276"/>
      <point x="772" y="283" type="curve" smooth="yes"/>
      <point x="814" y="324" type="line" smooth="yes"/>
      <point x="822" y="332"/>
      <point x="822" y="342"/>
      <point x="814" y="350" type="curve" smooth="yes"/>
      <point x="772" y="391" type="line" smooth="yes"/>
      <point x="765" y="398"/>
      <point x="753" y="398"/>
      <point x="746" y="391" type="curve" smooth="yes"/>
      <point x="705" y="350" type="line" smooth="yes"/>
      <point x="698" y="343"/>
      <point x="698" y="331"/>
      <point x="705" y="324" type="curve" smooth="yes"/>
      <point x="746" y="283" type="line" smooth="yes"/>
    </contour>
    <contour>
      <point x="844" y="183" type="line" smooth="yes"/>
      <point x="833" y="194"/>
      <point x="823" y="193"/>
      <point x="812" y="185" type="curve" smooth="yes"/>
      <point x="768" y="154"/>
      <point x="699" y="124"/>
      <point x="614" y="175" type="curve" smooth="yes"/>
      <point x="608" y="178"/>
      <point x="606" y="183"/>
      <point x="606" y="187" type="curve" smooth="yes"/>
      <point x="606" y="444" type="line" smooth="yes"/>
      <point x="606" y="453"/>
      <point x="614" y="461"/>
      <point x="623" y="461" type="curve" smooth="yes"/>
      <point x="896" y="461" type="line" smooth="yes"/>
      <point x="905" y="461"/>
      <point x="913" y="469"/>
      <point x="913" y="478" type="curve" smooth="yes"/>
      <point x="913" y="493" type="line" smooth="yes"/>
      <point x="913" y="503"/>
      <point x="905" y="511"/>
      <point x="896" y="511" type="curve" smooth="yes"/>
      <point x="623" y="511" type="line" smooth="yes"/>
      <point x="614" y="511"/>
      <point x="606" y="519"/>
      <point x="606" y="528" type="curve" smooth="yes"/>
      <point x="606" y="782" type="line" smooth="yes"/>
      <point x="606" y="787"/>
      <point x="608" y="791"/>
      <point x="614" y="795" type="curve" smooth="yes"/>
      <point x="699" y="845"/>
      <point x="768" y="819"/>
      <point x="812" y="789" type="curve" smooth="yes"/>
      <point x="823" y="782"/>
      <point x="833" y="780"/>
      <point x="844" y="790" type="curve" smooth="yes"/>
      <point x="852" y="798" type="line" smooth="yes"/>
      <point x="854" y="800"/>
      <point x="858" y="800"/>
      <point x="860" y="798" type="curve" smooth="yes"/>
      <point x="946" y="722"/>
      <point x="1000" y="610"/>
      <point x="1000" y="485" type="curve" smooth="yes"/>
      <point x="1000" y="361"/>
      <point x="946" y="252"/>
      <point x="860" y="174" type="curve" smooth="yes"/>
      <point x="858" y="172"/>
      <point x="853" y="172"/>
      <point x="852" y="174" type="curve" smooth="yes"/>
    </contour>
    <contour>
      <point x="753" y="565"/>
      <point x="765" y="565"/>
      <point x="772" y="572" type="curve" smooth="yes"/>
      <point x="814" y="613" type="line" smooth="yes"/>
      <point x="822" y="621"/>
      <point x="822" y="630"/>
      <point x="814" y="638" type="curve" smooth="yes"/>
      <point x="772" y="680" type="line" smooth="yes"/>
      <point x="765" y="687"/>
      <point x="753" y="687"/>
      <point x="746" y="680" type="curve" smooth="yes"/>
      <point x="705" y="638" type="line" smooth="yes"/>
      <point x="698" y="631"/>
      <point x="698" y="620"/>
      <point x="705" y="613" type="curve" smooth="yes"/>
      <point x="746" y="572" type="line" smooth="yes"/>
    </contour>
    <contour>
      <point x="558" y="823"/>
      <point x="539" y="842"/>
      <point x="539" y="866" type="curve" smooth="yes"/>
      <point x="539" y="889"/>
      <point x="558" y="911"/>
      <point x="582" y="911" type="curve" smooth="yes"/>
      <point x="606" y="911"/>
      <point x="626" y="889"/>
      <point x="626" y="866" type="curve" smooth="yes"/>
      <point x="626" y="842"/>
      <point x="606" y="823"/>
      <point x="582" y="823" type="curve" smooth="yes"/>
    </contour>
  </outline>
</glyph>
<glyph name="sajdah-ar" format="1">
  <advance width="923"/>
  <unicode hex="06E9"/>
  <outline>
    <contour>
      <point x="734" y="669" type="line" smooth="yes"/>
      <point x="777" y="669"/>
      <point x="808" y="695"/>
      <point x="808" y="751" type="curve" smooth="yes"/>
      <point x="808" y="964"/>
      <point x="767" y="960"/>
      <point x="474" y="1181" type="curve" smooth="yes"/>
      <point x="466" y="1187"/>
      <point x="457" y="1187"/>
      <point x="448" y="1181" type="curve" smooth="yes"/>
      <point x="155" y="960"/>
      <point x="115" y="964"/>
      <point x="115" y="751" type="curve" smooth="yes"/>
      <point x="115" y="695"/>
      <point x="153" y="669"/>
      <point x="197" y="669" type="curve" smooth="yes"/>
    </contour>
    <contour>
      <point x="712" y="0" type="line" smooth="yes"/>
      <point x="722" y="0"/>
      <point x="729" y="7"/>
      <point x="729" y="17" type="curve" smooth="yes"/>
      <point x="729" y="320" type="line" smooth="yes"/>
      <point x="729" y="330"/>
      <point x="722" y="337"/>
      <point x="712" y="337" type="curve" smooth="yes"/>
      <point x="212" y="337" type="line" smooth="yes"/>
      <point x="201" y="337"/>
      <point x="194" y="330"/>
      <point x="194" y="320" type="curve" smooth="yes"/>
      <point x="194" y="17" type="line" smooth="yes"/>
      <point x="194" y="7"/>
      <point x="201" y="0"/>
      <point x="212" y="0" type="curve" smooth="yes"/>
    </contour>
    <contour>
      <point x="712" y="406" type="line" smooth="yes"/>
      <point x="722" y="406"/>
      <point x="729" y="413"/>
      <point x="729" y="423" type="curve" smooth="yes"/>
      <point x="729" y="583" type="line" smooth="yes"/>
      <point x="729" y="593"/>
      <point x="722" y="600"/>
      <point x="712" y="600" type="curve" smooth="yes"/>
      <point x="212" y="600" type="line" smooth="yes"/>
      <point x="201" y="600"/>
      <point x="194" y="593"/>
      <point x="194" y="583" type="curve" smooth="yes"/>
      <point x="194" y="423" type="line" smooth="yes"/>
      <point x="194" y="413"/>
      <point x="201" y="406"/>
      <point x="212" y="406" type="curve" smooth="yes"/>
    </contour>
  </outline>
</glyph>
<glyph name="four-persian" format="1">
  <advance width="1174"/>
  <unicode hex="06F4"/>
  <outline>
    <contour>
      <point x="436" y="-3" type="line" smooth="yes"/>
      <point x="445" y="-1"/>
      <point x="451" y="5"/>
      <point x="451" y="16" type="curve" smooth="yes"/>
      <point x="448" y="304"/>
      <point x="443" y="509"/>
      <point x="416" y="708" type="curve"/>
      <point x="471" y="685"/>
      <point x="543" y="673"/>
      <point x="618" y="672" type="curve" smooth="yes"/>
      <point x="769" y="669"/>
      <point x="936" y="704"/>
      <point x="1015" y="729" type="curve" smooth="yes"/>
      <point x="1025" y="732"/>
      <point x="1028" y="738"/>
      <point x="1030" y="747" type="curve" smooth="yes"/>
      <point x="1059" y="887" type="line" smooth="yes"/>
      <point x="1062" y="900"/>
      <point x="1055" y="907"/>
      <point x="1042" y="904" type="curve" smooth="yes"/>
      <point x="897" y="873"/>
      <point x="733" y="854"/>
      <point x="629" y="860" type="curve" smooth="yes"/>
      <point x="622" y="860"/>
      <point x="618" y="865"/>
      <point x="615" y="872" type="curve" smooth="yes"/>
      <point x="520" y="1153" type="line" smooth="yes"/>
      <point x="516" y="1164"/>
      <point x="521" y="1172"/>
      <point x="530" y="1175" type="curve" smooth="yes"/>
      <point x="657" y="1220"/>
      <point x="776" y="1205"/>
      <point x="914" y="1186" type="curve" smooth="yes"/>
      <point x="926" y="1184"/>
      <point x="933" y="1191"/>
      <point x="931" y="1203" type="curve" smooth="yes"/>
      <point x="915" y="1320" type="line" smooth="yes"/>
      <point x="914" y="1331"/>
      <point x="910" y="1336"/>
      <point x="900" y="1339" type="curve" smooth="yes"/>
      <point x="767" y="1385"/>
      <point x="527" y="1389"/>
      <point x="445" y="1249" type="curve" smooth="yes"/>
      <point x="393" y="1160"/>
      <point x="392" y="1025"/>
      <point x="465" y="867" type="curve"/>
      <point x="369" y="873"/>
      <point x="306" y="1105"/>
      <point x="255" y="1237" type="curve" smooth="yes"/>
      <point x="250" y="1249"/>
      <point x="240" y="1250"/>
      <point x="232" y="1240" type="curve" smooth="yes"/>
      <point x="120" y="1104" type="line" smooth="yes"/>
      <point x="114" y="1096"/>
      <point x="113" y="1089"/>
      <point x="117" y="1080" type="curve" smooth="yes"/>
      <point x="325" y="690"/>
      <point x="336" y="267"/>
      <point x="340" y="-7" type="curve" smooth="yes"/>
      <point x="340" y="-20"/>
      <point x="346" y="-25"/>
      <point x="359" y="-22" type="curve" smooth="yes"/>
    </contour>
  </outline>
</glyph>
<glyph name="five-persian" format="1">
  <advance width="1038"/>
  <unicode hex="06F5"/>
  <outline>
    <contour>
      <point x="798" y="-21"/>
      <point x="913" y="151"/>
      <point x="922" y="305" type="curve" smooth="yes"/>
      <point x="941" y="591"/>
      <point x="721" y="850"/>
      <point x="422" y="1210" type="curve" smooth="yes"/>
      <point x="414" y="1220"/>
      <point x="404" y="1219"/>
      <point x="398" y="1208" type="curve" smooth="yes"/>
      <point x="314" y="1048" type="line" smooth="yes"/>
      <point x="310" y="1040"/>
      <point x="309" y="1032"/>
      <point x="316" y="1025" type="curve" smooth="yes"/>
      <point x="402" y="928" type="line"/>
      <point x="290" y="776"/>
      <point x="115" y="520"/>
      <point x="115" y="237" type="curve" smooth="yes"/>
      <point x="115" y="68"/>
      <point x="191" y="-14"/>
      <point x="290" y="-16" type="curve" smooth="yes"/>
      <point x="357" y="-17"/>
      <point x="427" y="25"/>
      <point x="477" y="123" type="curve"/>
      <point x="511" y="2"/>
      <point x="590" y="-24"/>
      <point x="658" y="-23" type="curve" smooth="yes"/>
    </contour>
    <contour>
      <point x="627" y="161"/>
      <point x="561" y="193"/>
      <point x="549" y="304" type="curve" smooth="yes"/>
      <point x="546" y="331"/>
      <point x="538" y="346"/>
      <point x="527" y="342" type="curve" smooth="yes"/>
      <point x="455" y="317" type="line" smooth="yes"/>
      <point x="446" y="314"/>
      <point x="440" y="308"/>
      <point x="439" y="299" type="curve" smooth="yes"/>
      <point x="427" y="220"/>
      <point x="381" y="169"/>
      <point x="329" y="169" type="curve" smooth="yes"/>
      <point x="265" y="169"/>
      <point x="202" y="216"/>
      <point x="202" y="302" type="curve" smooth="yes"/>
      <point x="202" y="477"/>
      <point x="393" y="758"/>
      <point x="477" y="845" type="curve"/>
      <point x="621" y="684"/>
      <point x="806" y="428"/>
      <point x="839" y="293" type="curve"/>
      <point x="810" y="216"/>
      <point x="731" y="162"/>
      <point x="679" y="162" type="curve" smooth="yes"/>
    </contour>
  </outline>
</glyph>
<glyph name="six-persian" format="1">
  <advance width="1160"/>
  <unicode hex="06F6"/>
  <outline>
    <contour>
      <point x="259" y="-38"/>
      <point x="268" y="-37"/>
      <point x="275" y="-26" type="curve" smooth="yes"/>
      <point x="439" y="235"/>
      <point x="639" y="578"/>
      <point x="1029" y="908" type="curve" smooth="yes"/>
      <point x="1042" y="919"/>
      <point x="1046" y="927"/>
      <point x="1045" y="936" type="curve" smooth="yes"/>
      <point x="1027" y="1104" type="line" smooth="yes"/>
      <point x="1025" y="1119"/>
      <point x="1017" y="1121"/>
      <point x="1005" y="1112" type="curve" smooth="yes"/>
      <point x="831" y="971"/>
      <point x="677" y="774"/>
      <point x="606" y="699" type="curve" smooth="yes"/>
      <point x="601" y="693"/>
      <point x="596" y="693"/>
      <point x="589" y="696" type="curve" smooth="yes"/>
      <point x="429" y="765"/>
      <point x="266" y="906"/>
      <point x="228" y="990" type="curve"/>
      <point x="294" y="1137"/>
      <point x="473" y="1213"/>
      <point x="681" y="1178" type="curve" smooth="yes"/>
      <point x="692" y="1176"/>
      <point x="699" y="1180"/>
      <point x="700" y="1193" type="curve" smooth="yes"/>
      <point x="706" y="1296" type="line" smooth="yes"/>
      <point x="707" y="1306"/>
      <point x="703" y="1312"/>
      <point x="692" y="1316" type="curve" smooth="yes"/>
      <point x="351" y="1425"/>
      <point x="138" y="1214"/>
      <point x="116" y="953" type="curve" smooth="yes"/>
      <point x="100" y="766"/>
      <point x="311" y="619"/>
      <point x="474" y="562" type="curve"/>
      <point x="361" y="394"/>
      <point x="258" y="215"/>
      <point x="179" y="70" type="curve" smooth="yes"/>
      <point x="174" y="61"/>
      <point x="176" y="54"/>
      <point x="183" y="46" type="curve" smooth="yes"/>
      <point x="251" y="-29" type="line" smooth="yes"/>
    </contour>
  </outline>
</glyph>
<glyph name="hyphentwo" format="1">
  <advance width="880"/>
  <unicode hex="2010"/>
  <outline>
    <contour>
      <point x="747" y="416" type="line" smooth="yes"/>
      <point x="758" y="416"/>
      <point x="765" y="423"/>
      <point x="765" y="434" type="curve" smooth="yes"/>
      <point x="765" y="549" type="line" smooth="yes"/>
      <point x="765" y="559"/>
      <point x="758" y="566"/>
      <point x="747" y="566" type="curve" smooth="yes"/>
      <point x="132" y="566" type="line" smooth="yes"/>
      <point x="122" y="566"/>
      <point x="115" y="559"/>
      <point x="115" y="549" type="curve" smooth="yes"/>
      <point x="115" y="434" type="line" smooth="yes"/>
      <point x="115" y="423"/>
      <point x="122" y="416"/>
      <point x="132" y="416" type="curve" smooth="yes"/>
    </contour>
  </outline>
</glyph>
<glyph name="bullet" format="1">
  <advance width="980"/>
  <unicode hex="2022"/>
  <outline>
    <contour>
      <point x="865" y="500" type="curve" smooth="yes"/>
      <point x="865" y="707"/>
      <point x="697" y="875"/>
      <point x="490" y="875" type="curve" smooth="yes"/>
      <point x="283" y="875"/>
      <point x="115" y="707"/>
      <point x="115" y="500" type="curve" smooth="yes"/>
      <point x="115" y="292"/>
      <point x="283" y="124"/>
      <point x="490" y="124" type="curve" smooth="yes"/>
      <point x="697" y="124"/>
      <point x="865" y="292"/>
    </contour>
  </outline>
</glyph>
<glyph name="minus" format="1">
  <advance width="1258"/>
  <unicode hex="2212"/>
  <outline>
    <contour>
      <point x="1143" y="419" type="line"/>
      <point x="1143" y="581" type="line"/>
      <point x="115" y="581" type="line"/>
      <point x="115" y="419" type="line"/>
    </contour>
  </outline>
</glyph>
<glyph name="dottedCircle" format="1">
  <advance width="1061"/>
  <unicode hex="25CC"/>
  <outline>
    <contour>
      <point x="707" y="637"/>
      <point x="736" y="637"/>
      <point x="759" y="676" type="curve" smooth="yes"/>
      <point x="782" y="715"/>
      <point x="767" y="741"/>
      <point x="739" y="757" type="curve" smooth="yes"/>
      <point x="713" y="772"/>
      <point x="681" y="772"/>
      <point x="659" y="734" type="curve" smooth="yes"/>
      <point x="636" y="696"/>
      <point x="651" y="669"/>
      <point x="680" y="653" type="curve" smooth="yes"/>
    </contour>
    <contour>
      <point x="352" y="21"/>
      <point x="381" y="22"/>
      <point x="402" y="60" type="curve" smooth="yes"/>
      <point x="424" y="99"/>
      <point x="411" y="124"/>
      <point x="383" y="140" type="curve" smooth="yes"/>
      <point x="358" y="155"/>
      <point x="325" y="155"/>
      <point x="304" y="117" type="curve" smooth="yes"/>
      <point x="281" y="78"/>
      <point x="296" y="53"/>
      <point x="323" y="37" type="curve" smooth="yes"/>
    </contour>
    <contour>
      <point x="290" y="192"/>
      <point x="291" y="221"/>
      <point x="275" y="248" type="curve" smooth="yes"/>
      <point x="260" y="275"/>
      <point x="232" y="291"/>
      <point x="194" y="269" type="curve" smooth="yes"/>
      <point x="155" y="246"/>
      <point x="155" y="217"/>
      <point x="171" y="189" type="curve" smooth="yes"/>
      <point x="187" y="161"/>
      <point x="213" y="147"/>
      <point x="252" y="169" type="curve" smooth="yes"/>
    </contour>
    <contour>
      <point x="575" y="-18"/>
      <point x="590" y="7"/>
      <point x="590" y="39" type="curve" smooth="yes"/>
      <point x="590" y="69"/>
      <point x="574" y="97"/>
      <point x="530" y="97" type="curve" smooth="yes"/>
      <point x="485" y="97"/>
      <point x="470" y="71"/>
      <point x="470" y="39" type="curve" smooth="yes"/>
      <point x="470" y="7"/>
      <point x="485" y="-18"/>
      <point x="530" y="-18" type="curve" smooth="yes"/>
    </contour>
    <contour>
      <point x="220" y="339"/>
      <point x="235" y="365"/>
      <point x="235" y="397" type="curve" smooth="yes"/>
      <point x="235" y="427"/>
      <point x="218" y="454"/>
      <point x="175" y="454" type="curve" smooth="yes"/>
      <point x="130" y="454"/>
      <point x="115" y="429"/>
      <point x="115" y="397" type="curve" smooth="yes"/>
      <point x="115" y="365"/>
      <point x="130" y="339"/>
      <point x="175" y="339" type="curve" smooth="yes"/>
    </contour>
    <contour>
      <point x="217" y="508"/>
      <point x="248" y="508"/>
      <point x="269" y="547" type="curve" smooth="yes"/>
      <point x="292" y="585"/>
      <point x="277" y="612"/>
      <point x="250" y="627" type="curve" smooth="yes"/>
      <point x="223" y="643"/>
      <point x="192" y="642"/>
      <point x="170" y="604" type="curve" smooth="yes"/>
      <point x="148" y="566"/>
      <point x="162" y="539"/>
      <point x="190" y="523" type="curve" smooth="yes"/>
    </contour>
    <contour>
      <point x="777" y="60"/>
      <point x="777" y="89"/>
      <point x="761" y="116" type="curve" smooth="yes"/>
      <point x="746" y="143"/>
      <point x="719" y="159"/>
      <point x="681" y="137" type="curve" smooth="yes"/>
      <point x="642" y="114"/>
      <point x="642" y="85"/>
      <point x="658" y="56" type="curve" smooth="yes"/>
      <point x="674" y="29"/>
      <point x="699" y="15"/>
      <point x="738" y="37" type="curve" smooth="yes"/>
    </contour>
    <contour>
      <point x="838" y="150"/>
      <point x="867" y="150"/>
      <point x="890" y="189" type="curve" smooth="yes"/>
      <point x="913" y="228"/>
      <point x="898" y="253"/>
      <point x="871" y="269" type="curve" smooth="yes"/>
      <point x="844" y="284"/>
      <point x="813" y="284"/>
      <point x="791" y="246" type="curve" smooth="yes"/>
      <point x="768" y="207"/>
      <point x="783" y="182"/>
      <point x="811" y="166" type="curve" smooth="yes"/>
    </contour>
    <contour>
      <point x="419" y="680"/>
      <point x="419" y="710"/>
      <point x="402" y="737" type="curve" smooth="yes"/>
      <point x="388" y="764"/>
      <point x="360" y="779"/>
      <point x="322" y="757" type="curve" smooth="yes"/>
      <point x="284" y="735"/>
      <point x="283" y="705"/>
      <point x="299" y="677" type="curve" smooth="yes"/>
      <point x="315" y="650"/>
      <point x="342" y="635"/>
      <point x="379" y="658" type="curve" smooth="yes"/>
    </contour>
    <contour>
      <point x="931" y="339"/>
      <point x="946" y="365"/>
      <point x="946" y="397" type="curve" smooth="yes"/>
      <point x="946" y="427"/>
      <point x="930" y="454"/>
      <point x="887" y="454" type="curve" smooth="yes"/>
      <point x="842" y="454"/>
      <point x="827" y="429"/>
      <point x="827" y="397" type="curve" smooth="yes"/>
      <point x="827" y="365"/>
      <point x="842" y="339"/>
      <point x="887" y="339" type="curve" smooth="yes"/>
    </contour>
    <contour>
      <point x="575" y="698"/>
      <point x="590" y="723"/>
      <point x="590" y="756" type="curve" smooth="yes"/>
      <point x="590" y="785"/>
      <point x="574" y="813"/>
      <point x="530" y="813" type="curve" smooth="yes"/>
      <point x="485" y="813"/>
      <point x="470" y="788"/>
      <point x="470" y="756" type="curve" smooth="yes"/>
      <point x="470" y="723"/>
      <point x="485" y="698"/>
      <point x="530" y="698" type="curve" smooth="yes"/>
    </contour>
    <contour>
      <point x="907" y="547"/>
      <point x="907" y="577"/>
      <point x="891" y="605" type="curve" smooth="yes"/>
      <point x="876" y="630"/>
      <point x="849" y="646"/>
      <point x="811" y="624" type="curve" smooth="yes"/>
      <point x="772" y="603"/>
      <point x="772" y="573"/>
      <point x="788" y="545" type="curve" smooth="yes"/>
      <point x="804" y="518"/>
      <point x="829" y="503"/>
      <point x="868" y="526" type="curve" smooth="yes"/>
    </contour>
  </outline>
</glyph>
<glyph name="whiteStar.circled" format="1">
  <advance width="981"/>
  <unicode hex="272A"/>
  <outline>
    <contour>
      <point x="698" y="118"/>
      <point x="866" y="283"/>
      <point x="866" y="484" type="curve" smooth="yes"/>
      <point x="866" y="685"/>
      <point x="698" y="852"/>
      <point x="490" y="852" type="curve" smooth="yes"/>
      <point x="282" y="852"/>
      <point x="115" y="685"/>
      <point x="115" y="484" type="curve" smooth="yes"/>
      <point x="115" y="283"/>
      <point x="282" y="118"/>
      <point x="490" y="118" type="curve" smooth="yes"/>
    </contour>
    <contour>
      <point x="308" y="229" type="line"/>
      <point x="383" y="437" type="line"/>
      <point x="189" y="557" type="line"/>
      <point x="198" y="582" type="line"/>
      <point x="427" y="575" type="line"/>
      <point x="480" y="788" type="line"/>
      <point x="507" y="788" type="line"/>
      <point x="572" y="575" type="line"/>
      <point x="790" y="585" type="line"/>
      <point x="798" y="557" type="line"/>
      <point x="614" y="438" type="line"/>
      <point x="692" y="240" type="line"/>
      <point x="670" y="221" type="line"/>
      <point x="498" y="352" type="line"/>
      <point x="329" y="213" type="line"/>
    </contour>
  </outline>
</glyph>
<glyph name="alefWasla-ar.fina" format="1">
  <advance width="666"/>
  <unicode hex="FB51"/>
  <outline>
    <component base="wasla-ar" xOffset="7" yOffset="71"/>
    <component base="alef-ar.fina.short"/>
    <contour>
      <point x="414" y="1943" type="move" name="top"/>
    </contour>
  </outline>
</glyph>
<glyph name="alefWasla-ar.fina" format="1">
  <advance width="666"/>
  <unicode hex="FB51"/>
  <outline>
    <contour>
      <point x="414" y="1943" type="move" name="top"/>
    </contour>
    <component base="wasla-ar" xOffset="7" yOffset="71"/>
    <component base="alef-ar.fina.short"/>
  </outline>
</glyph>
<glyph name="peh-ar.fina" format="1">
  <advance width="1994"/>
  <unicode hex="FB57"/>
  <outline>
    <contour>
      <point x="836" y="861" type="move" name="top"/>
    </contour>
    <component base="dotlessbeh-ar.fina"/>
    <component base="threedotsdownbelow-ar" xOffset="624" yOffset="-87"/>
  </outline>
</glyph>
<glyph name="peh-ar.init" format="1">
  <advance width="803"/>
  <unicode hex="FB58"/>
  <outline>
    <contour>
      <point x="92" y="0" type="line" smooth="yes"/>
      <point x="299" y="0"/>
      <point x="599" y="91"/>
      <point x="628" y="209" type="curve"/>
      <point x="651" y="278"/>
      <point x="665" y="361"/>
      <point x="665" y="423" type="curve" smooth="yes"/>
      <point x="665" y="515"/>
      <point x="595" y="799"/>
      <point x="553" y="975" type="curve" smooth="yes"/>
      <point x="550" y="988"/>
      <point x="539" y="989"/>
      <point x="530" y="980" type="curve" smooth="yes"/>
      <point x="427" y="875" type="line" smooth="yes"/>
      <point x="421" y="868"/>
      <point x="419" y="861"/>
      <point x="421" y="852" type="curve" smooth="yes"/>
      <point x="568" y="319" type="line" smooth="yes"/>
      <point x="576" y="290"/>
      <point x="563" y="279"/>
      <point x="544" y="271" type="curve" smooth="yes"/>
      <point x="461" y="236"/>
      <point x="311" y="179"/>
      <point x="92" y="179" type="curve" smooth="yes"/>
      <point x="-20" y="179" type="line" smooth="yes"/>
      <point x="-138" y="179"/>
      <point x="-138" y="0"/>
      <point x="-20" y="0" type="curve" smooth="yes"/>
    </contour>
    <component base="threedotsdownbelow-ar" xOffset="25" yOffset="-24"/>
    <contour>
      <point x="544" y="1159" type="move" name="top"/>
    </contour>
  </outline>
</glyph>
<glyph name="peh-ar.medi" format="1">
  <advance width="913"/>
  <unicode hex="FB59"/>
  <outline>
    <contour>
      <point x="529" y="790" type="move" name="top"/>
    </contour>
    <component base="dotlessbeh-ar.medi"/>
    <component base="threedotsdownbelow-ar" xOffset="105" yOffset="-38"/>
  </outline>
</glyph>
<glyph name="veh-ar.fina" format="1">
  <advance width="2077"/>
  <unicode hex="FB6B"/>
  <outline>
    <contour>
      <point x="848" y="-230" type="move" name="bottom"/>
    </contour>
    <component base="dotlessfeh-ar.fina"/>
    <component base="threedotsupabove-ar" xOffset="1372" yOffset="533"/>
  </outline>
</glyph>
<glyph name="veh-ar.init" format="1">
  <advance width="995"/>
  <unicode hex="FB6C"/>
  <outline>
    <component base="dotlessfeh-ar.init"/>
    <component base="threedotsupabove-ar" xOffset="157" yOffset="639"/>
    <contour>
      <point x="399" y="-173" type="move" name="bottom"/>
    </contour>
  </outline>
</glyph>
<glyph name="veh-ar.medi" format="1">
  <advance width="1043"/>
  <unicode hex="FB6D"/>
  <outline>
    <component base="dotlessfeh-ar.medi"/>
    <component base="threedotsupabove-ar" xOffset="275" yOffset="533"/>
    <contour>
      <point x="491" y="-174" type="move" name="bottom"/>
    </contour>
  </outline>
</glyph>
<glyph name="tcheh-ar.init" format="1">
  <advance width="1661"/>
  <unicode hex="FB7C"/>
  <outline>
    <contour>
      <point x="508" y="973" type="move" name="top"/>
    </contour>
    <component base="hah-ar.init"/>
    <component base="threedotsdownbelow-ar" xOffset="454" yOffset="-11"/>
  </outline>
</glyph>
<glyph name="tcheh-ar.medi" format="1">
  <advance width="1607"/>
  <unicode hex="FB7D"/>
  <outline>
    <contour>
      <point x="516" y="968" type="move" name="top"/>
    </contour>
    <component base="hah-ar.medi"/>
    <component base="threedotsdownbelow-ar" xOffset="505" yOffset="8"/>
  </outline>
</glyph>
<glyph name="dul-ar.fina" format="1">
  <advance width="1312"/>
  <unicode hex="FB87"/>
  <outline>
    <component base="dal-ar.fina"/>
    <component base="threedotsupabove-ar" xOffset="619" yOffset="557"/>
    <contour>
      <point x="514" y="-230" type="move" name="bottom"/>
    </contour>
  </outline>
</glyph>
<glyph name="jeh-ar.fina" format="1">
  <advance width="1160"/>
  <unicode hex="FB8B"/>
  <outline>
    <contour>
      <point x="334" y="-650" type="move" name="bottom"/>
    </contour>
    <component base="reh-ar.fina"/>
    <component base="threedotsupabove-ar" xOffset="383" yOffset="216"/>
  </outline>
</glyph>
<glyph name="keheh-ar.fina" format="1">
  <advance width="1879"/>
  <unicode hex="FB8F"/>
  <outline>
    <contour>
      <point x="979" y="-38"/>
      <point x="1304" y="21"/>
      <point x="1465" y="87" type="curve" smooth="yes"/>
      <point x="1485" y="95"/>
      <point x="1498" y="113"/>
      <point x="1548" y="210" type="curve"/>
      <point x="1659" y="37"/>
      <point x="1763" y="0"/>
      <point x="1842" y="0" type="curve" smooth="yes"/>
      <point x="1899" y="0" type="line"/>
      <point x="1947" y="60"/>
      <point x="1947" y="119"/>
      <point x="1899" y="179" type="curve"/>
      <point x="1842" y="179" type="line" smooth="yes"/>
      <point x="1713" y="179"/>
      <point x="1655" y="220"/>
      <point x="1592" y="343" type="curve" smooth="yes"/>
      <point x="1459" y="599"/>
      <point x="1370" y="861"/>
      <point x="1018" y="1072" type="curve"/>
      <point x="1782" y="1310" type="line" smooth="yes"/>
      <point x="1792" y="1313"/>
      <point x="1798" y="1318"/>
      <point x="1799" y="1328" type="curve" smooth="yes"/>
      <point x="1817" y="1474" type="line" smooth="yes"/>
      <point x="1819" y="1487"/>
      <point x="1811" y="1493"/>
      <point x="1799" y="1489" type="curve" smooth="yes"/>
      <point x="1033" y="1236" type="line" smooth="yes"/>
      <point x="1023" y="1233"/>
      <point x="1019" y="1229"/>
      <point x="1015" y="1221" type="curve" smooth="yes"/>
      <point x="895" y="969" type="line" smooth="yes"/>
      <point x="891" y="960"/>
      <point x="894" y="951"/>
      <point x="903" y="946" type="curve" smooth="yes"/>
      <point x="1293" y="734"/>
      <point x="1428" y="392"/>
      <point x="1479" y="262" type="curve"/>
      <point x="1347" y="214"/>
      <point x="1081" y="150"/>
      <point x="750" y="155" type="curve" smooth="yes"/>
      <point x="480" y="160"/>
      <point x="256" y="235"/>
      <point x="279" y="466" type="curve" smooth="yes"/>
      <point x="293" y="607" type="line" smooth="yes"/>
      <point x="294" y="618"/>
      <point x="288" y="625"/>
      <point x="277" y="626" type="curve" smooth="yes"/>
      <point x="214" y="631" type="line" smooth="yes"/>
      <point x="204" y="632"/>
      <point x="195" y="626"/>
      <point x="194" y="615" type="curve" smooth="yes"/>
      <point x="178" y="466" type="line" smooth="yes"/>
      <point x="141" y="117"/>
      <point x="301" y="-20"/>
      <point x="666" y="-30" type="curve" smooth="yes"/>
    </contour>
    <contour>
      <point x="624" y="1202" type="move" name="top"/>
    </contour>
    <contour>
      <point x="785" y="-202" type="move" name="bottom"/>
    </contour>
  </outline>
</glyph>
<glyph name="gaf-ar.fina" format="1">
  <advance width="1879"/>
  <unicode hex="FB93"/>
  <outline>
    <contour>
      <point x="917" y="-37"/>
      <point x="1176" y="0"/>
      <point x="1352" y="49" type="curve" smooth="yes"/>
      <point x="1480" y="84"/>
      <point x="1489" y="117"/>
      <point x="1536" y="187" type="curve" smooth="yes"/>
      <point x="1546" y="201"/>
      <point x="1554" y="202"/>
      <point x="1562" y="190" type="curve" smooth="yes"/>
      <point x="1667" y="33"/>
      <point x="1766" y="0"/>
      <point x="1842" y="0" type="curve" smooth="yes"/>
      <point x="1899" y="0" type="line"/>
      <point x="1947" y="60"/>
      <point x="1947" y="119"/>
      <point x="1899" y="179" type="curve"/>
      <point x="1842" y="179" type="line" smooth="yes"/>
      <point x="1713" y="179"/>
      <point x="1655" y="220"/>
      <point x="1592" y="343" type="curve" smooth="yes"/>
      <point x="1463" y="593"/>
      <point x="1374" y="849"/>
      <point x="1042" y="1057" type="curve" smooth="yes"/>
      <point x="1029" y="1065"/>
      <point x="1030" y="1076"/>
      <point x="1044" y="1080" type="curve" smooth="yes"/>
      <point x="1782" y="1310" type="line" smooth="yes"/>
      <point x="1792" y="1313"/>
      <point x="1798" y="1318"/>
      <point x="1799" y="1328" type="curve" smooth="yes"/>
      <point x="1817" y="1474" type="line" smooth="yes"/>
      <point x="1819" y="1487"/>
      <point x="1811" y="1493"/>
      <point x="1799" y="1489" type="curve" smooth="yes"/>
      <point x="1033" y="1236" type="line" smooth="yes"/>
      <point x="1023" y="1233"/>
      <point x="1019" y="1229"/>
      <point x="1015" y="1221" type="curve" smooth="yes"/>
      <point x="895" y="969" type="line" smooth="yes"/>
      <point x="891" y="960"/>
      <point x="894" y="951"/>
      <point x="903" y="946" type="curve" smooth="yes"/>
      <point x="1278" y="742"/>
      <point x="1418" y="417"/>
      <point x="1473" y="278" type="curve" smooth="yes"/>
      <point x="1477" y="268"/>
      <point x="1473" y="259"/>
      <point x="1463" y="256" type="curve" smooth="yes"/>
      <point x="1326" y="209"/>
      <point x="1068" y="150"/>
      <point x="750" y="155" type="curve" smooth="yes"/>
      <point x="480" y="160"/>
      <point x="256" y="235"/>
      <point x="279" y="466" type="curve" smooth="yes"/>
      <point x="293" y="607" type="line" smooth="yes"/>
      <point x="294" y="618"/>
      <point x="288" y="625"/>
      <point x="277" y="626" type="curve" smooth="yes"/>
      <point x="214" y="631" type="line" smooth="yes"/>
      <point x="204" y="632"/>
      <point x="195" y="626"/>
      <point x="194" y="615" type="curve" smooth="yes"/>
      <point x="178" y="466" type="line" smooth="yes"/>
      <point x="141" y="117"/>
      <point x="301" y="-20"/>
      <point x="666" y="-30" type="curve" smooth="yes"/>
    </contour>
    <contour>
      <point x="1649" y="1599" type="line" smooth="yes"/>
      <point x="1658" y="1602"/>
      <point x="1663" y="1608"/>
      <point x="1665" y="1616" type="curve" smooth="yes"/>
      <point x="1686" y="1693" type="line" smooth="yes"/>
      <point x="1690" y="1706"/>
      <point x="1681" y="1713"/>
      <point x="1669" y="1709" type="curve" smooth="yes"/>
      <point x="1156" y="1547" type="line" smooth="yes"/>
      <point x="1148" y="1544"/>
      <point x="1143" y="1541"/>
      <point x="1139" y="1532" type="curve" smooth="yes"/>
      <point x="1102" y="1447" type="line" smooth="yes"/>
      <point x="1096" y="1433"/>
      <point x="1103" y="1425"/>
      <point x="1117" y="1430" type="curve" smooth="yes"/>
    </contour>
    <contour>
      <point x="598" y="1218" type="move" name="top"/>
    </contour>
    <contour>
      <point x="785" y="-202" type="move" name="bottom"/>
    </contour>
  </outline>
</glyph>
